<svg fill="none" height="20" viewBox="0 0 20 20" width="20" xmlns="http://www.w3.org/2000/svg" xmlns:xlink="http://www.w3.org/1999/xlink"><clipPath id="a"><path d="m0 0h20v20h-20z"/></clipPath><g clip-path="url(#a)"><path d="m20 9.9999c0-5.52285-4.4771-10.00000109-10-10.00000109-5.52285 0-10 4.47715109-10 10.00000109 0 4.9913 3.65686 9.1283 8.4375 9.8785v-6.9879h-2.53906v-2.8906h2.53906v-2.20313c0-2.50625 1.49293-3.89062 3.7771-3.89062 1.0941 0 2.2385.19531 2.2385.19531v2.46094h-1.261c-1.2422 0-1.6296.77084-1.6296 1.56166v1.87584h2.7734l-.4433 2.8906h-2.3301v6.9879c4.7806-.7502 8.4375-4.8872 8.4375-9.8785z" fill="#1877f2"/><path d="m13.8926 12.8906.4433-2.8906h-2.7734v-1.87584c0-.79082.3874-1.56166 1.6296-1.56166h1.261v-2.46094s-1.1444-.19531-2.2385-.19531c-2.28417 0-3.7771 1.38437-3.7771 3.89063v2.20312h-2.53906v2.8906h2.53906v6.9879c.50912.0799 1.03094.1215 1.5625.1215.5316 0 1.0534-.0416 1.5625-.1215v-6.9879z" fill="#fff"/></g></svg>