<svg fill="none" height="32" viewBox="0 0 32 32" width="32" xmlns="http://www.w3.org/2000/svg"><rect fill="#d9d9d7" height="32" rx="16" width="32"/><path d="m16 15.6064c-.825 0-1.5-.2625-2.025-.7875s-.7875-1.2-.7875-2.025.2625-1.5.7875-2.025 1.2-.78745 2.025-.78745 1.5.26245 2.025.78745.7875 1.2.7875 2.025-.2625 1.5-.7875 2.025-1.2.7875-2.025.7875zm-6 6.0188v-1.7625c0-.475.1187-.8813.3562-1.2188s.5438-.5937.9188-.7687c.8375-.375 1.6406-.6563 2.4094-.8438.7687-.1875 1.5406-.2812 2.3156-.2812s1.5437.0969 2.3062.2906c.7625.1938 1.5625.4719 2.4.8344.3876.175.7.4312.9375.7687s.3563.7438.3563 1.2188v1.7625z" fill="#fff"/></svg>