<svg fill="none" height="15" viewBox="0 0 156 15" width="156" xmlns="http://www.w3.org/2000/svg" xmlns:xlink="http://www.w3.org/1999/xlink"><linearGradient id="a"><stop offset="0" stop-color="#007940"/><stop offset=".2285" stop-color="#00873f"/><stop offset=".7433" stop-color="#40a737"/><stop offset="1" stop-color="#5cb531"/></linearGradient><linearGradient id="b" gradientUnits="userSpaceOnUse" x1="81.604" x2="86.597" xlink:href="#a" y1="8.27915" y2="8.27915"/><linearGradient id="c" gradientUnits="userSpaceOnUse" x1="81.6038" x2="86.5973" xlink:href="#a" y1="7.5007" y2="7.5007"/><linearGradient id="d" gradientUnits="userSpaceOnUse" x1="81.6039" x2="86.5971" xlink:href="#a" y1="6.65419" y2="6.65419"/><linearGradient id="e" gradientUnits="userSpaceOnUse" x1="70.4253" x2="75.4956" y1="7.5007" y2="7.5007"><stop offset="0" stop-color="#1f286f"/><stop offset=".4751" stop-color="#004e94"/><stop offset=".8261" stop-color="#0066b1"/><stop offset="1" stop-color="#006fbc"/></linearGradient><linearGradient id="f" gradientUnits="userSpaceOnUse" x1="75.9879" x2="80.9123" y1="7.5007" y2="7.5007"><stop offset="0" stop-color="#6c2c2f"/><stop offset=".1735" stop-color="#882730"/><stop offset=".5731" stop-color="#be1833"/><stop offset=".8585" stop-color="#dc0436"/><stop offset="1" stop-color="#e60039"/></linearGradient><clipPath id="g"><path d="m0 1.5h38.7692v12h-38.7692z"/></clipPath><clipPath id="h"><path d="m91.5942.5h14.0348v14h-14.0348z"/></clipPath><clipPath id="i"><path d="m109.629 1.5h46.3095v12h-46.3095z"/></clipPath><g clip-path="url(#g)"><path d="m25.2461 1.51848c-2.75 0-5.2076 1.35883-5.2076 3.86938 0 2.87912 4.3586 3.07798 4.3586 4.52437 0 .60897-.7321 1.15417-1.9825 1.15417-1.7746 0-3.101-.7618-3.101-.7618l-.5675 2.5335s1.5279.6434 3.5565.6434c3.0066 0 5.3725-1.4255 5.3725-3.979 0-3.04232-4.3767-3.23527-4.3767-4.57776 0-.47707.601-.9998 1.8478-.9998 1.4068 0 2.5546.554 2.5546.554l.5554-2.44685s-1.2489-.51361-3.0101-.51361zm-25.15998.18467-.0665888.36933s1.1569388.20186 2.1989388.6045c1.34168.46172 1.43725.73051 1.66321 1.56536l2.46227 9.04876h3.30069l5.08496-11.58795h-3.2931l-3.26741 7.8787-1.33329-6.67836c-.12227-.76433-.74163-1.20034-1.49976-1.20034zm15.96768 0-2.5833 11.58795h3.1402l2.5743-11.58795zm17.5144 0c-.7573 0-1.1585.38648-1.4529 1.06184l-4.6007 10.52611h3.2932l.6371-1.7544h4.012l.3874 1.7544h2.9057l-2.5349-11.58795zm.4283 3.1307.9761 4.34836h-2.6151z" fill="#1434cb"/></g><path d="m57.4632 1.99678h-6.7381v11.00532h6.7381z" fill="#ff5f00"/><path d="m51.4191 7.5006c-.0008-1.05972.2394-2.10574.7025-3.05891.4631-.95316 1.137-1.7885 1.9706-2.44279-1.0325-.81141-2.2724-1.315972-3.5781-1.45603-1.3056-.140058-2.6244.090045-3.8054.66401-1.1811.57396-2.1769 1.46863-2.8736 2.58175-.6966 1.11312-1.0661 2.39979-1.0661 3.71294s.3695 2.59983 1.0661 3.71293c.6967 1.1131 1.6925 2.0078 2.8736 2.5818 1.181.5739 2.4998.804 3.8054.664 1.3057-.1401 2.5456-.6447 3.5781-1.4561-.8339-.6545-1.5079-1.4901-1.971-2.4436-.4632-.95355-.7032-1.99996-.7021-3.06z" fill="#eb001b"/><path d="m65.4164 7.50041c0 1.31325-.3695 2.59999-1.0663 3.71319-.6968 1.1131-1.6927 2.0078-2.8739 2.5817-1.1813.5738-2.5001.8038-3.8059.6635-1.3057-.1402-2.5456-.645-3.578-1.4567.8333-.6549 1.5069-1.4904 1.9702-2.4437.4632-.95317.7039-1.99915.7039-3.05897 0-1.05981-.2407-2.10579-.7039-3.05901-.4633-.95322-1.1369-1.78878-1.9702-2.44365 1.0324-.81166 2.2723-1.316477 3.578-1.456736 1.3058-.140259 2.6246.089696 3.8059.663576 1.1812.57388 2.1771 1.46854 2.8739 2.58169.6968 1.11316 1.0663 2.39991 1.0663 3.71316z" fill="#f79e1b"/><path d="m87.5943 11.6778c0 1.5555-1.2667 2.8222-2.8222 2.8222h-15.3556v-11.17778c0-1.55555 1.2667-2.82222 2.8222-2.82222h15.3556z" fill="#fff"/><path d="m82.5947 8.81116h1.1667c.0333 0 .1111-.01111.1444-.01111.2223-.04445.4111-.24445.4111-.52223 0-.26666-.1888-.46666-.4111-.52222-.0333-.01111-.1-.01111-.1444-.01111h-1.1667z" fill="url(#b)"/><path d="m83.6281 1.44444c-1.1112 0-2.0223.9-2.0223 2.02223v2.09999h2.8556c.0667 0 .1444.00001.2.01112.6444.03333 1.1222.36666 1.1222.94444 0 .45556-.3222.84444-.9222.92222v.02223c.6555.04444 1.1555.41111 1.1555.97777 0 .61111-.5555 1.01111-1.2888 1.01111h-3.1334v4.11115h2.9667c1.1111 0 2.0222-.9 2.0222-2.0223v-10.09996z" fill="url(#c)"/><path d="m84.1725 6.65558c0-.26667-.1889-.44445-.4111-.47778-.0222 0-.0778-.01111-.1111-.01111h-1.0556v.97777h1.0556c.0333 0 .1 0 .1111-.01111.2222-.03333.4111-.21111.4111-.47777z" fill="url(#d)"/><path d="m72.4498 1.44444c-1.1111 0-2.0222.9-2.0222 2.02223v4.98888c.5667.27778 1.1556.45556 1.7445.45556.7 0 1.0777-.42222 1.0777-1v-2.35556h1.7334v2.34445c0 .91111-.5667 1.65555-2.4889 1.65555-1.1667 0-2.0778-.25555-2.0778-.25555v4.2556h2.9667c1.1111 0 2.0222-.9 2.0222-2.0223v-10.08886z" fill="url(#e)"/><path d="m78.0388 1.44444c-1.1111 0-2.0222.9-2.0222 2.02223v2.64444c.5111-.43333 1.4-.71111 2.8333-.64444.7667.03333 1.5889.24444 1.5889.24444v.85555c-.4111-.21111-.9-.4-1.5333-.44444-1.0889-.07778-1.7445.45556-1.7445 1.38889 0 .94444.6556 1.47778 1.7445 1.38889.6333-.04445 1.1222-.24445 1.5333-.44445v.85556s-.8111.21111-1.5889.24444c-1.4333.06667-2.3222-.21111-2.8333-.64444v4.66669h2.9667c1.1111 0 2.0222-.9 2.0222-2.0222v-10.11116z" fill="url(#f)"/><g clip-path="url(#h)"><path d="m91.5942.500183h13.9998v7.557617l-.693 1.08275.693.96365v4.396h-13.9998v-7.12454l.4331-.49806-.4331-.47641z" fill="#016fd0"/><path d="m94.312 10.2556v-2.19798h2.3273l.2497.3255.2579-.3255h8.4471v2.04638s-.221.1494-.476.1516h-4.678l-.281-.34647v.34647h-.9226v-.59145s-.126.08256-.3985.08256h-.314v.50889h-1.3967l-.2494-.33248-.2531.33248z" fill="#fff"/><path d="m91.5942 6.401.5248-1.22351h.9076l.2979.68536v-.68536h1.1282l.1773.49536.1719-.49536h5.0646v.24903s.2665-.24903.7035-.24903l1.644.00574.292.67639v-.68213h.944l.26.38853v-.38853h.953v2.19799h-.953l-.249-.38979v.38979h-1.387l-.139-.34648h-.373l-.138.34648h-.94c-.377 0-.6175-.24395-.6175-.24395v.24395h-1.4184l-.2816-.34648v.34648h-5.2743l-.1394-.34648h-.3717l-.1385.34648h-.6484z" fill="#fff"/><g fill="#016fd0"><path d="m92.305 5.44846-.7078 1.64578h.4608l.1306-.32956h.7593l.1299.32956h.471l-.7071-1.64578zm.2619.38302.2314.57589h-.4635z"/><path d="m93.5972 7.09397v-1.64579l.6549.00243.3809 1.0611.3717-1.06353h.6497v1.64579h-.4114v-1.21269l-.4362 1.21269h-.3608l-.4374-1.21269v1.21269z"/><path d="m95.936 7.09397v-1.64579h1.3426v.36814h-.9268v.28151h.9052v.34648h-.9052v.29235h.9268v.35731z"/><path d="m97.5171 5.44846v1.64578h.4114v-.58469h.1733l.4933.58469h.5028l-.5414-.60634c.2222-.01875.4514-.20945.4514-.50551 0-.34633-.2718-.53393-.5752-.53393zm.4114.36813h.4704c.1128 0 .1949.08826.1949.17324 0 .10934-.1064.17324-.1889.17324h-.4764z"/><path d="m99.5959 7.09397h-.4201v-1.64579h.4201z"/><path d="m100.592 7.09397h-.091c-.439 0-.7051-.34567-.7051-.81613 0-.48208.2631-.82966.8171-.82966h.455v.38979h-.471c-.225 0-.384.17553-.384.44393 0 .31873.182.45259.444.45259h.108z"/><path d="m101.487 5.44846-.708 1.64578h.461l.131-.32956h.759l.13.32956h.471l-.707-1.64578zm.262.38302.231.57589h-.463z"/><path d="m102.779 7.09397v-1.64579h.523l.668 1.03403v-1.03403h.412v1.64579h-.506l-.685-1.0611v1.0611z"/><path d="m94.5933 9.97409v-1.64578h1.3426v.36814h-.9269v.28151h.9052v.34648h-.9052v.29234h.9269v.35731z"/><path d="m101.172 9.97409v-1.64578h1.343v.36814h-.927v.28151h.901v.34648h-.901v.29234h.927v.35731z"/><path d="m95.9882 9.97409.6537-.81274-.6692-.83304h.5183l.3986.51498.4-.51498h.498l-.6605.82289.655.82289h-.5183l-.387-.50686-.3777.50686z"/><path d="m97.8311 8.32858v1.64579h.4222v-.51972h.4331c.3665 0 .6443-.19442.6443-.57251 0-.31321-.2179-.55356-.5908-.55356zm.4222.3722h.4561c.1184 0 .2031.07256.2031.18948 0 .10984-.0842.18948-.2044.18948h-.4548z"/><path d="m99.5093 8.32831v1.64578h.4114v-.58468h.1733l.493.58468h.503l-.541-.60634c.222-.01875.451-.20944.451-.50551 0-.34633-.272-.53393-.575-.53393zm.4114.36814h.4703c.113 0 .195.08825.195.17323 0 .10934-.106.17325-.189.17325h-.4763z"/><path d="m102.706 9.97409v-.35731h.823c.122 0 .175-.06584.175-.13805 0-.06918-.053-.13913-.175-.13913h-.372c-.324 0-.504-.19706-.504-.49292 0-.26389.165-.51837.646-.51837h.801l-.173.3703h-.693c-.133 0-.173.06951-.173.13589 0 .06822.05.14346.151.14346h.39c.361 0 .517.20452.517.47235 0 .28794-.174.52378-.537.52378z"/><path d="m104.215 9.97409v-.35731h.824c.122 0 .174-.06584.174-.13805 0-.06918-.052-.13913-.174-.13913h-.372c-.324 0-.504-.19706-.504-.49292 0-.26389.165-.51837.646-.51837h.801l-.173.3703h-.693c-.133 0-.174.06951-.174.13589 0 .06822.051.14346.152.14346h.39c.36 0 .517.20452.517.47235 0 .28794-.174.52378-.537.52378z"/></g></g><g clip-path="url(#i)"><path d="m118.502 13.5c3.28.0157 6.274-2.6748 6.274-5.94786 0-3.57928-2.994-6.05333-6.274-6.05214h-2.822c-3.319-.00119-6.051 2.4736-6.051 6.05214 0 3.27376 2.732 5.96356 6.051 5.94786z" fill="#0079be"/><path d="m115.693 1.99596c-3.033.00095-5.49 2.45928-5.491 5.49335.001 3.03359 2.458 5.49169 5.491 5.49259 3.034-.0009 5.492-2.459 5.492-5.49259 0-3.03407-2.458-5.4924-5.492-5.49335zm-3.48 5.49335c.002-1.48262.928-2.7469 2.234-3.24931v6.4979c-1.306-.5022-2.232-1.76575-2.234-3.24859zm4.726 3.24999v-6.49951c1.306.50119 2.234 1.76619 2.236 3.24952-.002 1.48379-.93 2.74779-2.236 3.24999z" fill="#fff"/><g fill="#211e1f"><path d="m126.699 4.08169c0-.56765-.296-.53027-.579-.53643v-.16405c.246.01214.498.01214.744.01214.265 0 .625-.01214 1.092-.01214 1.634 0 2.524 1.09143 2.524 2.20902 0 .625-.366 2.19619-2.6 2.19619-.322 0-.618-.0124-.915-.0124-.284 0-.562.00621-.845.0124v-.16381c.378-.03811.561-.05071.579-.47999zm.619 2.96021c0 .48595.347.54262.656.54262 1.364 0 1.811-1.02881 1.811-1.96929 0-1.17976-.757-2.03166-1.975-2.03166-.259 0-.378.01857-.492.02526z"/><path d="m130.701 7.62265h.119c.177 0 .303 0 .303-.20884v-1.70997c0-.27736-.094-.31596-.328-.44143v-.10119c.296-.08905.65-.2081.675-.22715.045-.02523.082-.0319.114-.0319.031 0 .044.0381.044.08881v2.42283c0 .20884.139.20884.316.20884h.107v.16404c-.215 0-.436-.01259-.663-.01259s-.454.00619-.687.01259zm.675-3.69217c-.165 0-.309-.15141-.309-.31548 0-.15809.151-.30357.309-.30357.163 0 .309.13312.309.30357 0 .17048-.139.31548-.309.31548z"/><path d="m132.65 5.74145c0-.23334-.069-.29619-.365-.41619v-.11974c.271-.08834.529-.17048.832-.30334.019 0 .038.01286.038.0631v.41045c.36-.25855.669-.47357 1.092-.47357.536 0 .725.39141.725.88355v1.62812c0 .20881.139.20881.316.20881h.114v.16404c-.222 0-.442-.01259-.669-.01259s-.455.00619-.682.01259v-.16404h.114c.177 0 .302 0 .302-.20881v-1.63407c0-.36024-.22-.53667-.58-.53667-.201 0-.523.16407-.732.30309v1.8676c0 .20883.139.20883.316.20883h.113v.16405c-.22 0-.442-.01262-.669-.01262s-.454.00622-.681.01262v-.16405h.114c.176 0 .302 0 .302-.20883z"/><path d="m135.882 6.04476c-.014.05693-.014.15143 0 .36619.037.59929.423 1.09146.927 1.09146.347 0 .619-.18929.852-.42262l.088.08857c-.29.38476-.65.71283-1.167.71283-1.004 0-1.206-.97214-1.206-1.37569 0-1.23716.833-1.60335 1.275-1.60335.511 0 1.06.32169 1.066.99071 0 .03833 0 .07571-.006.11405l-.057.03785zm1.117-.20211c.157 0 .176-.08215.176-.15762 0-.32193-.196-.58074-.549-.58074-.385 0-.65.28357-.726.73836z"/><path d="m137.863 7.62265h.17c.176 0 .303 0 .303-.20884v-1.77309c0-.19548-.233-.23357-.328-.28405v-.09429c.46-.19595.713-.36023.77-.36023.038 0 .056.01904.056.08238v.56785h.014c.157-.24595.422-.65023.807-.65023.158 0 .359.10714.359.33452 0 .17048-.119.32238-.296.32238-.196 0-.196-.1519-.417-.1519-.107 0-.46.14523-.46.52404v1.48262c0 .20881.126.20881.303.20881h.353v.16407c-.347-.00645-.611-.01262-.883-.01262-.259 0-.524.00619-.751.01262z"/><path d="m140.292 6.90904c.082.41667.334.77026.795.77026.372 0 .511-.22714.511-.44809 0-.74476-1.375-.505-1.375-1.52095 0-.35358.284-.8081.978-.8081.201 0 .472.05714.718.18357l.045.64312h-.145c-.063-.39717-.284-.62452-.688-.62452-.253 0-.492.14526-.492.41643 0 .73904 1.464.51119 1.464 1.5019 0 .41643-.335.85857-1.086.85857-.252 0-.549-.08833-.769-.21428l-.07-.72593z"/><path d="m147.801 4.52357h-.157c-.12-.73809-.644-1.035-1.351-1.035-.726 0-1.78.4857-1.78 2.00024 0 1.27572.91 2.19046 1.881 2.19046.625 0 1.143-.42905 1.269-1.09189l.144.03762-.144.92141c-.265.16452-.978.33478-1.395.33478-1.476 0-2.41-.95307-2.41-2.37309 0-1.29381 1.154-2.22191 2.391-2.22191.511 0 1.003.16477 1.489.33524z"/><path d="m148.028 7.62264h.12c.177 0 .303 0 .303-.20883v-3.51474c0-.41048-.094-.42312-.334-.4924v-.10096c.252-.08188.517-.19571.65-.27164.068-.03762.119-.06955.138-.06955.039 0 .051.03812.051.08881v4.36048c0 .20883.139.20883.316.20883h.106v.16405c-.213 0-.434-.01262-.662-.01262-.227 0-.454.00621-.688.01262z"/><path d="m152.08 7.43908c0 .11404.069.12023.176.12023.076 0 .17-.00619.253-.00619v.13286c-.272.025-.789.15762-.909.19524l-.032-.01907v-.51069c-.378.30902-.669.52976-1.117.52976-.341 0-.694-.22074-.694-.7505v-1.61619c0-.16405-.025-.32193-.378-.35333v-.12c.227-.00619.731-.04408.813-.04408.07 0 .071.04408.071.18289v1.62783c0 .18978-.001.73238.548.73238.215 0 .498-.16405.763-.38429v-1.69857c0-.12571-.302-.195-.529-.25835v-.11358c.567-.03809.921-.08833.984-.08833.051 0 .051.04405.051.11381z"/><path d="m153.336 5.35669c.252-.21455.593-.45452.94-.45452.732 0 1.173.63809 1.173 1.32545 0 .82669-.605 1.65357-1.508 1.65357-.467 0-.713-.15167-.877-.22074l-.189.14476-.132-.06902c.056-.37238.088-.73857.088-1.12333v-2.71381c0-.41046-.095-.4231-.335-.49238v-.10096c.253-.08188.517-.19571.65-.27166.07-.03762.12-.06953.139-.06953.038 0 .051.03812.051.08881v2.30334zm0 1.71643c0 .24.227.64428.649.64428.676 0 .959-.66309.959-1.22497 0-.68143-.516-1.24929-1.009-1.24929-.234 0-.429.15167-.599.29712z"/><path d="m126.112 11.456h.049c.123 0 .253-.0167.253-.1955v-1.79907c0-.17907-.13-.19595-.253-.19595h-.049v-.1031c.134 0 .34.01358.509.01358.172 0 .377-.01358.539-.01358v.1031h-.049c-.123 0-.253.0169-.253.19595v1.79907c0 .1788.13.1955.253.1955h.049v.1036c-.165 0-.372-.0136-.543-.0136-.168 0-.371.0136-.505.0136z"/><path d="m127.16 11.5741c-.166 0-.372-.0138-.543-.0138-.168 0-.37.0138-.505.0138h-.014v-.0148-.1031-.015h.014.049c.124-.0028.237-.0128.239-.1807v-1.79907c-.002-.16786-.115-.17907-.239-.18143h-.063v-.0145-.11836h.014c.135 0 .341.01357.509.01357.171 0 .376-.01357.539-.01357h.015v.01571.11715h-.015-.048c-.125.00238-.239.01357-.24.18143v1.79907c.001.1679.115.1779.24.1807h.063v.015.1179zm-.015-.0293v-.0734h-.033c-.123 0-.269-.0212-.27-.2109v-1.79907c.001-.18977.147-.21119.27-.21119h.033v-.07286c-.159 0-.357.01333-.524.01333-.163 0-.361-.01238-.493-.01333v.07286h.032c.123 0 .269.02142.269.21119v1.79907c0 .1898-.146.2109-.269.2109h-.032v.0734c.132-.0015.327-.0138.489-.0138.167 0 .366.0128.528.0138z"/><path d="m129.519 10.8826.007-.0067v-1.28757c0-.28191-.196-.32286-.299-.32286h-.076v-.10312c.162 0 .32.01358.481.01358.14 0 .282-.01358.422-.01358v.10312h-.051c-.145 0-.306.02736-.306.43595v1.56288c0 .12.003.24.02.3464h-.13l-1.768-1.97116v1.41496c0 .2989.058.4015.322.4015h.059v.1035c-.148 0-.295-.0135-.443-.0135-.154 0-.312.0135-.467.0135v-.1035h.048c.237 0 .309-.161.309-.4355v-1.44643c0-.19215-.158-.30857-.312-.30857h-.045v-.1031c.131 0 .264.01355.395.01355.103 0 .202-.01355.305-.01355z"/><path d="m129.717 11.6257-.142-.0052-1.742-1.94214v1.37614c.004.2986.05.3834.308.3867h.074v.0148.1181h-.016c-.148 0-.296-.0138-.442-.0138-.154 0-.312.0138-.468.0138h-.015v-.0148-.1181h.015.049c.227-.0012.291-.1469.294-.4207v-1.44619c0-.18286-.15-.29381-.298-.29429h-.06v-.01523-.11715h.015c.132 0 .266.0131.395.0131.102 0 .202-.0131.317-.0081l1.509 1.69886v-1.26288c-.002-.27333-.184-.30619-.284-.3086h-.091v-.01523-.11715h.016c.162 0 .32.0131.48.0131.14 0 .281-.0131.423-.0131h.015v.01477.11759h-.015-.051c-.142.00407-.288.01643-.292.42143v1.56257c0 .12.004.24.021.3441l.003.0176zm-.13-.0302h.113c-.015-.1031-.018-.2174-.018-.3315v-1.56257c0-.41214.173-.45117.321-.45117h.036v-.07288c-.135.00096-.271.01334-.408.01334-.157 0-.31-.01238-.465-.01334v.07288h.06c.106 0 .314.04712.314.33834l-.005 1.2976-.006.0072-.012.0107-1.527-1.72672c-.102 0-.201.01334-.306.01334-.126 0-.255-.01238-.379-.01334l-.001.07286h.031c.161 0 .326.12309.326.32405v1.44621c0 .2745-.076.4502-.323.4511l-.033-.0009v.074c.149-.0014.301-.0138.452-.0138.143 0 .286.0124.427.0138v-.0731h-.043c-.27-.0009-.337-.1185-.337-.4171v-1.45357zm-.069-.7131.011-.01zm-.008-.0067v-.0012l-.002-.0024z"/><path d="m130.568 9.33381c-.258 0-.267.06193-.319.31238h-.103c.014-.09595.031-.1919.041-.2919.014-.09619.021-.19193.021-.29143h.082c.028.10309.114.09952.207.09952h1.771c.093 0 .178-.00333.186-.10664l.081.01381c-.013.09283-.027.18548-.037.27831-.006.09264-.006.18548-.006.27786l-.104.03833c-.007-.1269-.024-.33024-.254-.33024h-.563v1.82719c0 .2647.12.295.285.295h.065v.1035c-.134 0-.374-.0135-.559-.0135-.206 0-.447.0135-.581.0135v-.1035h.065c.19 0 .285-.017.285-.2879v-1.83429z"/><path d="m131.922 11.5741c-.135 0-.376-.0138-.56-.0138-.206 0-.446.0138-.581.0138h-.014v-.0145-.1184h.014.066c.189-.0045.265-.0069.269-.2731v-1.81926h-.548v-.01503-.01523h.578v1.84952c0 .2755-.111.3033-.299.3036h-.051v.0724c.136-.0007.367-.0131.566-.0131.179 0 .408.0124.544.0131v-.0724h-.05c-.166-.0003-.3-.041-.3-.3107v-1.84242h.578c.231.00095.261.1969.269.32428l.074-.02738c0-.08952 0-.17928.006-.26976.01-.08833.023-.17595.036-.26357l-.053-.00881c-.016.1-.112.105-.199.10405h-1.77-.018c-.081 0-.169-.00381-.2-.09974h-.057c0 .095-.007.18714-.02.27855-.01.0943-.025.18502-.038.27573h.073c.045-.23931.075-.31692.331-.31333v.01524.015c-.254.00452-.248.04738-.304.30119l-.003.01167h-.012-.12l.002-.01786c.014-.09619.031-.19193.041-.29193.015-.09524.021-.19048.021-.28905v-.015h.015.094l.002.01072c.024.08666.088.08714.175.08857h.018 1.77c.096-.00143.166-.00286.172-.09264l.001-.0162.016.00334.096.01526-.002.015c-.013.0919-.027.18476-.037.2769-.007.09143-.007.18429-.007.27691v.01071l-.009.00381-.122.04426-.001-.02c-.009-.12904-.023-.31571-.24-.31571h-.548v1.81211c.003.2591.106.2769.27.2803h.08v.0147.1181z"/><path d="m132.646 11.456h.048c.123 0 .254-.0167.254-.1955v-1.79907c0-.17907-.131-.19595-.254-.19595h-.048v-.1031c.209 0 .566.01358.854.01358.289 0 .646-.01358.879-.01358-.006.14738-.003.37453.007.52527l-.103.02759c-.017-.22307-.058-.4014-.418-.4014h-.477v.89926h.408c.206 0 .251-.1164.271-.30233h.103c-.007.13453-.01.26833-.01.40213 0 .1307.003.261.01.3914l-.103.0205c-.02-.2059-.031-.3398-.268-.3398h-.411v.7998c0 .2236.198.2236.418.2236.412 0 .594-.0279.697-.4188l.096.0235c-.045.1824-.086.3641-.116.5465-.22 0-.615-.0136-.924-.0136s-.718.0136-.913.0136z"/><path d="m134.482 11.5741c-.22 0-.615-.0141-.923-.0141-.31 0-.718.0141-.914.0141h-.014v-.0146-.1035-.0148h.014.048c.125-.0019.238-.0128.24-.1807v-1.79907c-.002-.16762-.115-.17881-.24-.18143h-.062v-.0145-.11786h.014c.21 0 .567.0131.855.0131.289 0 .645-.0131.879-.0131h.015l-.001.01524c-.002.05167-.003.1126-.003.17738 0 .11879.003.24855.01.34643l.001.01238-.012.00336-.12.03143-.001-.01762c-.02-.22286-.05-.38452-.404-.38786h-.462l-.001.86932h.395c.197-.0019.233-.1031.256-.28813l.001-.01357h.014.118v.01545c-.007.13385-.011.26765-.011.40145 0 .13.004.2602.011.3909v.0122l-.012.0028-.12.0238-.001-.0161c-.023-.2096-.025-.3243-.253-.3269l-.397-.0003v.7855c0 .2086.18.2074.404.2086.413-.0024.579-.0224.683-.4081l.003-.0138.014.0026.11.0283-.003.0143c-.044.1819-.085.3633-.116.5452l-.003.0122zm-.012-.03c.029-.1731.069-.3469.111-.5198l-.068-.0172c-.103.3844-.302.4186-.707.416-.216 0-.433 0-.434-.2383v-.8148h.427c.239-.0026.264.1421.281.3376l.074-.0154c-.006-.1265-.01-.2534-.01-.3793 0-.1293.004-.2579.01-.38718h-.074c-.019.17878-.075.30448-.284.30218h-.424v-.92957h.492c.358-.0024.417.18191.432.39786l.074-.02c-.006-.0969-.01-.22119-.01-.33595 0-.05881.002-.11429.003-.16286-.233.00096-.58.01334-.863.01334-.282 0-.63-.01238-.84-.01334v.07286h.033c.123 0 .269.02143.27.21119v1.79907c-.001.1893-.147.2102-.27.2112h-.033v.0724c.2-.0003.597-.0131.899-.0131.303 0 .689.0128.911.0131z"/><path d="m135.062 9.52619c0-.25048-.137-.26072-.244-.26072h-.062v-.10333c.11 0 .323.01381.532.01381.206 0 .371-.01381.553-.01381.432 0 .818.1169.818.605 0 .30836-.206.49736-.478.60426l.587.8786c.096.1452.165.1859.333.2059v.1036c-.113 0-.223-.0136-.336-.0136-.107 0-.217.0136-.323.0136-.264-.3469-.491-.7178-.714-1.1131h-.226v.7353c0 .2647.123.2742.281.2742h.062v.1036c-.197 0-.395-.0135-.591-.0135-.165 0-.326.0135-.498.0135v-.1036h.062c.128 0 .244-.0576.244-.185zm.44.79671h.167c.344 0 .529-.1305.529-.53576 0-.30524-.195-.50119-.501-.50119-.104 0-.147.01071-.195.01381z"/><path d="m137.102 11.5741c-.115 0-.225-.0138-.337-.0138-.105 0-.215.0138-.334.0081-.264-.3455-.489-.7143-.711-1.1067h-.203v.7195c.003.2584.107.2562.266.26h.077v.0148.1181h-.015c-.197 0-.396-.0138-.591-.0138-.164 0-.325.0138-.497.0138h-.015v-.0148-.1181h.015.061c.124-.0007.228-.0545.229-.1702v-1.74474c-.003-.24381-.122-.2424-.229-.24595h-.076v-.01476-.11833h.015c.111 0 .323.01354.532.01354.205 0 .37-.01354.553-.01354.432.00095.831.12047.832.61904 0 .31024-.205.50374-.47.61194l.577.8638c.096.1423.156.1778.323.1992l.012.0019v.0129.1181zm-1.6-1.1424h.235l.004.0076c.223.3945.449.765.702 1.1055.104 0 .215-.0141.322-.0141.109 0 .215.0119.322.0136v-.0752c-.161-.02-.237-.0681-.33-.2108l-.598-.894.017-.0069c.269-.1057.467-.2893.468-.59123-.001-.47643-.371-.58688-.802-.58879-.181 0-.346.01357-.553.01357-.202 0-.405-.01261-.518-.01357v.07286h.047c.107.00026.259.01786.259.27598v1.74478c0 .1378-.129.2007-.259.2009h-.047v.0724c.166-.0005.322-.0136.483-.0136.192 0 .386.0131.576.0136v-.0724h-.047c-.157-.0003-.296-.0198-.296-.2907v-.7495zm0-.0943h-.015v-1.05145l.013-.00119c.047-.00354.093-.01333.197-.01333.313 0 .516.20333.517.51641-.001.40996-.198.54926-.544.54956zm.168-.0295c.34-.0029.511-.121.514-.52004-.002-.3-.188-.48619-.487-.48738-.093 0-.136.00857-.18.0124v.99502z"/><path d="m139.433 10.8826.006-.0067v-1.28757c0-.28191-.195-.32286-.298-.32286h-.075v-.10312c.161 0 .318.01358.48.01358.141 0 .281-.01358.423-.01358v.10312h-.052c-.144 0-.306.02736-.306.43595v1.56288c0 .12.004.24.021.3464h-.13l-1.769-1.97116v1.41496c0 .2989.059.4015.323.4015h.058v.1035c-.147 0-.295-.0135-.442-.0135-.155 0-.313.0135-.467.0135v-.1035h.047c.237 0 .309-.161.309-.4355v-1.44643c0-.19215-.157-.30857-.312-.30857h-.044v-.1031c.13 0 .264.01355.394.01355.103 0 .203-.01355.306-.01355z"/><path d="m139.632 11.6255-.142-.0048-1.742-1.94234v1.37594c.004.2988.049.3836.308.3869h.073v.0148.1181h-.015c-.149 0-.296-.0141-.443-.0141-.153 0-.312.0141-.467.0141h-.015v-.0145-.1184h.015.048c.227-.0009.292-.1469.294-.4216v-1.44552c0-.18289-.15-.29381-.297-.29408h-.06v-.0145-.11833h.015c.131 0 .266.01355.395.01355.101 0 .201-.01355.316-.00881l1.509 1.69959v-1.2634c-.001-.27286-.184-.30667-.283-.30807h-.091v-.01453-.11833h.015c.162 0 .32.01355.481.01355.14 0 .281-.01355.422-.01355h.015v.01548.11738h-.015-.051c-.142.00381-.288.0164-.291.42143v1.56264c0 .12.003.239.02.3447l.002.0167zm-.131-.03h.113c-.015-.1031-.018-.2174-.018-.3314v-1.56267c0-.41216.174-.45024.321-.45143h.036v-.07261c-.135.00095-.271.01333-.407.01333-.158 0-.311-.01238-.466-.01333v.07261h.061c.105.00119.313.04739.313.3381l-.004 1.2981-.007.0071-.01.011-1.529-1.72689c-.101 0-.201.01333-.305.01333-.127 0-.255-.01238-.38-.01333v.07262h.03c.161.00119.327.12286.327.32405v1.44542c0 .2757-.078.4512-.324.4522l-.033-.0003v.0727c.148-.0008.301-.0131.452-.0131.144 0 .287.0123.428.0131v-.0724h-.043c-.27-.0003-.338-.1186-.338-.4174v-1.45287zm-.068-.7131.01-.0098zm-.009-.0064v-.0013l-.002-.0026z"/><path d="m140.521 11.0683c-.035.1165-.076.2065-.076.2676 0 .1034.144.12.257.12h.039v.1036c-.138-.0074-.278-.0136-.417-.0136-.123 0-.246.0063-.37.0136v-.1036h.021c.134 0 .247-.0788.298-.2233l.55-1.57572c.044-.12715.107-.29881.127-.42617.11-.03738.247-.10595.312-.14738.011-.00355.017-.00714.028-.00714.01 0 .016 0 .024.01071.01.02714.02.05833.031.08572l.632 1.79618c.041.12.082.2469.126.3502.042.0962.114.1369.228.1369h.02v.1036c-.155-.0074-.309-.0135-.474-.0135-.168 0-.34.0062-.515.0135v-.1036h.038c.078 0 .213-.0133.213-.0992 0-.0446-.031-.1372-.07-.2474l-.133-.3984h-.779zm.501-1.5214h-.007l-.319.9719h.641z"/><path d="m142.35 11.5741c-.155-.0069-.309-.0141-.473-.0141-.168 0-.339.0072-.515.0141l-.015.0009v-.0155-.1188h.015.037c.08 0 .198-.0181.198-.084.001-.0391-.03-.1333-.068-.2426l-.131-.3883h-.757l-.107.3468c-.034.1172-.076.2079-.075.2638.001.0839.129.1043.243.1043h.053v.0155.1188l-.016-.0009c-.137-.0069-.277-.0141-.414-.0141-.123 0-.247.0072-.37.0141l-.016.0009v-.0155-.1188h.015.02c.128-.0004.235-.073.284-.2128l.55-1.57595c.045-.12738.107-.29857.137-.43548.108-.03643.245-.10547.312-.14738.009-.00309.019-.00786.033-.00786.008-.00023.027.00191.038.02003.009.02831.02.05881.03.08667l.633 1.79597c.04.1205.081.2474.126.3488.04.0917.103.1276.213.1281h.035v.0155.1188zm-.973-.0307c.17-.006.336-.0127.5-.0127.16 0 .309.0067.458.0127v-.0717h-.005c-.117.0007-.198-.0455-.241-.1467-.044-.1043-.086-.2316-.126-.3519l-.633-1.7957c-.01-.02738-.02-.05857-.029-.08286-.003-.00333-.002-.00333-.005-.00333h-.006c-.008 0-.012.00214-.02.00452-.067.0431-.204.11048-.306.13739-.021.13-.083.30142-.128.42857l-.549 1.57621c-.053.149-.173.234-.313.2338h-.005v.0717c.118-.006.237-.0127.356-.0127.132 0 .268.0067.399.0127v-.0717h-.022c-.112-.0015-.268-.0141-.272-.1353 0-.0685.042-.1564.076-.2723l.015.0045-.015-.005.113-.3672h.8l.138.4081c.039.1103.07.2017.07.2522-.005.1055-.15.1128-.228.115h-.022zm-.702-1.0098.328-1.0017h.012.007v.015l-.004.00072.004-.00072v-.015h.01l.326 1.0017zm.041-.0298h.601l-.299-.92023zm.291-.95259.008-.00262z"/><path d="m142.502 9.33381c-.258 0-.268.06193-.32.31238h-.103c.014-.09595.031-.1919.042-.2919.014-.09619.02-.19193.02-.29143h.083c.027.10309.113.09952.205.09952h1.773c.092 0 .177-.00333.185-.10664l.082.01381c-.013.09283-.027.18548-.037.27831-.008.09264-.008.18548-.008.27786l-.103.03833c-.006-.1269-.023-.33024-.254-.33024h-.563v1.82719c0 .2647.121.295.285.295h.065v.1035c-.133 0-.373-.0135-.559-.0135-.206 0-.447.0135-.58.0135v-.1035h.065c.189 0 .285-.017.285-.2879v-1.83429z"/><path d="m143.854 11.5741c-.135 0-.375-.0138-.559-.0138-.206 0-.446.0138-.581.0138h-.015v-.0146-.1183h.015.065c.19-.0045.266-.0069.27-.2731v-1.81927h-.547v-.01502-.01524h.577v1.84953c0 .2755-.111.3026-.3.3033h-.05v.0734c.136-.0015.366-.0139.566-.0139.179 0 .408.0125.544.0139v-.0734h-.051c-.165-.0007-.298-.0405-.299-.3105v-1.84233h.578c.231.00095.261.1969.267.32428l.075-.02738c0-.08952.001-.17928.007-.26928.01-.08834.023-.17643.035-.26407l-.052-.00881c-.015.1-.112.1055-.198.10404h-1.772-.017c-.081.00096-.169-.0038-.2-.10023h-.056c-.001.09523-.008.18764-.021.27907-.009.09452-.026.18547-.039.27571h.074c.045-.23931.075-.31693.332-.31333v.01524.015c-.255.00431-.249.04738-.305.30119l-.003.01166h-.012-.12l.002-.01716c.014-.09688.031-.19262.041-.29191.014-.09595.021-.19119.021-.28976v-.015h.015.093l.003.01072c.024.08666.087.08714.175.08857l.017.00047h1.772c.095-.00188.164-.00333.17-.09283l.001-.01643.016.00336.098.01524-.003.015c-.014.0919-.027.18476-.037.2769-.007.09143-.007.18452-.007.27691v.01071l-.01.00381-.122.04428v-.02002c-.009-.12902-.023-.31571-.24-.31571h-.548v1.81209c.004.2591.106.277.269.2803h.081v.0147.1181z"/><path d="m144.595 11.456h.048c.124 0 .254-.0167.254-.1955v-1.79907c0-.17907-.13-.19595-.254-.19595h-.048v-.1031c.134 0 .34.01358.508.01358.172 0 .378-.01358.54-.01358v.1031h-.049c-.123 0-.254.0169-.254.19595v1.79907c0 .1788.131.1955.254.1955h.049v.1036c-.165 0-.372-.0136-.543-.0136-.168 0-.371.0136-.505.0136z"/><path d="m145.643 11.5741c-.166 0-.372-.0141-.543-.0141-.168 0-.37.0141-.504.0141h-.015v-.0146-.1035-.0148h.015.048c.124-.0019.238-.0126.238-.1807v-1.79907c0-.16762-.114-.17907-.238-.18143h-.063v-.0145-.11786h.015c.134 0 .34.0131.507.0131.171 0 .377-.0131.54-.0131h.014v.01474.11762h-.014-.048c-.126.00238-.238.01381-.24.18143v1.79907c.002.1681.114.1788.24.1807h.062v.0148.1181zm-.016-.03v-.0727h-.032c-.123 0-.269-.0216-.269-.2109v-1.79907c0-.18976.146-.21119.269-.21119h.032v-.07286c-.158.00096-.356.01334-.524.01334-.162 0-.359-.01238-.492-.01334v.07286h.033c.122 0 .268.02143.268.21119v1.79907c0 .1893-.146.2109-.268.2109h-.033v.0727c.132-.0015.326-.0131.489-.0131.167 0 .366.0124.527.0131z"/><path d="m147.012 9.11095c.732 0 1.315.45381 1.315 1.18495 0 .7901-.566 1.315-1.297 1.315-.729 0-1.284-.4945-1.284-1.2328 0-.71406.552-1.26715 1.266-1.26715zm.052 2.34885c.666 0 .782-.5877.782-1.0884 0-.50188-.27-1.1095-.841-1.1095-.601 0-.779.53571-.779.9955 0 .6147.282 1.2024.838 1.2024z"/><path d="m145.73 10.3781c.001-.72239.56-1.2812 1.282-1.28215v.015.0145c-.706 0-1.252.54597-1.253 1.25265.002.73.55 1.2171 1.271 1.2173.723-.0002 1.282-.5178 1.283-1.3002-.001-.72187-.575-1.1688-1.301-1.16975v-.0145-.015c.737.00047 1.328.45881 1.33 1.19925-.001.7983-.575 1.3288-1.312 1.3302-.735-.0014-1.299-.5009-1.3-1.2473zm.481-.1207c.001-.46191.181-1.01098.794-1.01098.583.00146.855.6205.856 1.12498-.001.5007-.119 1.1027-.797 1.1027v-.0143-.0148c.653-.0009.766-.5729.767-1.0736 0-.49781-.268-1.09376-.826-1.0945-.589.00071-.763.52309-.764.9805 0 .6116.279 1.1862.823 1.1876v.0148.0143c-.57-.0008-.852-.5984-.853-1.2167z"/><path d="m150.641 10.8826.007-.0067v-1.28757c0-.28191-.196-.32286-.299-.32286h-.074v-.10312c.16 0 .318.01358.479.01358.141 0 .282-.01358.423-.01358v.10312h-.052c-.144 0-.305.02736-.305.43595v1.56288c0 .12.003.24.02.3464h-.13l-1.768-1.97116v1.41496c0 .2989.058.4015.322.4015h.059v.1035c-.148 0-.295-.0135-.443-.0135-.155 0-.313.0135-.467.0135v-.1035h.048c.237 0 .309-.161.309-.4355v-1.44643c0-.19215-.158-.30857-.313-.30857h-.044v-.1031c.13 0 .264.01355.394.01355.103 0 .203-.01355.306-.01355z"/><path d="m150.841 11.6255-.143-.005-1.742-1.94217v1.37617c.004.2986.05.3831.307.3862h.075v.0155.1179h-.015c-.149 0-.296-.0138-.443-.0138-.154 0-.312.0138-.468.0138h-.014v-.0148-.1186h.014.049c.226-.0007.291-.1464.294-.4202v-1.44643c0-.18285-.15-.29381-.298-.29405h-.059v-.01452-.11786h.014c.132 0 .266.01312.395.01312.102 0 .201-.01312.317-.00809l1.509 1.69883v-1.26288c-.001-.27331-.184-.30619-.284-.30857h-.091v-.0145-.11786h.016c.162 0 .32.0131.48.0131.141 0 .281-.0131.423-.0131h.015v.01474.11762h-.015-.052c-.141.00405-.287.0169-.29.42143v1.56262c0 .12.002.2397.019.3447l.003.0167zm-.131-.03h.113c-.015-.1031-.018-.2174-.018-.3315v-1.56257c0-.41286.173-.45024.32-.45143h.037v-.07262c-.135.00096-.271.01334-.408.01334-.156 0-.31-.01238-.465-.01334v.07262h.06c.106.00119.313.04812.313.33857l-.003 1.29763-.007.0072-.011.0109-1.528-1.72689c-.101 0-.201.01333-.306.01333-.126 0-.255-.01238-.38-.01333v.07262h.03c.162.00119.327.12285.327.32404v1.44643c0 .2745-.076.4502-.323.4512l-.034-.0003v.0727c.149-.0007.302-.0131.453-.0131.143 0 .285.0124.428.0131v-.0724h-.044c-.27-.0003-.337-.1186-.337-.4172v-1.45355zm-.069-.7131.011-.0098zm-.008-.0064v-.0013l-.003-.0026z"/><path d="m151.729 11.0683c-.034.1165-.075.2065-.075.2676 0 .1034.144.12.257.12h.038v.1036c-.137-.0074-.278-.0136-.416-.0136-.124 0-.247.0063-.37.0136v-.1036h.02c.134 0 .248-.0788.299-.2233l.55-1.57572c.044-.12715.106-.29881.126-.42617.11-.03738.247-.10595.313-.14738.01-.00355.017-.00714.027-.00714.011 0 .017 0 .024.01071.01.02714.021.05833.031.08572l.632 1.79618c.041.12.082.2469.127.3502.041.0962.114.1369.227.1369h.021v.1036c-.155-.0074-.31-.0135-.475-.0135-.168 0-.339.0062-.515.0135v-.1036h.038c.079 0 .213-.0133.213-.0992 0-.0446-.031-.1372-.069-.2474l-.133-.3984h-.78zm.502-1.5214h-.007l-.32.9719h.643z"/><path d="m153.558 11.5741c-.155-.0062-.309-.0138-.473-.0138-.167 0-.339.0076-.514.0138l-.016.0009v-.0157-.1181h.015.037c.08 0 .199-.0186.199-.0845.001-.0391-.03-.1326-.068-.2426l-.131-.3884h-.758l-.106.3469c-.034.1176-.075.2079-.075.2634 0 .0843.129.1052.243.1052h.052v.0148.119l-.015-.0009c-.138-.0062-.278-.0138-.415-.0138-.123 0-.246.0076-.37.0138l-.015.0009v-.0157-.1181h.015.019c.129-.0005.236-.074.286-.2133l.549-1.57597c.044-.12738.106-.29857.136-.435.108-.03738.246-.10595.313-.14788.009-.0031.018-.00714.032-.00714.009-.00095.027.00119.038.02.01.02693.02.05809.031.08595l.632 1.79594c.041.1205.082.2474.127.3496.04.0909.102.1269.212.1278h.036v.0148.119zm-.973-.0303c.17-.0064.337-.0131.5-.0131.16 0 .31.0067.459.0126v-.0717h-.006c-.116.0003-.197-.0454-.24-.1466-.045-.1043-.086-.2317-.127-.3514l-.632-1.79622c-.01-.02738-.021-.05857-.029-.0819-.003-.00429-.003-.00429-.005-.00429h-.007c-.007 0-.011.00238-.019.00476-.067.04215-.205.1107-.306.13715-.022.13-.084.30119-.128.42857l-.55 1.57623c-.052.149-.172.234-.313.2337h-.005v.0717c.119-.0059.237-.0126.356-.0126.133 0 .269.0067.401.0126v-.0717h-.023c-.112-.0014-.269-.0135-.273-.1356.001-.0681.043-.1555.077-.2719l.014.0044-.014-.0049.113-.3672h.8l.138.4081c.038.1105.069.2017.069.2522-.005.1054-.149.1128-.228.1149h-.022zm-.702-1.0104.33-1.00149h.01.008v.015l-.004.00071.004-.00071v-.015h.01l.325 1.00149zm.042-.0296h.6l-.298-.91975zm.291-.95258.007-.00262z"/><path d="m154.425 11.2229c0 .1374.095.1783.205.1923.141.0105.295.0105.454-.0069.144-.0173.267-.0997.329-.1854.055-.0758.085-.1719.106-.2474h.1c-.038.1957-.086.3886-.127.584-.302 0-.605-.0135-.906-.0135-.303 0-.605.0135-.907.0135v-.1036h.047c.125 0 .259-.0166.259-.2297v-1.76477c0-.17907-.134-.19595-.259-.19595h-.047v-.1031c.182 0 .36.01358.542.01358.176 0 .347-.01358.522-.01358v.1031h-.086c-.13 0-.232.00381-.232.18524z"/><path d="m155.492 11.5741c-.303 0-.605-.0138-.906-.0138-.303 0-.605.0138-.907.0138h-.015v-.0148-.1181h.015.047c.125-.0029.243-.0114.244-.215v-1.76545c-.001-.1669-.118-.17833-.244-.18073h-.062v-.0145-.11786h.015c.182 0 .361.01309.542.01309.175 0 .346-.01309.523-.01309h.014v.01476.1176h-.014-.087c-.133.00381-.216-.00238-.218.17073v1.77215c.001.1279.085.1624.192.1774.06.0043.124.0069.19.0069.084 0 .172-.0041.26-.0136.14-.0164.261-.0971.32-.179.053-.0734.083-.1677.104-.2427l.003-.0114h.011.118l-.003.0181c-.039.1965-.086.3884-.128.5838l-.003.0117zm-.013-.03c.04-.1862.085-.3684.122-.5541h-.071c-.021.0748-.051.1669-.105.2419-.065.089-.192.1729-.34.1912-.09.0093-.18.014-.264.014-.066 0-.131-.0031-.193-.0074-.112-.0123-.22-.06-.219-.2069v-1.77209c0-.19072.12-.20048.248-.20048h.071v-.07286c-.169.00096-.336.01355-.507.01355-.177 0-.351-.01259-.527-.01355v.07286h.032c.123 0 .273.02143.273.21048v1.76549c0 .2221-.149.2452-.273.2452h-.032v.0726c.296-.0002.593-.0131.892-.0131.298 0 .596.0129.893.0132z"/><path d="m155.577 9.06476c.207 0 .361.15905.361.36286 0 .20285-.154.36047-.361.36047s-.362-.15762-.362-.36047c0-.20379.155-.36286.362-.36286zm0 .65595c.162 0 .286-.13809.286-.29309 0-.15596-.122-.29524-.286-.29524-.163 0-.287.13931-.287.29524 0 .155.124.29309.287.29309zm-.18-.10262v-.01786c.044-.00619.053-.00476.053-.03238v-.26762c0-.03759-.004-.05045-.051-.04857v-.01833h.185c.063 0 .122.03024.122.09595 0 .05381-.036.09357-.086.10905l.06.08283c.027.03762.059.07288.079.08524v.01167h-.07c-.034 0-.063-.07119-.13-.16667h-.04v.12024c0 .02381.008.02238.053.02857v.01786h-.175zm.122-.19047h.043c.046 0 .068-.03548.068-.09239 0-.05761-.034-.07788-.071-.07788h-.04z"/></g><path d="m118.502 13.5c3.28.0157 6.274-2.6748 6.274-5.94786 0-3.57928-2.994-6.05333-6.274-6.05214h-2.822c-3.319-.00119-6.051 2.4736-6.051 6.05214 0 3.27376 2.732 5.96356 6.051 5.94786z" fill="#0079be"/><path d="m115.693 1.99596c-3.033.00095-5.49 2.45928-5.491 5.49335.001 3.03359 2.458 5.49169 5.491 5.49259 3.034-.0009 5.492-2.459 5.492-5.49259 0-3.03407-2.458-5.4924-5.492-5.49335zm-3.48 5.49335c.002-1.48262.928-2.7469 2.234-3.24931v6.4979c-1.306-.5022-2.232-1.76575-2.234-3.24859zm4.726 3.24999v-6.49951c1.306.50119 2.234 1.76619 2.236 3.24952-.002 1.48379-.93 2.74779-2.236 3.24999z" fill="#fff"/><path d="m126.699 4.08169c0-.56765-.296-.53027-.579-.53643v-.16405c.246.01214.498.01214.744.01214.265 0 .625-.01214 1.092-.01214 1.634 0 2.524 1.09143 2.524 2.20902 0 .625-.366 2.19619-2.6 2.19619-.322 0-.618-.0124-.915-.0124-.284 0-.562.00621-.845.0124v-.16381c.378-.03811.561-.05071.579-.47999zm.619 2.96021c0 .48595.347.54262.656.54262 1.364 0 1.811-1.02881 1.811-1.96929 0-1.17976-.757-2.03166-1.975-2.03166-.259 0-.378.01857-.492.02526z" fill="#211e1f"/><path d="m130.701 7.62265h.119c.177 0 .303 0 .303-.20884v-1.70997c0-.27736-.094-.31596-.328-.44143v-.10119c.296-.08905.65-.2081.675-.22715.045-.02523.082-.0319.114-.0319.031 0 .044.0381.044.08881v2.42283c0 .20884.139.20884.316.20884h.107v.16404c-.215 0-.436-.01259-.663-.01259s-.454.00619-.687.01259zm.675-3.69217c-.165 0-.309-.15141-.309-.31548 0-.15809.151-.30357.309-.30357.163 0 .309.13312.309.30357 0 .17048-.139.31548-.309.31548z" fill="#211e1f"/><path d="m132.65 5.74145c0-.23334-.069-.29619-.365-.41619v-.11974c.271-.08834.529-.17048.832-.30334.019 0 .038.01286.038.0631v.41045c.36-.25855.669-.47357 1.092-.47357.536 0 .725.39141.725.88355v1.62812c0 .20881.139.20881.316.20881h.114v.16404c-.222 0-.442-.01259-.669-.01259s-.455.00619-.682.01259v-.16404h.114c.177 0 .302 0 .302-.20881v-1.63407c0-.36024-.22-.53667-.58-.53667-.201 0-.523.16407-.732.30309v1.8676c0 .20883.139.20883.316.20883h.113v.16405c-.22 0-.442-.01262-.669-.01262s-.454.00622-.681.01262v-.16405h.114c.176 0 .302 0 .302-.20883z" fill="#211e1f"/><path d="m135.882 6.04476c-.014.05693-.014.15143 0 .36619.037.59929.423 1.09146.927 1.09146.347 0 .619-.18929.852-.42262l.088.08857c-.29.38476-.65.71283-1.167.71283-1.004 0-1.206-.97214-1.206-1.37569 0-1.23716.833-1.60335 1.275-1.60335.511 0 1.06.32169 1.066.99071 0 .03833 0 .07571-.006.11405l-.057.03785zm1.117-.20211c.157 0 .176-.08215.176-.15762 0-.32193-.196-.58074-.549-.58074-.385 0-.65.28357-.726.73836z" fill="#211e1f"/><path d="m137.863 7.62265h.17c.176 0 .303 0 .303-.20884v-1.77309c0-.19548-.233-.23357-.328-.28405v-.09429c.46-.19595.713-.36023.77-.36023.038 0 .056.01904.056.08238v.56785h.014c.157-.24595.422-.65023.807-.65023.158 0 .359.10714.359.33452 0 .17048-.119.32238-.296.32238-.196 0-.196-.1519-.417-.1519-.107 0-.46.14523-.46.52404v1.48262c0 .20881.126.20881.303.20881h.353v.16407c-.347-.00645-.611-.01262-.883-.01262-.259 0-.524.00619-.751.01262z" fill="#211e1f"/><path d="m140.292 6.90904c.082.41667.334.77026.795.77026.372 0 .511-.22714.511-.44809 0-.74476-1.375-.505-1.375-1.52095 0-.35358.284-.8081.978-.8081.201 0 .472.05714.718.18357l.045.64312h-.145c-.063-.39717-.284-.62452-.688-.62452-.253 0-.492.14526-.492.41643 0 .73904 1.464.51119 1.464 1.5019 0 .41643-.335.85857-1.086.85857-.252 0-.549-.08833-.769-.21428l-.07-.72593z" fill="#211e1f"/><path d="m147.801 4.52357h-.157c-.12-.73809-.644-1.035-1.351-1.035-.726 0-1.78.4857-1.78 2.00024 0 1.27572.91 2.19046 1.881 2.19046.625 0 1.143-.42905 1.269-1.09189l.144.03762-.144.92141c-.265.16452-.978.33478-1.395.33478-1.476 0-2.41-.95307-2.41-2.37309 0-1.29381 1.154-2.22191 2.391-2.22191.511 0 1.003.16477 1.489.33524z" fill="#211e1f"/><path d="m148.028 7.62264h.12c.177 0 .303 0 .303-.20883v-3.51474c0-.41048-.094-.42312-.334-.4924v-.10096c.252-.08188.517-.19571.65-.27164.068-.03762.119-.06955.138-.06955.039 0 .051.03812.051.08881v4.36048c0 .20883.139.20883.316.20883h.106v.16405c-.213 0-.434-.01262-.662-.01262-.227 0-.454.00621-.688.01262z" fill="#211e1f"/><path d="m152.08 7.43908c0 .11404.069.12023.176.12023.076 0 .17-.00619.253-.00619v.13286c-.272.025-.789.15762-.909.19524l-.032-.01907v-.51069c-.378.30902-.669.52976-1.117.52976-.341 0-.694-.22074-.694-.7505v-1.61619c0-.16405-.025-.32193-.378-.35333v-.12c.227-.00619.731-.04408.813-.04408.07 0 .071.04408.071.18289v1.62783c0 .18978-.001.73238.548.73238.215 0 .498-.16405.763-.38429v-1.69857c0-.12571-.302-.195-.529-.25835v-.11358c.567-.03809.921-.08833.984-.08833.051 0 .051.04405.051.11381z" fill="#211e1f"/><path d="m153.336 5.35669c.252-.21455.593-.45452.94-.45452.732 0 1.173.63809 1.173 1.32545 0 .82669-.605 1.65357-1.508 1.65357-.467 0-.713-.15167-.877-.22074l-.189.14476-.132-.06902c.056-.37238.088-.73857.088-1.12333v-2.71381c0-.41046-.095-.4231-.335-.49238v-.10096c.253-.08188.517-.19571.65-.27166.07-.03762.12-.06953.139-.06953.038 0 .051.03812.051.08881v2.30334zm0 1.71643c0 .24.227.64428.649.64428.676 0 .959-.66309.959-1.22497 0-.68143-.516-1.24929-1.009-1.24929-.234 0-.429.15167-.599.29712z" fill="#211e1f"/><path d="m126.112 11.456h.049c.123 0 .253-.0167.253-.1955v-1.79907c0-.17907-.13-.19595-.253-.19595h-.049v-.1031c.134 0 .34.01358.509.01358.172 0 .377-.01358.539-.01358v.1031h-.049c-.123 0-.253.0169-.253.19595v1.79907c0 .1788.13.1955.253.1955h.049v.1036c-.165 0-.372-.0136-.543-.0136-.168 0-.371.0136-.505.0136z" fill="#211e1f"/><path d="m127.16 11.5741c-.166 0-.372-.0138-.543-.0138-.168 0-.37.0138-.505.0138h-.014v-.0148-.1031-.015h.014.049c.124-.0028.237-.0128.239-.1807v-1.79907c-.002-.16786-.115-.17907-.239-.18143h-.063v-.0145-.11836h.014c.135 0 .341.01357.509.01357.171 0 .376-.01357.539-.01357h.015v.01571.11715h-.015-.048c-.125.00238-.239.01357-.24.18143v1.79907c.001.1679.115.1779.24.1807h.063v.015.1179zm-.015-.0293v-.0734h-.033c-.123 0-.269-.0212-.27-.2109v-1.79907c.001-.18977.147-.21119.27-.21119h.033v-.07286c-.159 0-.357.01333-.524.01333-.163 0-.361-.01238-.493-.01333v.07286h.032c.123 0 .269.02142.269.21119v1.79907c0 .1898-.146.2109-.269.2109h-.032v.0734c.132-.0015.327-.0138.489-.0138.167 0 .366.0128.528.0138z" fill="#211e1f"/><path d="m129.519 10.8826.007-.0067v-1.28757c0-.28191-.196-.32286-.299-.32286h-.076v-.10312c.162 0 .32.01358.481.01358.14 0 .282-.01358.422-.01358v.10312h-.051c-.145 0-.306.02736-.306.43595v1.56288c0 .12.003.24.02.3464h-.13l-1.768-1.97116v1.41496c0 .2989.058.4015.322.4015h.059v.1035c-.148 0-.295-.0135-.443-.0135-.154 0-.312.0135-.467.0135v-.1035h.048c.237 0 .309-.161.309-.4355v-1.44643c0-.19215-.158-.30857-.312-.30857h-.045v-.1031c.131 0 .264.01355.395.01355.103 0 .202-.01355.305-.01355z" fill="#211e1f"/><path d="m129.717 11.6257-.142-.0052-1.742-1.94214v1.37614c.004.2986.05.3834.308.3867h.074v.0148.1181h-.016c-.148 0-.296-.0138-.442-.0138-.154 0-.312.0138-.468.0138h-.015v-.0148-.1181h.015.049c.227-.0012.291-.1469.294-.4207v-1.44619c0-.18286-.15-.29381-.298-.29429h-.06v-.01523-.11715h.015c.132 0 .266.0131.395.0131.102 0 .202-.0131.317-.0081l1.509 1.69886v-1.26288c-.002-.27333-.184-.30619-.284-.3086h-.091v-.01523-.11715h.016c.162 0 .32.0131.48.0131.14 0 .281-.0131.423-.0131h.015v.01477.11759h-.015-.051c-.142.00407-.288.01643-.292.42143v1.56257c0 .12.004.24.021.3441l.003.0176zm-.13-.0302h.113c-.015-.1031-.018-.2174-.018-.3315v-1.56257c0-.41214.173-.45117.321-.45117h.036v-.07288c-.135.00096-.271.01334-.408.01334-.157 0-.31-.01238-.465-.01334v.07288h.06c.106 0 .314.04712.314.33834l-.005 1.2976-.006.0072-.012.0107-1.527-1.72672c-.102 0-.201.01334-.306.01334-.126 0-.255-.01238-.379-.01334l-.001.07286h.031c.161 0 .326.12309.326.32405v1.44621c0 .2745-.076.4502-.323.4511l-.033-.0009v.074c.149-.0014.301-.0138.452-.0138.143 0 .286.0124.427.0138v-.0731h-.043c-.27-.0009-.337-.1185-.337-.4171v-1.45357zm-.069-.7131.011-.01zm-.008-.0067v-.0012l-.002-.0024z" fill="#211e1f"/><path d="m130.568 9.33381c-.258 0-.267.06193-.319.31238h-.103c.014-.09595.031-.1919.041-.2919.014-.09619.021-.19193.021-.29143h.082c.028.10309.114.09952.207.09952h1.771c.093 0 .178-.00333.186-.10664l.081.01381c-.013.09283-.027.18548-.037.27831-.006.09264-.006.18548-.006.27786l-.104.03833c-.007-.1269-.024-.33024-.254-.33024h-.563v1.82719c0 .2647.12.295.285.295h.065v.1035c-.134 0-.374-.0135-.559-.0135-.206 0-.447.0135-.581.0135v-.1035h.065c.19 0 .285-.017.285-.2879v-1.83429z" fill="#211e1f"/><path d="m131.922 11.5741c-.135 0-.376-.0138-.56-.0138-.206 0-.446.0138-.581.0138h-.014v-.0145-.1184h.014.066c.189-.0045.265-.0069.269-.2731v-1.81926h-.548v-.01503-.01523h.578v1.84952c0 .2755-.111.3033-.299.3036h-.051v.0724c.136-.0007.367-.0131.566-.0131.179 0 .408.0124.544.0131v-.0724h-.05c-.166-.0003-.3-.041-.3-.3107v-1.84242h.578c.231.00095.261.1969.269.32428l.074-.02738c0-.08952 0-.17928.006-.26976.01-.08833.023-.17595.036-.26357l-.053-.00881c-.016.1-.112.105-.199.10405h-1.77-.018c-.081 0-.169-.00381-.2-.09974h-.057c0 .095-.007.18714-.02.27855-.01.0943-.025.18502-.038.27573h.073c.045-.23931.075-.31692.331-.31333v.01524.015c-.254.00452-.248.04738-.304.30119l-.003.01167h-.012-.12l.002-.01786c.014-.09619.031-.19193.041-.29193.015-.09524.021-.19048.021-.28905v-.015h.015.094l.002.01072c.024.08666.088.08714.175.08857h.018 1.77c.096-.00143.166-.00286.172-.09264l.001-.0162.016.00334.096.01526-.002.015c-.013.0919-.027.18476-.037.2769-.007.09143-.007.18429-.007.27691v.01071l-.009.00381-.122.04426-.001-.02c-.009-.12904-.023-.31571-.24-.31571h-.548v1.81211c.003.2591.106.2769.27.2803h.08v.0147.1181z" fill="#211e1f"/><path d="m132.646 11.456h.048c.123 0 .254-.0167.254-.1955v-1.79907c0-.17907-.131-.19595-.254-.19595h-.048v-.1031c.209 0 .566.01358.854.01358.289 0 .646-.01358.879-.01358-.006.14738-.003.37453.007.52527l-.103.02759c-.017-.22307-.058-.4014-.418-.4014h-.477v.89926h.408c.206 0 .251-.1164.271-.30233h.103c-.007.13453-.01.26833-.01.40213 0 .1307.003.261.01.3914l-.103.0205c-.02-.2059-.031-.3398-.268-.3398h-.411v.7998c0 .2236.198.2236.418.2236.412 0 .594-.0279.697-.4188l.096.0235c-.045.1824-.086.3641-.116.5465-.22 0-.615-.0136-.924-.0136s-.718.0136-.913.0136z" fill="#211e1f"/><path d="m134.482 11.5741c-.22 0-.615-.0141-.923-.0141-.31 0-.718.0141-.914.0141h-.014v-.0146-.1035-.0148h.014.048c.125-.0019.238-.0128.24-.1807v-1.79907c-.002-.16762-.115-.17881-.24-.18143h-.062v-.0145-.11786h.014c.21 0 .567.0131.855.0131.289 0 .645-.0131.879-.0131h.015l-.001.01524c-.002.05167-.003.1126-.003.17738 0 .11879.003.24855.01.34643l.001.01238-.012.00336-.12.03143-.001-.01762c-.02-.22286-.05-.38452-.404-.38786h-.462l-.001.86932h.395c.197-.0019.233-.1031.256-.28813l.001-.01357h.014.118v.01545c-.007.13385-.011.26765-.011.40145 0 .13.004.2602.011.3909v.0122l-.012.0028-.12.0238-.001-.0161c-.023-.2096-.025-.3243-.253-.3269l-.397-.0003v.7855c0 .2086.18.2074.404.2086.413-.0024.579-.0224.683-.4081l.003-.0138.014.0026.11.0283-.003.0143c-.044.1819-.085.3633-.116.5452l-.003.0122zm-.012-.03c.029-.1731.069-.3469.111-.5198l-.068-.0172c-.103.3844-.302.4186-.707.416-.216 0-.433 0-.434-.2383v-.8148h.427c.239-.0026.264.1421.281.3376l.074-.0154c-.006-.1265-.01-.2534-.01-.3793 0-.1293.004-.2579.01-.38718h-.074c-.019.17878-.075.30448-.284.30218h-.424v-.92957h.492c.358-.0024.417.18191.432.39786l.074-.02c-.006-.0969-.01-.22119-.01-.33595 0-.05881.002-.11429.003-.16286-.233.00096-.58.01334-.863.01334-.282 0-.63-.01238-.84-.01334v.07286h.033c.123 0 .269.02143.27.21119v1.79907c-.001.1893-.147.2102-.27.2112h-.033v.0724c.2-.0003.597-.0131.899-.0131.303 0 .689.0128.911.0131z" fill="#211e1f"/><path d="m135.062 9.52619c0-.25048-.137-.26072-.244-.26072h-.062v-.10333c.11 0 .323.01381.532.01381.206 0 .371-.01381.553-.01381.432 0 .818.1169.818.605 0 .30836-.206.49736-.478.60426l.587.8786c.096.1452.165.1859.333.2059v.1036c-.113 0-.223-.0136-.336-.0136-.107 0-.217.0136-.323.0136-.264-.3469-.491-.7178-.714-1.1131h-.226v.7353c0 .2647.123.2742.281.2742h.062v.1036c-.197 0-.395-.0135-.591-.0135-.165 0-.326.0135-.498.0135v-.1036h.062c.128 0 .244-.0576.244-.185zm.44.79671h.167c.344 0 .529-.1305.529-.53576 0-.30524-.195-.50119-.501-.50119-.104 0-.147.01071-.195.01381z" fill="#211e1f"/><path d="m137.102 11.5741c-.115 0-.225-.0138-.337-.0138-.105 0-.215.0138-.334.0081-.264-.3455-.489-.7143-.711-1.1067h-.203v.7195c.003.2584.107.2562.266.26h.077v.0148.1181h-.015c-.197 0-.396-.0138-.591-.0138-.164 0-.325.0138-.497.0138h-.015v-.0148-.1181h.015.061c.124-.0007.228-.0545.229-.1702v-1.74474c-.003-.24381-.122-.2424-.229-.24595h-.076v-.01476-.11833h.015c.111 0 .323.01354.532.01354.205 0 .37-.01354.553-.01354.432.00095.831.12047.832.61904 0 .31024-.205.50374-.47.61194l.577.8638c.096.1423.156.1778.323.1992l.012.0019v.0129.1181zm-1.6-1.1424h.235l.004.0076c.223.3945.449.765.702 1.1055.104 0 .215-.0141.322-.0141.109 0 .215.0119.322.0136v-.0752c-.161-.02-.237-.0681-.33-.2108l-.598-.894.017-.0069c.269-.1057.467-.2893.468-.59123-.001-.47643-.371-.58688-.802-.58879-.181 0-.346.01357-.553.01357-.202 0-.405-.01261-.518-.01357v.07286h.047c.107.00026.259.01786.259.27598v1.74478c0 .1378-.129.2007-.259.2009h-.047v.0724c.166-.0005.322-.0136.483-.0136.192 0 .386.0131.576.0136v-.0724h-.047c-.157-.0003-.296-.0198-.296-.2907v-.7495zm0-.0943h-.015v-1.05145l.013-.00119c.047-.00354.093-.01333.197-.01333.313 0 .516.20333.517.51641-.001.40996-.198.54926-.544.54956zm.168-.0295c.34-.0029.511-.121.514-.52004-.002-.3-.188-.48619-.487-.48738-.093 0-.136.00857-.18.0124v.99502z" fill="#211e1f"/><path d="m139.433 10.8826.006-.0067v-1.28757c0-.28191-.195-.32286-.298-.32286h-.075v-.10312c.161 0 .318.01358.48.01358.141 0 .281-.01358.423-.01358v.10312h-.052c-.144 0-.306.02736-.306.43595v1.56288c0 .12.004.24.021.3464h-.13l-1.769-1.97116v1.41496c0 .2989.059.4015.323.4015h.058v.1035c-.147 0-.295-.0135-.442-.0135-.155 0-.313.0135-.467.0135v-.1035h.047c.237 0 .309-.161.309-.4355v-1.44643c0-.19215-.157-.30857-.312-.30857h-.044v-.1031c.13 0 .264.01355.394.01355.103 0 .203-.01355.306-.01355z" fill="#211e1f"/><path d="m139.632 11.6255-.142-.0048-1.742-1.94234v1.37594c.004.2988.049.3836.308.3869h.073v.0148.1181h-.015c-.149 0-.296-.0141-.443-.0141-.153 0-.312.0141-.467.0141h-.015v-.0145-.1184h.015.048c.227-.0009.292-.1469.294-.4216v-1.44552c0-.18289-.15-.29381-.297-.29408h-.06v-.0145-.11833h.015c.131 0 .266.01355.395.01355.101 0 .201-.01355.316-.00881l1.509 1.69959v-1.2634c-.001-.27286-.184-.30667-.283-.30807h-.091v-.01453-.11833h.015c.162 0 .32.01355.481.01355.14 0 .281-.01355.422-.01355h.015v.01548.11738h-.015-.051c-.142.00381-.288.0164-.291.42143v1.56264c0 .12.003.239.02.3447l.002.0167zm-.131-.03h.113c-.015-.1031-.018-.2174-.018-.3314v-1.56267c0-.41216.174-.45024.321-.45143h.036v-.07261c-.135.00095-.271.01333-.407.01333-.158 0-.311-.01238-.466-.01333v.07261h.061c.105.00119.313.04739.313.3381l-.004 1.2981-.007.0071-.01.011-1.529-1.72689c-.101 0-.201.01333-.305.01333-.127 0-.255-.01238-.38-.01333v.07262h.03c.161.00119.327.12286.327.32405v1.44542c0 .2757-.078.4512-.324.4522l-.033-.0003v.0727c.148-.0008.301-.0131.452-.0131.144 0 .287.0123.428.0131v-.0724h-.043c-.27-.0003-.338-.1186-.338-.4174v-1.45287zm-.068-.7131.01-.0098zm-.009-.0064v-.0013l-.002-.0026z" fill="#211e1f"/><path d="m140.521 11.0683c-.035.1165-.076.2065-.076.2676 0 .1034.144.12.257.12h.039v.1036c-.138-.0074-.278-.0136-.417-.0136-.123 0-.246.0063-.37.0136v-.1036h.021c.134 0 .247-.0788.298-.2233l.55-1.57572c.044-.12715.107-.29881.127-.42617.11-.03738.247-.10595.312-.14738.011-.00355.017-.00714.028-.00714.01 0 .016 0 .024.01071.01.02714.02.05833.031.08572l.632 1.79618c.041.12.082.2469.126.3502.042.0962.114.1369.228.1369h.02v.1036c-.155-.0074-.309-.0135-.474-.0135-.168 0-.34.0062-.515.0135v-.1036h.038c.078 0 .213-.0133.213-.0992 0-.0446-.031-.1372-.07-.2474l-.133-.3984h-.779zm.501-1.5214h-.007l-.319.9719h.641z" fill="#211e1f"/><path d="m142.35 11.5741c-.155-.0069-.309-.0141-.473-.0141-.168 0-.339.0072-.515.0141l-.015.0009v-.0155-.1188h.015.037c.08 0 .198-.0181.198-.084.001-.0391-.03-.1333-.068-.2426l-.131-.3883h-.757l-.107.3468c-.034.1172-.076.2079-.075.2638.001.0839.129.1043.243.1043h.053v.0155.1188l-.016-.0009c-.137-.0069-.277-.0141-.414-.0141-.123 0-.247.0072-.37.0141l-.016.0009v-.0155-.1188h.015.02c.128-.0004.235-.073.284-.2128l.55-1.57595c.045-.12738.107-.29857.137-.43548.108-.03643.245-.10547.312-.14738.009-.00309.019-.00786.033-.00786.008-.00023.027.00191.038.02003.009.02831.02.05881.03.08667l.633 1.79597c.04.1205.081.2474.126.3488.04.0917.103.1276.213.1281h.035v.0155.1188zm-.973-.0307c.17-.006.336-.0127.5-.0127.16 0 .309.0067.458.0127v-.0717h-.005c-.117.0007-.198-.0455-.241-.1467-.044-.1043-.086-.2316-.126-.3519l-.633-1.7957c-.01-.02738-.02-.05857-.029-.08286-.003-.00333-.002-.00333-.005-.00333h-.006c-.008 0-.012.00214-.02.00452-.067.0431-.204.11048-.306.13739-.021.13-.083.30142-.128.42857l-.549 1.57621c-.053.149-.173.234-.313.2338h-.005v.0717c.118-.006.237-.0127.356-.0127.132 0 .268.0067.399.0127v-.0717h-.022c-.112-.0015-.268-.0141-.272-.1353 0-.0685.042-.1564.076-.2723l.015.0045-.015-.005.113-.3672h.8l.138.4081c.039.1103.07.2017.07.2522-.005.1055-.15.1128-.228.115h-.022zm-.702-1.0098.328-1.0017h.012.007v.015l-.004.00072.004-.00072v-.015h.01l.326 1.0017zm.041-.0298h.601l-.299-.92023zm.291-.95259.008-.00262z" fill="#211e1f"/><path d="m142.502 9.33381c-.258 0-.268.06193-.32.31238h-.103c.014-.09595.031-.1919.042-.2919.014-.09619.02-.19193.02-.29143h.083c.027.10309.113.09952.205.09952h1.773c.092 0 .177-.00333.185-.10664l.082.01381c-.013.09283-.027.18548-.037.27831-.008.09264-.008.18548-.008.27786l-.103.03833c-.006-.1269-.023-.33024-.254-.33024h-.563v1.82719c0 .2647.121.295.285.295h.065v.1035c-.133 0-.373-.0135-.559-.0135-.206 0-.447.0135-.58.0135v-.1035h.065c.189 0 .285-.017.285-.2879v-1.83429z" fill="#211e1f"/><path d="m143.854 11.5741c-.135 0-.375-.0138-.559-.0138-.206 0-.446.0138-.581.0138h-.015v-.0146-.1183h.015.065c.19-.0045.266-.0069.27-.2731v-1.81927h-.547v-.01502-.01524h.577v1.84953c0 .2755-.111.3026-.3.3033h-.05v.0734c.136-.0015.366-.0139.566-.0139.179 0 .408.0125.544.0139v-.0734h-.051c-.165-.0007-.298-.0405-.299-.3105v-1.84233h.578c.231.00095.261.1969.267.32428l.075-.02738c0-.08952.001-.17928.007-.26928.01-.08834.023-.17643.035-.26407l-.052-.00881c-.015.1-.112.1055-.198.10404h-1.772-.017c-.081.00096-.169-.0038-.2-.10023h-.056c-.001.09523-.008.18764-.021.27907-.009.09452-.026.18547-.039.27571h.074c.045-.23931.075-.31693.332-.31333v.01524.015c-.255.00431-.249.04738-.305.30119l-.003.01166h-.012-.12l.002-.01716c.014-.09688.031-.19262.041-.29191.014-.09595.021-.19119.021-.28976v-.015h.015.093l.003.01072c.024.08666.087.08714.175.08857l.017.00047h1.772c.095-.00188.164-.00333.17-.09283l.001-.01643.016.00336.098.01524-.003.015c-.014.0919-.027.18476-.037.2769-.007.09143-.007.18452-.007.27691v.01071l-.01.00381-.122.04428v-.02002c-.009-.12902-.023-.31571-.24-.31571h-.548v1.81209c.004.2591.106.277.269.2803h.081v.0147.1181z" fill="#211e1f"/><path d="m144.595 11.456h.048c.124 0 .254-.0167.254-.1955v-1.79907c0-.17907-.13-.19595-.254-.19595h-.048v-.1031c.134 0 .34.01358.508.01358.172 0 .378-.01358.54-.01358v.1031h-.049c-.123 0-.254.0169-.254.19595v1.79907c0 .1788.131.1955.254.1955h.049v.1036c-.165 0-.372-.0136-.543-.0136-.168 0-.371.0136-.505.0136z" fill="#211e1f"/><path d="m145.643 11.5741c-.166 0-.372-.0141-.543-.0141-.168 0-.37.0141-.504.0141h-.015v-.0146-.1035-.0148h.015.048c.124-.0019.238-.0126.238-.1807v-1.79907c0-.16762-.114-.17907-.238-.18143h-.063v-.0145-.11786h.015c.134 0 .34.0131.507.0131.171 0 .377-.0131.54-.0131h.014v.01474.11762h-.014-.048c-.126.00238-.238.01381-.24.18143v1.79907c.002.1681.114.1788.24.1807h.062v.0148.1181zm-.016-.03v-.0727h-.032c-.123 0-.269-.0216-.269-.2109v-1.79907c0-.18976.146-.21119.269-.21119h.032v-.07286c-.158.00096-.356.01334-.524.01334-.162 0-.359-.01238-.492-.01334v.07286h.033c.122 0 .268.02143.268.21119v1.79907c0 .1893-.146.2109-.268.2109h-.033v.0727c.132-.0015.326-.0131.489-.0131.167 0 .366.0124.527.0131z" fill="#211e1f"/><path d="m147.012 9.11095c.732 0 1.315.45381 1.315 1.18495 0 .7901-.566 1.315-1.297 1.315-.729 0-1.284-.4945-1.284-1.2328 0-.71406.552-1.26715 1.266-1.26715zm.052 2.34885c.666 0 .782-.5877.782-1.0884 0-.50188-.27-1.1095-.841-1.1095-.601 0-.779.53571-.779.9955 0 .6147.282 1.2024.838 1.2024z" fill="#211e1f"/><path d="m145.73 10.3781c.001-.72239.56-1.2812 1.282-1.28215v.015.0145c-.706 0-1.252.54597-1.253 1.25265.002.73.55 1.2171 1.271 1.2173.723-.0002 1.282-.5178 1.283-1.3002-.001-.72187-.575-1.1688-1.301-1.16975v-.0145-.015c.737.00047 1.328.45881 1.33 1.19925-.001.7983-.575 1.3288-1.312 1.3302-.735-.0014-1.299-.5009-1.3-1.2473zm.481-.1207c.001-.46191.181-1.01098.794-1.01098.583.00146.855.6205.856 1.12498-.001.5007-.119 1.1027-.797 1.1027v-.0143-.0148c.653-.0009.766-.5729.767-1.0736 0-.49781-.268-1.09376-.826-1.0945-.589.00071-.763.52309-.764.9805 0 .6116.279 1.1862.823 1.1876v.0148.0143c-.57-.0008-.852-.5984-.853-1.2167z" fill="#211e1f"/><path d="m150.641 10.8826.007-.0067v-1.28757c0-.28191-.196-.32286-.299-.32286h-.074v-.10312c.16 0 .318.01358.479.01358.141 0 .282-.01358.423-.01358v.10312h-.052c-.144 0-.305.02736-.305.43595v1.56288c0 .12.003.24.02.3464h-.13l-1.768-1.97116v1.41496c0 .2989.058.4015.322.4015h.059v.1035c-.148 0-.295-.0135-.443-.0135-.155 0-.313.0135-.467.0135v-.1035h.048c.237 0 .309-.161.309-.4355v-1.44643c0-.19215-.158-.30857-.313-.30857h-.044v-.1031c.13 0 .264.01355.394.01355.103 0 .203-.01355.306-.01355z" fill="#211e1f"/><path d="m150.841 11.6255-.143-.005-1.742-1.94217v1.37617c.004.2986.05.3831.307.3862h.075v.0155.1179h-.015c-.149 0-.296-.0138-.443-.0138-.154 0-.312.0138-.468.0138h-.014v-.0148-.1186h.014.049c.226-.0007.291-.1464.294-.4202v-1.44643c0-.18285-.15-.29381-.298-.29405h-.059v-.01452-.11786h.014c.132 0 .266.01312.395.01312.102 0 .201-.01312.317-.00809l1.509 1.69883v-1.26288c-.001-.27331-.184-.30619-.284-.30857h-.091v-.0145-.11786h.016c.162 0 .32.0131.48.0131.141 0 .281-.0131.423-.0131h.015v.01474.11762h-.015-.052c-.141.00405-.287.0169-.29.42143v1.56262c0 .12.002.2397.019.3447l.003.0167zm-.131-.03h.113c-.015-.1031-.018-.2174-.018-.3315v-1.56257c0-.41286.173-.45024.32-.45143h.037v-.07262c-.135.00096-.271.01334-.408.01334-.156 0-.31-.01238-.465-.01334v.07262h.06c.106.00119.313.04812.313.33857l-.003 1.29763-.007.0072-.011.0109-1.528-1.72689c-.101 0-.201.01333-.306.01333-.126 0-.255-.01238-.38-.01333v.07262h.03c.162.00119.327.12285.327.32404v1.44643c0 .2745-.076.4502-.323.4512l-.034-.0003v.0727c.149-.0007.302-.0131.453-.0131.143 0 .285.0124.428.0131v-.0724h-.044c-.27-.0003-.337-.1186-.337-.4172v-1.45355zm-.069-.7131.011-.0098zm-.008-.0064v-.0013l-.003-.0026z" fill="#211e1f"/><path d="m151.729 11.0683c-.034.1165-.075.2065-.075.2676 0 .1034.144.12.257.12h.038v.1036c-.137-.0074-.278-.0136-.416-.0136-.124 0-.247.0063-.37.0136v-.1036h.02c.134 0 .248-.0788.299-.2233l.55-1.57572c.044-.12715.106-.29881.126-.42617.11-.03738.247-.10595.313-.14738.01-.00355.017-.00714.027-.00714.011 0 .017 0 .024.01071.01.02714.021.05833.031.08572l.632 1.79618c.041.12.082.2469.127.3502.041.0962.114.1369.227.1369h.021v.1036c-.155-.0074-.31-.0135-.475-.0135-.168 0-.339.0062-.515.0135v-.1036h.038c.079 0 .213-.0133.213-.0992 0-.0446-.031-.1372-.069-.2474l-.133-.3984h-.78zm.502-1.5214h-.007l-.32.9719h.643z" fill="#211e1f"/><path d="m153.558 11.5741c-.155-.0062-.309-.0138-.473-.0138-.167 0-.339.0076-.514.0138l-.016.0009v-.0157-.1181h.015.037c.08 0 .199-.0186.199-.0845.001-.0391-.03-.1326-.068-.2426l-.131-.3884h-.758l-.106.3469c-.034.1176-.075.2079-.075.2634 0 .0843.129.1052.243.1052h.052v.0148.119l-.015-.0009c-.138-.0062-.278-.0138-.415-.0138-.123 0-.246.0076-.37.0138l-.015.0009v-.0157-.1181h.015.019c.129-.0005.236-.074.286-.2133l.549-1.57597c.044-.12738.106-.29857.136-.435.108-.03738.246-.10595.313-.14788.009-.0031.018-.00714.032-.00714.009-.00095.027.00119.038.02.01.02693.02.05809.031.08595l.632 1.79594c.041.1205.082.2474.127.3496.04.0909.102.1269.212.1278h.036v.0148.119zm-.973-.0303c.17-.0064.337-.0131.5-.0131.16 0 .31.0067.459.0126v-.0717h-.006c-.116.0003-.197-.0454-.24-.1466-.045-.1043-.086-.2317-.127-.3514l-.632-1.79622c-.01-.02738-.021-.05857-.029-.0819-.003-.00429-.003-.00429-.005-.00429h-.007c-.007 0-.011.00238-.019.00476-.067.04215-.205.1107-.306.13715-.022.13-.084.30119-.128.42857l-.55 1.57623c-.052.149-.172.234-.313.2337h-.005v.0717c.119-.0059.237-.0126.356-.0126.133 0 .269.0067.401.0126v-.0717h-.023c-.112-.0014-.269-.0135-.273-.1356.001-.0681.043-.1555.077-.2719l.014.0044-.014-.0049.113-.3672h.8l.138.4081c.038.1105.069.2017.069.2522-.005.1054-.149.1128-.228.1149h-.022zm-.702-1.0104.33-1.00149h.01.008v.015l-.004.00071.004-.00071v-.015h.01l.325 1.00149zm.042-.0296h.6l-.298-.91975zm.291-.95258.007-.00262z" fill="#211e1f"/><path d="m154.425 11.2229c0 .1374.095.1783.205.1923.141.0105.295.0105.454-.0069.144-.0173.267-.0997.329-.1854.055-.0758.085-.1719.106-.2474h.1c-.038.1957-.086.3886-.127.584-.302 0-.605-.0135-.906-.0135-.303 0-.605.0135-.907.0135v-.1036h.047c.125 0 .259-.0166.259-.2297v-1.76477c0-.17907-.134-.19595-.259-.19595h-.047v-.1031c.182 0 .36.01358.542.01358.176 0 .347-.01358.522-.01358v.1031h-.086c-.13 0-.232.00381-.232.18524z" fill="#211e1f"/><path d="m155.492 11.5741c-.303 0-.605-.0138-.906-.0138-.303 0-.605.0138-.907.0138h-.015v-.0148-.1181h.015.047c.125-.0029.243-.0114.244-.215v-1.76545c-.001-.1669-.118-.17833-.244-.18073h-.062v-.0145-.11786h.015c.182 0 .361.01309.542.01309.175 0 .346-.01309.523-.01309h.014v.01476.1176h-.014-.087c-.133.00381-.216-.00238-.218.17073v1.77215c.001.1279.085.1624.192.1774.06.0043.124.0069.19.0069.084 0 .172-.0041.26-.0136.14-.0164.261-.0971.32-.179.053-.0734.083-.1677.104-.2427l.003-.0114h.011.118l-.003.0181c-.039.1965-.086.3884-.128.5838l-.003.0117zm-.013-.03c.04-.1862.085-.3684.122-.5541h-.071c-.021.0748-.051.1669-.105.2419-.065.089-.192.1729-.34.1912-.09.0093-.18.014-.264.014-.066 0-.131-.0031-.193-.0074-.112-.0123-.22-.06-.219-.2069v-1.77209c0-.19072.12-.20048.248-.20048h.071v-.07286c-.169.00096-.336.01355-.507.01355-.177 0-.351-.01259-.527-.01355v.07286h.032c.123 0 .273.02143.273.21048v1.76549c0 .2221-.149.2452-.273.2452h-.032v.0726c.296-.0002.593-.0131.892-.0131.298 0 .596.0129.893.0132z" fill="#211e1f"/><path d="m155.577 9.06476c.207 0 .361.15905.361.36286 0 .20285-.154.36047-.361.36047s-.362-.15762-.362-.36047c0-.20379.155-.36286.362-.36286zm0 .65595c.162 0 .286-.13809.286-.29309 0-.15596-.122-.29524-.286-.29524-.163 0-.287.13931-.287.29524 0 .155.124.29309.287.29309zm-.18-.10262v-.01786c.044-.00619.053-.00476.053-.03238v-.26762c0-.03759-.004-.05045-.051-.04857v-.01833h.185c.063 0 .122.03024.122.09595 0 .05381-.036.09357-.086.10905l.06.08283c.027.03762.059.07288.079.08524v.01167h-.07c-.034 0-.063-.07119-.13-.16667h-.04v.12024c0 .02381.008.02238.053.02857v.01786h-.175zm.122-.19047h.043c.046 0 .068-.03548.068-.09239 0-.05761-.034-.07788-.071-.07788h-.04z" fill="#211e1f"/></g></svg>