<svg fill="none" height="24" viewBox="0 0 255 24" width="255" xmlns="http://www.w3.org/2000/svg" xmlns:xlink="http://www.w3.org/1999/xlink"><linearGradient id="a"><stop offset="0" stop-color="#007940"/><stop offset=".2285" stop-color="#00873f"/><stop offset=".7433" stop-color="#40a737"/><stop offset="1" stop-color="#5cb531"/></linearGradient><linearGradient id="b" gradientUnits="userSpaceOnUse" x1="81.6036" x2="86.5967" xlink:href="#a" y1="12.779" y2="12.779"/><linearGradient id="c" gradientUnits="userSpaceOnUse" x1="81.6036" x2="86.597" xlink:href="#a" y1="12.0006" y2="12.0006"/><linearGradient id="d" gradientUnits="userSpaceOnUse" x1="81.6035" x2="86.5967" xlink:href="#a" y1="11.154" y2="11.154"/><linearGradient id="e" gradientUnits="userSpaceOnUse" x1="70.4251" x2="75.4954" y1="12.0006" y2="12.0006"><stop offset="0" stop-color="#1f286f"/><stop offset=".4751" stop-color="#004e94"/><stop offset=".8261" stop-color="#0066b1"/><stop offset="1" stop-color="#006fbc"/></linearGradient><linearGradient id="f" gradientUnits="userSpaceOnUse" x1="75.9876" x2="80.9121" y1="12.0006" y2="12.0006"><stop offset="0" stop-color="#6c2c2f"/><stop offset=".1735" stop-color="#882730"/><stop offset=".5731" stop-color="#be1833"/><stop offset=".8585" stop-color="#dc0436"/><stop offset="1" stop-color="#e60039"/></linearGradient><clipPath id="g"><path d="m0 6h38.7692v12h-38.7692z"/></clipPath><clipPath id="h"><path d="m91.5943 5h14.0348v14h-14.0348z"/></clipPath><clipPath id="i"><path d="m109.629 6h46.3095v12h-46.3095z"/></clipPath><clipPath id="j"><path d="m178.939 5h33.6v14h-33.6z"/></clipPath><g clip-path="url(#g)"><path d="m25.2459 6.01855c-2.75 0-5.2075 1.35884-5.2075 3.86938 0 2.87917 4.3585 3.07797 4.3585 4.52437 0 .609-.7321 1.1542-1.9825 1.1542-1.7746 0-3.1009-.7618-3.1009-.7618l-.5675 2.5334s1.5279.6435 3.5564.6435c3.0067 0 5.3725-1.4256 5.3725-3.979 0-3.0423-4.3767-3.2353-4.3767-4.57778 0-.47708.601-.99981 1.8479-.99981 1.4068 0 2.5545.55401 2.5545.55401l.5555-2.44686s-1.2489-.51361-3.0102-.51361zm-25.1599268.18467-.0665888.36934s1.1569356.20185 2.1989456.6045c1.34167.46172 1.43725.73051 1.6632 1.56535l2.46228 9.04879h3.30068l5.08501-11.58798h-3.2932l-3.26736 7.87868-1.33329-6.67833c-.12227-.76434-.74163-1.20035-1.49976-1.20035zm15.9677268 0-2.5834 11.58798h3.1403l2.5742-11.58798zm17.5143 0c-.7572 0-1.1584.38648-1.4528 1.06185l-4.6007 10.52613h3.2931l.6372-1.7544h4.0119l.3875 1.7544h2.9056l-2.5349-11.58798zm.4283 3.13071.9761 4.34837h-2.6151z" fill="#1434cb"/></g><path d="m57.4632 6.49683h-6.7381v11.00537h6.7381z" fill="#ff5f00"/><path d="m51.4193 12.0006c-.0009-1.0597.2394-2.10576.7025-3.05892.4631-.95317 1.1369-1.7885 1.9706-2.44279-1.0325-.81141-2.2724-1.31598-3.5781-1.45604-1.3057-.14005-2.6244.09005-3.8055.66401-1.181.57397-2.1768 1.46863-2.8735 2.58176-.6966 1.11312-1.0661 2.39978-1.0661 3.71298 0 1.3131.3695 2.5998 1.0661 3.7129.6967 1.1131 1.6925 2.0078 2.8735 2.5817 1.1811.574 2.4998.8041 3.8055.6641 1.3057-.1401 2.5456-.6447 3.5781-1.4561-.8339-.6545-1.5079-1.4901-1.9711-2.4436-.4631-.9536-.7032-2-.702-3.06z" fill="#eb001b"/><path d="m65.4165 12.0004c-.0001 1.3133-.3696 2.6-1.0664 3.7132-.6968 1.1131-1.6927 2.0078-2.8739 2.5817-1.1812.5738-2.5001.8038-3.8058.6635-1.3058-.1402-2.5457-.645-3.5781-1.4567.8333-.6549 1.507-1.4904 1.9702-2.4437.4632-.9532.7039-1.9991.7039-3.059 0-1.0598-.2407-2.10576-.7039-3.05898s-1.1369-1.78878-1.9702-2.44365c1.0324-.81166 2.2723-1.31648 3.5781-1.45674 1.3057-.14025 2.6246.0897 3.8058.66358s2.1771 1.46854 2.8739 2.58169c.6968 1.11316 1.0663 2.3999 1.0664 3.7132z" fill="#f79e1b"/><path d="m87.5943 16.1778c0 1.5555-1.2667 2.8222-2.8223 2.8222h-15.3555v-11.17778c0-1.55555 1.2666-2.82222 2.8222-2.82222h15.3556z" fill="#fff"/><path d="m82.5944 13.3111h1.1666c.0334 0 .1111-.0112.1445-.0112.2222-.0444.4111-.2444.4111-.5222 0-.2666-.1889-.4666-.4111-.5222-.0334-.0111-.1-.0111-.1445-.0111h-1.1666z" fill="url(#b)"/><path d="m83.6278 5.94434c-1.1111 0-2.0222.9-2.0222 2.02222v2.10004h2.8555c.0667 0 .1445 0 .2.0111.6445.0333 1.1223.3666 1.1223.9444 0 .4556-.3223.8445-.9223.9222v.0223c.6556.0444 1.1556.4111 1.1556.9777 0 .6111-.5556 1.0111-1.2889 1.0111h-3.1333v4.1112h2.9666c1.1112 0 2.0223-.9 2.0223-2.0223v-10.09996z" fill="url(#c)"/><path d="m84.1721 11.1554c0-.2667-.1889-.4445-.4111-.4778-.0222 0-.0778-.0111-.1111-.0111h-1.0555v.9778h1.0555c.0333 0 .1 0 .1111-.0111.2222-.0334.4111-.2111.4111-.4778z" fill="url(#d)"/><path d="m72.4497 5.94434c-1.1111 0-2.0222.9-2.0222 2.02222v4.98884c.5666.2778 1.1555.4556 1.7444.4556.7 0 1.0778-.4222 1.0778-1v-2.3556h1.7333v2.3445c0 .9111-.5666 1.6555-2.4889 1.6555-1.1666 0-2.0777-.2555-2.0777-.2555v4.2555h2.9666c1.1111 0 2.0222-.9 2.0222-2.0222v-10.08886z" fill="url(#e)"/><path d="m78.0386 5.94434c-1.1111 0-2.0223.9-2.0223 2.02222v2.64444c.5112-.4333 1.4-.71111 2.8334-.64444.7667.03333 1.5889.24444 1.5889.24444v.8556c-.4111-.2112-.9-.4-1.5334-.4445-1.0889-.0778-1.7444.4556-1.7444 1.3889 0 .9444.6555 1.4778 1.7444 1.3889.6334-.0445 1.1223-.2445 1.5334-.4445v.8556s-.8111.2111-1.5889.2444c-1.4334.0667-2.3222-.2111-2.8334-.6444v4.6667h2.9667c1.1111 0 2.0222-.9 2.0222-2.0223v-10.11106z" fill="url(#f)"/><g clip-path="url(#h)"><path d="m91.5943 5.00024h13.9997v7.55766l-.693 1.0827.693.9637v4.3959h-13.9997v-7.1245l.4331-.498-.4331-.4765z" fill="#016fd0"/><path d="m94.312 14.7556v-2.198h2.3272l.2497.3255.258-.3255h8.4471v2.0464s-.221.1494-.476.1516h-4.678l-.281-.3465v.3465h-.9227v-.5914s-.126.0825-.3984.0825h-.314v.5089h-1.3968l-.2493-.3325-.2532.3325z" fill="#fff"/><path d="m91.5943 10.901.5248-1.22351h.9076l.2978.68541v-.68541h1.1282l.1773.49531.1719-.49531h5.0646v.24903s.2665-.24903.7035-.24903l1.644.00574.292.67637v-.68211h.944l.26.38851v-.38851h.953v2.19801h-.953l-.249-.3898v.3898h-1.387l-.139-.3465h-.373l-.138.3465h-.94c-.377 0-.6175-.244-.6175-.244v.244h-1.4184l-.2815-.3465v.3465h-5.2744l-.1394-.3465h-.3717l-.1384.3465h-.6484z" fill="#fff"/><g fill="#016fd0"><path d="m92.3048 9.94849-.7078 1.64581h.4608l.1306-.3296h.7593l.1299.3296h.471l-.7071-1.64581zm.2619.38301.2314.5759h-.4635z"/><path d="m93.5974 11.594v-1.64576l.6548.00243.3809 1.06113.3718-1.06356h.6497v1.64576h-.4115v-1.2127l-.4361 1.2127h-.3608l-.4374-1.2127v1.2127z"/><path d="m95.9361 11.594v-1.64576h1.3426v.36816h-.9268v.2815h.9052v.3465h-.9052v.2923h.9268v.3573z"/><path d="m97.5169 9.94849v1.64581h.4115v-.5847h.1732l.4933.5847h.5028l-.5413-.6064c.2221-.0187.4513-.2094.4513-.5055 0-.3463-.2718-.53391-.5752-.53391zm.4115.36811h.4703c.1128 0 .1949.0883.1949.1733 0 .1093-.1064.1732-.1888.1732h-.4764z"/><path d="m99.5958 11.594h-.4201v-1.64576h.4201z"/><path d="m100.592 11.594h-.091c-.438 0-.7049-.3456-.7049-.8161 0-.4821.2639-.82966.8179-.82966h.454v.38976h-.471c-.225 0-.384.1756-.384.444 0 .3187.182.4526.444.4526h.108z"/><path d="m101.487 9.94849-.708 1.64581h.461l.131-.3296h.759l.13.3296h.471l-.707-1.64581zm.262.38301.232.5759h-.464z"/><path d="m102.779 11.594v-1.64576h.523l.668 1.03406v-1.03406h.412v1.64576h-.507l-.684-1.0611v1.0611z"/><path d="m94.5935 14.4742v-1.6458h1.3426v.3681h-.9268v.2815h.9051v.3465h-.9051v.2923h.9268v.3574z"/><path d="m101.172 14.4742v-1.6458h1.343v.3681h-.927v.2815h.901v.3465h-.901v.2923h.927v.3574z"/><path d="m95.9882 14.4742.6537-.8128-.6693-.833h.5184l.3986.515.3999-.515h.4981l-.6605.8229.6549.8229h-.5182l-.3871-.5069-.3776.5069z"/><path d="m97.8309 12.8286v1.6458h.4223v-.5197h.4331c.3665 0 .6442-.1944.6442-.5725 0-.3132-.2178-.5536-.5907-.5536zm.4223.3722h.4561c.1184 0 .203.0726.203.1895 0 .1098-.0842.1895-.2044.1895h-.4547z"/><path d="m99.5092 12.8284v1.6458h.4114v-.5847h.1734l.493.5847h.503l-.541-.6064c.222-.0187.451-.2094.451-.5055 0-.3463-.272-.5339-.575-.5339zm.4114.3681h.4704c.113 0 .195.0883.195.1732 0 .1094-.106.1733-.189.1733h-.4764z"/><path d="m102.705 14.4742v-.3574h.824c.122 0 .174-.0658.174-.138 0-.0692-.052-.1391-.174-.1391h-.372c-.324 0-.504-.1971-.504-.493 0-.2638.165-.5183.646-.5183h.801l-.173.3703h-.693c-.133 0-.173.0695-.173.1359 0 .0682.05.1434.151.1434h.39c.361 0 .517.2045.517.4724 0 .2879-.174.5238-.537.5238z"/><path d="m104.216 14.4742v-.3574h.823c.122 0 .175-.0658.175-.138 0-.0692-.053-.1391-.175-.1391h-.372c-.324 0-.504-.1971-.504-.493 0-.2638.165-.5183.646-.5183h.801l-.173.3703h-.693c-.133 0-.173.0695-.173.1359 0 .0682.05.1434.151.1434h.39c.361 0 .517.2045.517.4724 0 .2879-.174.5238-.537.5238z"/></g></g><g clip-path="url(#i)"><path d="m118.503 18c3.279.0157 6.273-2.6748 6.273-5.9479 0-3.57924-2.994-6.05329-6.273-6.0521h-2.823c-3.319-.00119-6.051 2.4736-6.051 6.0521 0 3.2738 2.732 5.9636 6.051 5.9479z" fill="#0079be"/><path d="m115.693 6.49585c-3.032.00095-5.49 2.45929-5.491 5.49335.001 3.0336 2.459 5.4917 5.491 5.4926 3.034-.0009 5.492-2.459 5.493-5.4926-.001-3.03406-2.459-5.4924-5.493-5.49335zm-3.48 5.49335c.003-1.4826.929-2.7469 2.234-3.2493v6.4979c-1.305-.5022-2.231-1.7658-2.234-3.2486zm4.726 3.25v-6.49952c1.306.50119 2.234 1.76622 2.236 3.24952-.002 1.4838-.93 2.7478-2.236 3.25z" fill="#fff"/><g fill="#211e1f"><path d="m126.699 8.58158c0-.56764-.296-.53026-.579-.53643v-.16405c.246.01215.498.01215.744.01215.265 0 .625-.01215 1.092-.01215 1.634 0 2.524 1.09143 2.524 2.209 0 .625-.366 2.1962-2.6 2.1962-.322 0-.618-.0124-.915-.0124-.284 0-.562.0062-.845.0124v-.1638c.378-.0381.561-.0507.579-.48zm.619 2.96022c0 .4859.347.5426.656.5426 1.364 0 1.811-1.0288 1.811-1.9693 0-1.17973-.757-2.03164-1.975-2.03164-.259 0-.378.01857-.492.02526z"/><path d="m130.701 12.1227h.12c.176 0 .302 0 .302-.2088v-1.71c0-.27733-.094-.31592-.328-.4414v-.10119c.297-.08905.651-.2081.675-.22714.045-.02524.083-.03191.114-.03191s.044.0381.044.08881v2.42283c0 .2088.139.2088.316.2088h.107v.1641c-.215 0-.436-.0126-.662-.0126-.227 0-.455.0062-.688.0126zm.675-3.69213c-.164 0-.309-.1514-.309-.31548 0-.15809.151-.30357.309-.30357.164 0 .309.13312.309.30357 0 .17048-.139.31548-.309.31548z"/><path d="m132.651 10.2414c0-.2333-.07-.29621-.366-.41621v-.11973c.271-.08834.529-.17048.832-.30334.019 0 .038.01286.038.0631v.41045c.36-.25855.669-.47357 1.093-.47357.535 0 .725.3914.725.8835v1.6282c0 .2088.138.2088.315.2088h.114v.164c-.221 0-.442-.0126-.669-.0126s-.455.0062-.682.0126v-.164h.114c.177 0 .302 0 .302-.2088v-1.6341c0-.36024-.219-.53667-.58-.53667-.201 0-.523.16407-.732.30307v1.8676c0 .2089.139.2089.316.2089h.114v.164c-.221 0-.442-.0126-.669-.0126s-.455.0062-.682.0126v-.164h.114c.177 0 .303 0 .303-.2089z"/><path d="m135.882 10.5447c-.013.0569-.013.1514 0 .3662.037.5993.423 1.0915.927 1.0915.347 0 .619-.1893.852-.4227l.088.0886c-.29.3848-.65.7128-1.167.7128-1.003 0-1.205-.9721-1.205-1.3756 0-1.23721.833-1.6034 1.274-1.6034.511 0 1.061.32169 1.067.9907 0 .0383 0 .0757-.006.1141l-.057.0378zm1.117-.2021c.157 0 .176-.0821.176-.1576 0-.32195-.196-.58076-.549-.58076-.385 0-.65.28357-.725.73836z"/><path d="m137.863 12.1226h.17c.177 0 .303 0 .303-.2088v-1.7731c0-.19551-.233-.2336-.328-.28408v-.09428c.46-.19595.713-.36024.77-.36024.038 0 .056.01905.056.08238v.56782h.014c.157-.24591.423-.6502.807-.6502.158 0 .36.10714.36.33452 0 .17048-.12.32238-.297.32238-.196 0-.196-.1519-.416-.1519-.108 0-.461.1452-.461.524v1.4827c0 .2088.126.2088.303.2088h.353v.164c-.347-.0064-.611-.0126-.883-.0126-.259 0-.524.0062-.751.0126z"/><path d="m140.292 11.409c.083.4166.335.7702.796.7702.371 0 .51-.2271.51-.4481 0-.7447-1.375-.505-1.375-1.5209 0-.35358.284-.8081.978-.8081.202 0 .473.05714.719.18357l.045.64313h-.146c-.063-.39718-.283-.62453-.688-.62453-.252 0-.492.14526-.492.41643 0 .739 1.464.5112 1.464 1.5019 0 .4164-.334.8586-1.085.8586-.253 0-.549-.0884-.77-.2143l-.069-.7259z"/><path d="m147.801 9.02351h-.157c-.12-.73809-.644-1.035-1.351-1.035-.726 0-1.78.48569-1.78 2.00024 0 1.27575.91 2.19045 1.881 2.19045.625 0 1.143-.429 1.269-1.0919l.144.0376-.144.9214c-.265.1646-.978.3348-1.395.3348-1.476 0-2.41-.953-2.41-2.3731 0-1.29377 1.154-2.22187 2.391-2.22187.511 0 1.003.16476 1.489.33524z"/><path d="m148.029 12.1227h.119c.177 0 .304 0 .304-.2088v-3.51475c0-.41048-.095-.42312-.335-.49241v-.10095c.252-.08188.517-.19571.65-.27164.069-.03762.12-.06955.138-.06955.039 0 .052.03812.052.08881v4.36049c0 .2088.138.2088.315.2088h.106v.1641c-.213 0-.434-.0127-.661-.0127s-.455.0063-.688.0127z"/><path d="m152.08 11.939c0 .1141.069.1203.176.1203.076 0 .171-.0062.253-.0062v.1329c-.272.025-.789.1576-.909.1952l-.032-.0191v-.5107c-.378.3091-.668.5298-1.117.5298-.34 0-.694-.2207-.694-.7505v-1.6162c0-.16405-.025-.32193-.378-.35333v-.12c.228-.0062.732-.04408.814-.04408.07 0 .07.04408.07.18288v1.62783c0 .1898 0 .7324.548.7324.215 0 .499-.1641.764-.3843v-1.69857c0-.12571-.303-.195-.53-.25836v-.11357c.567-.03809.921-.08833.984-.08833.051 0 .051.04405.051.11381z"/><path d="m153.336 9.85677c.252-.21455.593-.45453.94-.45453.732 0 1.173.63806 1.173 1.32546 0 .8267-.605 1.6536-1.508 1.6536-.467 0-.713-.1517-.877-.2208l-.189.1448-.132-.069c.056-.3724.088-.7386.088-1.1234v-2.71378c0-.41045-.095-.42309-.335-.49238v-.10095c.253-.08188.518-.19571.65-.27167.07-.03762.12-.06952.14-.06952.037 0 .05.03812.05.08881v2.30333zm0 1.71643c0 .24.227.6443.65.6443.675 0 .959-.6631.959-1.225 0-.6814-.517-1.24928-1.01-1.24928-.234 0-.429.15167-.599.29708z"/><path d="m126.112 15.9559h.049c.123 0 .254-.0166.254-.1955v-1.799c0-.1791-.131-.196-.254-.196h-.049v-.103c.134 0 .34.0135.509.0135.172 0 .377-.0135.539-.0135v.103h-.049c-.123 0-.253.017-.253.196v1.799c0 .1789.13.1955.253.1955h.049v.1036c-.165 0-.371-.0136-.543-.0136-.168 0-.371.0136-.505.0136z"/><path d="m127.16 16.0741c-.166 0-.372-.0138-.543-.0138-.168 0-.369.0138-.504.0138h-.015v-.0147-.1031-.015h.015.048c.124-.0029.238-.0129.239-.1807v-1.7991c-.001-.1679-.115-.1791-.239-.1814h-.063v-.0145-.1184h.015c.135 0 .34.0136.508.0136.171 0 .377-.0136.539-.0136h.015v.0157.1172h-.015-.048c-.125.0024-.239.0135-.239.1814v1.7991c0 .1678.114.1778.239.1807h.063v.015.1178zm-.015-.0293v-.0733h-.033c-.123 0-.269-.0212-.269-.2109v-1.7991c0-.1898.146-.2112.269-.2112h.033v-.0728c-.158 0-.357.0133-.524.0133-.163 0-.36-.0124-.493-.0133v.0728h.033c.122 0 .268.0214.268.2112v1.7991c0 .1897-.146.2109-.268.2109h-.033v.0733c.133-.0014.327-.0138.489-.0138.167 0 .366.0129.528.0138z"/><path d="m129.519 15.3826.007-.0067v-1.2876c0-.2819-.196-.3228-.299-.3228h-.076v-.1031c.162 0 .32.0135.481.0135.14 0 .282-.0135.422-.0135v.1031h-.051c-.145 0-.306.0273-.306.4359v1.5629c0 .12.004.24.02.3464h-.13l-1.768-1.9712v1.415c0 .2989.058.4015.323.4015h.058v.1035c-.148 0-.295-.0135-.443-.0135-.154 0-.312.0135-.467.0135v-.1035h.048c.237 0 .309-.161.309-.4355v-1.4464c0-.1922-.158-.3086-.312-.3086h-.045v-.1031c.131 0 .264.0135.395.0135.103 0 .203-.0135.305-.0135z"/><path d="m129.717 16.1258-.141-.0053-1.743-1.9421v1.3762c.004.2986.05.3834.308.3867h.074v.0147.1181h-.015c-.149 0-.297-.0138-.443-.0138-.154 0-.312.0138-.467.0138h-.015v-.0147-.1181h.015.048c.227-.0012.292-.1469.294-.4207v-1.4462c0-.1829-.15-.2938-.297-.2943h-.06v-.0153-.1171h.015c.131 0 .265.0131.394.0131.102 0 .202-.0131.318-.0081l1.509 1.6988v-1.2628c-.002-.2734-.184-.3062-.284-.3086h-.091v-.0153-.1171h.015c.162 0 .32.0131.481.0131.139 0 .28-.0131.422-.0131h.015v.0148.1176h-.015-.051c-.142.004-.287.0164-.291.4214v1.5626c0 .12.003.24.02.3441l.003.0176zm-.13-.0303h.114c-.016-.1031-.019-.2173-.019-.3314v-1.5626c0-.4122.173-.4512.321-.4512h.036v-.0729c-.135.001-.271.0134-.407.0134-.157 0-.31-.0124-.466-.0134v.0729h.061c.105 0 .314.0471.314.3384l-.005 1.2976-.007.0071-.012.0107-1.527-1.7267c-.102 0-.201.0134-.306.0134-.126 0-.254-.0124-.379-.0134l-.001.0729h.031c.161 0 .326.1231.326.324v1.4462c0 .2745-.076.4503-.323.4512l-.033-.0009v.074c.149-.0014.302-.0138.452-.0138.143 0 .286.0124.428.0138v-.0731h-.044c-.27-.0009-.337-.1185-.337-.4171v-1.4536zm-.068-.7131.011-.01zm-.008-.0066v-.0012l-.003-.0024z"/><path d="m130.568 13.8337c-.257 0-.267.062-.319.3124h-.103c.014-.0959.031-.1919.041-.2919.014-.0962.021-.1919.021-.2914h.083c.027.1031.113.0995.206.0995h1.771c.093 0 .179-.0033.186-.1066l.082.0138c-.014.0928-.027.1854-.038.2783-.006.0926-.006.1855-.006.2778l-.103.0384c-.008-.1269-.025-.3303-.254-.3303h-.564v1.8272c0 .2647.121.295.285.295h.065v.1036c-.133 0-.374-.0136-.559-.0136-.206 0-.447.0136-.581.0136v-.1036h.066c.189 0 .285-.0169.285-.2879v-1.8343z"/><path d="m131.922 16.0741c-.135 0-.375-.0138-.56-.0138-.206 0-.446.0138-.581.0138h-.014v-.0145-.1184h.014.066c.189-.0045.265-.0069.27-.2731v-1.8192h-.549v-.0151-.0152h.578v1.8495c0 .2755-.111.3033-.299.3036h-.051v.0724c.136-.0007.367-.0131.566-.0131.179 0 .409.0124.544.0131v-.0724h-.05c-.166-.0003-.299-.041-.299-.3107v-1.8424h.578c.23.0009.26.1969.268.3243l.074-.0274c0-.0895 0-.1793.006-.2698.01-.0883.023-.1759.036-.2635l-.052-.0088c-.016.1-.113.105-.199.104h-1.771-.018c-.081 0-.169-.0038-.2-.0997h-.056c-.001.095-.007.1871-.021.2785-.01.0943-.025.185-.038.2757h.073c.046-.2393.075-.3169.331-.3133v.0153.015c-.253.0045-.248.0473-.304.3011l-.003.0117h-.012-.12l.002-.0178c.014-.0962.031-.192.041-.292.015-.0952.021-.1905.021-.289v-.015h.015.094l.003.0107c.023.0867.087.0871.174.0886h.018 1.771c.095-.0015.165-.0029.171-.0927l.001-.0162.016.0034.097.0152-.002.015c-.014.0919-.028.1848-.038.2769-.007.0915-.007.1843-.007.2769v.0107l-.009.0039-.122.0442-.001-.02c-.009-.129-.022-.3157-.239-.3157h-.548v1.8121c.003.2591.105.277.269.2803h.08v.0147.1181z"/><path d="m132.646 15.9559h.048c.123 0 .254-.0166.254-.1955v-1.799c0-.1791-.131-.196-.254-.196h-.048v-.103c.209 0 .566.0135.854.0135.289 0 .646-.0135.879-.0135-.006.1473-.003.3745.007.5252l-.103.0276c-.016-.2231-.058-.4014-.418-.4014h-.477v.8993h.408c.206 0 .251-.1164.271-.3024h.103c-.007.1345-.01.2684-.01.4022 0 .1307.003.2609.01.3914l-.103.0205c-.02-.206-.031-.3398-.268-.3398h-.411v.7998c0 .2235.198.2235.418.2235.412 0 .594-.0278.697-.4188l.096.0236c-.045.1824-.086.364-.116.5464-.22 0-.615-.0136-.924-.0136s-.718.0136-.913.0136z"/><path d="m134.482 16.0741c-.22 0-.615-.014-.923-.014-.309 0-.718.014-.914.014h-.014v-.0145-.1036-.0147h.014.049c.124-.0019.237-.0129.239-.1807v-1.7991c-.002-.1676-.115-.1788-.239-.1814h-.063v-.0145-.1179h.014c.21 0 .567.0131.855.0131.289 0 .645-.0131.879-.0131h.015v.0152c-.003.0517-.004.1126-.004.1774 0 .1188.004.2486.01.3465l.001.0123-.011.0034-.121.0314-.001-.0176c-.02-.2229-.05-.3845-.403-.3879h-.463l-.001.8693h.395c.197-.0019.233-.1031.256-.2881l.001-.0135h.014.118v.0154c-.007.1338-.011.2676-.011.4014 0 .13.004.2603.011.391v.0122l-.012.0028-.12.0238-.001-.0162c-.023-.2095-.025-.3243-.253-.3269l-.397-.0002v.7854c0 .2086.18.2074.404.2086.413-.0024.579-.0223.683-.4081l.003-.0138.014.0026.111.0283-.004.0144c-.044.1819-.085.3633-.116.5452l-.003.0121zm-.012-.03c.03-.1731.069-.3469.111-.5198l-.068-.0171c-.103.3843-.302.4186-.707.416-.216 0-.433 0-.434-.2384v-.8147h.427c.24-.0027.264.1421.281.3376l.074-.0155c-.006-.1264-.009-.2533-.009-.3793 0-.1293.003-.2578.009-.3871h-.074c-.019.1788-.075.3045-.284.3021h-.424v-.9295h.493c.357-.0024.416.1819.431.3979l.074-.02c-.006-.097-.01-.2212-.01-.336 0-.0588.002-.1143.004-.1629-.234.001-.581.0134-.864.0134-.282 0-.629-.0124-.84-.0134v.0729h.034c.122 0 .268.0214.269.2112v1.7991c-.001.1892-.147.2102-.269.2112h-.034v.0723c.201-.0002.597-.0131.899-.0131.303 0 .689.0129.911.0131z"/><path d="m135.063 14.0262c0-.2505-.138-.2608-.245-.2608h-.061v-.1033c.11 0 .322.0138.532.0138.206 0 .371-.0138.553-.0138.432 0 .817.1169.817.605 0 .3083-.206.4974-.477.6043l.587.8786c.096.1452.164.1859.333.2059v.1036c-.114 0-.224-.0136-.337-.0136-.106 0-.216.0136-.322.0136-.265-.3469-.492-.7179-.715-1.1131h-.226v.7352c0 .2648.123.2743.281.2743h.062v.1036c-.196 0-.394-.0136-.59-.0136-.165 0-.327.0136-.498.0136v-.1036h.061c.128 0 .245-.0576.245-.185zm.439.7966h.168c.343 0 .528-.1304.528-.5357 0-.3052-.195-.5012-.501-.5012-.103 0-.147.0107-.195.0138z"/><path d="m137.102 16.0741c-.115 0-.224-.0138-.337-.0138-.105 0-.215.0138-.334.0081-.264-.3455-.489-.7143-.711-1.1067h-.203v.7195c.003.2584.107.2562.266.26h.077v.0148.1181h-.015c-.197 0-.396-.0138-.591-.0138-.164 0-.325.0138-.497.0138h-.015v-.0148-.1181h.015.061c.124-.0007.229-.0545.229-.1702v-1.7447c-.003-.2438-.122-.2424-.229-.246h-.076v-.0147-.1184h.015c.111 0 .323.0136.532.0136.205 0 .37-.0136.553-.0136.432.001.831.1205.832.6191 0 .3102-.205.5037-.47.6119l.577.8638c.096.1423.156.1778.323.1992l.013.0019v.0129.1181zm-1.6-1.1424h.235l.004.0076c.223.3945.449.765.702 1.1055.105 0 .215-.0141.322-.0141.109 0 .215.0119.322.0136v-.0752c-.161-.02-.237-.0681-.33-.2108l-.598-.894.017-.0069c.269-.1057.467-.2893.468-.5912-.001-.4765-.371-.5869-.802-.5888-.181 0-.346.0136-.553.0136-.202 0-.405-.0127-.518-.0136v.0728h.047c.107.0003.259.0179.259.276v1.7448c0 .1378-.129.2007-.259.2009h-.047v.0724c.166-.0005.322-.0136.483-.0136.192 0 .386.0131.576.0136v-.0724h-.047c-.157-.0003-.296-.0198-.296-.2907v-.7495zm0-.0943h-.015v-1.0514l.013-.0012c.047-.0036.093-.0134.197-.0134.313 0 .516.2034.517.5164-.001.41-.198.5493-.544.5496zm.168-.0295c.34-.0029.511-.121.514-.52-.001-.3-.188-.4862-.487-.4874-.093 0-.136.0085-.18.0124v.995z"/><path d="m139.433 15.3826.006-.0067v-1.2876c0-.2819-.195-.3228-.298-.3228h-.075v-.1031c.161 0 .318.0135.48.0135.141 0 .281-.0135.423-.0135v.1031h-.052c-.144 0-.305.0273-.305.4359v1.5629c0 .12.003.24.02.3464h-.13l-1.768-1.9712v1.415c0 .2989.058.4015.322.4015h.058v.1035c-.147 0-.295-.0135-.442-.0135-.155 0-.313.0135-.467.0135v-.1035h.047c.237 0 .31-.161.31-.4355v-1.4464c0-.1922-.158-.3086-.313-.3086h-.044v-.1031c.13 0 .264.0135.394.0135.103 0 .203-.0135.306-.0135z"/><path d="m139.632 16.1255-.141-.0047-1.743-1.9424v1.376c.004.2988.049.3835.308.3869h.073v.0147.1181h-.015c-.149 0-.296-.0141-.443-.0141-.153 0-.312.0141-.466.0141h-.016v-.0145-.1183h.016.047c.227-.001.292-.1469.294-.4217v-1.4455c0-.1829-.15-.2938-.297-.294h-.06v-.0145-.1184h.016c.131 0 .265.0136.394.0136.101 0 .201-.0136.316-.0088l1.509 1.6995v-1.2634c-.001-.2728-.183-.3066-.283-.308h-.091v-.0145-.1184h.015c.162 0 .321.0136.481.0136.14 0 .281-.0136.422-.0136h.015v.0155.1174h-.015-.051c-.141.0038-.287.0164-.291.4214v1.5626c0 .12.003.239.02.3448l.002.0166zm-.131-.03h.113c-.015-.1031-.018-.2174-.018-.3314v-1.5626c0-.4122.174-.4503.321-.4514h.036v-.0727c-.135.001-.271.0134-.407.0134-.158 0-.311-.0124-.466-.0134v.0727h.061c.105.0011.314.0473.314.338l-.005 1.2981-.007.0072-.01.0109-1.528-1.7268c-.102 0-.202.0133-.306.0133-.127 0-.255-.0124-.38-.0133v.0726h.03c.162.0012.327.1228.327.324v1.4455c0 .2757-.078.4512-.324.4521l-.033-.0002v.0726c.148-.0007.301-.0131.452-.0131.144 0 .287.0124.429.0131v-.0724h-.044c-.27-.0002-.338-.1185-.338-.4174v-1.4528zm-.068-.7131.01-.0097zm-.009-.0064v-.0012l-.002-.0026z"/><path d="m140.521 15.5683c-.035.1164-.076.2064-.076.2676 0 .1034.144.12.257.12h.039v.1036c-.138-.0074-.278-.0136-.417-.0136-.123 0-.246.0062-.37.0136v-.1036h.021c.134 0 .247-.0788.298-.2233l.55-1.5757c.044-.1272.107-.2988.127-.4262.11-.0374.247-.106.312-.1474.011-.0035.017-.0071.028-.0071.01 0 .017 0 .024.0107.01.0271.02.0583.031.0857l.632 1.7962c.041.12.082.2469.126.3502.042.0962.114.1369.228.1369h.02v.1036c-.155-.0074-.309-.0135-.474-.0135-.168 0-.34.0061-.515.0135v-.1036h.038c.079 0 .213-.0133.213-.0993 0-.0445-.031-.1371-.069-.2473l-.134-.3984h-.779zm.501-1.5214h-.007l-.319.9719h.642z"/><path d="m142.35 16.0741c-.155-.0069-.309-.014-.473-.014-.168 0-.339.0071-.515.014l-.015.001v-.0155-.1188h.015.038c.079 0 .197-.0181.197-.084.001-.0391-.03-.1334-.068-.2426l-.13-.3884h-.758l-.106.3469c-.035.1171-.076.2079-.076.2638.001.0838.129.1043.243.1043h.053v.0155.1188l-.015-.001c-.138-.0069-.278-.014-.415-.014-.123 0-.247.0071-.37.014l-.016.001v-.0155-.1188h.015.021c.128-.0005.234-.0731.284-.2128l.549-1.576c.046-.1274.107-.2986.137-.4355.108-.0364.246-.1054.312-.1473.009-.0031.019-.0079.033-.0079.008-.0002.027.0019.038.02.01.0283.02.0588.031.0867l.632 1.796c.041.1204.082.2473.126.3487.04.0917.103.1277.214.1281h.035v.0155.1188zm-.973-.0307c.17-.0059.336-.0126.5-.0126.16 0 .309.0067.458.0126v-.0717h-.004c-.118.0007-.199-.0454-.241-.1466-.045-.1043-.087-.2317-.127-.3519l-.632-1.7957c-.011-.0274-.021-.0586-.03-.0829-.003-.0033-.002-.0033-.005-.0033h-.006c-.007 0-.011.0021-.02.0045-.066.0431-.204.1105-.306.1374-.021.13-.083.3014-.127.4285l-.55 1.5762c-.052.1491-.173.2341-.312.2338h-.006v.0717c.118-.0059.237-.0126.356-.0126.133 0 .268.0067.399.0126v-.0717h-.022c-.111-.0014-.268-.014-.272-.1352 0-.0686.043-.1564.076-.2724l.015.0045-.015-.005.113-.3671h.801l.137.4081c.039.1102.07.2017.07.2521-.005.1055-.15.1129-.227.115h-.023zm-.702-1.0098.329-1.0016h.011.007v.015l-.004.0007.004-.0007v-.015h.011l.325 1.0016zm.041-.0297h.601l-.299-.9203zm.291-.9526.008-.0026z"/><path d="m142.502 13.8337c-.258 0-.268.062-.32.3124h-.103c.014-.0959.031-.1919.042-.2919.014-.0962.02-.1919.02-.2914h.083c.027.1031.113.0995.205.0995h1.773c.092 0 .177-.0033.185-.1066l.082.0138c-.013.0928-.027.1854-.037.2783-.008.0926-.008.1855-.008.2778l-.103.0384c-.006-.1269-.023-.3303-.253-.3303h-.564v1.8272c0 .2647.121.295.285.295h.065v.1036c-.133 0-.373-.0136-.559-.0136-.206 0-.447.0136-.58.0136v-.1036h.065c.189 0 .285-.0169.285-.2879v-1.8343z"/><path d="m143.854 16.0741c-.134 0-.375-.0138-.559-.0138-.205 0-.446.0138-.58.0138h-.016v-.0146-.1183h.016.065c.189-.0045.265-.0069.27-.2731l-.001-1.8193h-.547v-.015-.0152h.577v1.8495c0 .2755-.111.3026-.299.3033h-.051v.0734c.136-.0015.367-.0139.566-.0139.179 0 .409.0125.544.0139v-.0734h-.05c-.165-.0007-.299-.0405-.3-.3105v-1.8423h.578c.231.0009.261.1969.268.3243l.075-.0274c0-.0896 0-.1793.007-.2693.009-.0883.022-.1764.035-.2641l-.052-.0088c-.016.1-.113.1055-.198.1041h-1.773-.017c-.081.0009-.169-.0039-.2-.1003h-.056c-.001.0953-.007.1877-.021.2791-.009.0945-.026.1855-.039.2757h.074c.045-.2393.075-.3169.332-.3133v.0152.015c-.255.0043-.249.0474-.305.3012l-.003.0117h-.012-.12l.002-.0172c.014-.0969.031-.1926.041-.2919.014-.096.021-.1912.021-.2898v-.015h.015.094l.002.0107c.024.0867.087.0872.175.0886l.017.0005h1.773c.094-.0019.164-.0033.169-.0928l.001-.0165.017.0034.097.0152-.003.015c-.014.0919-.027.1848-.037.2769-.007.0915-.007.1846-.007.2769v.0107l-.01.0039-.122.0442v-.02c-.009-.129-.023-.3157-.24-.3157h-.548v1.8121c.004.2591.106.277.27.2803h.08v.0147.1181z"/><path d="m144.596 15.9559h.048c.124 0 .253-.0166.253-.1955v-1.799c0-.1791-.129-.196-.253-.196h-.048v-.103c.134 0 .339.0135.507.0135.173 0 .378-.0135.54-.0135v.103h-.048c-.124 0-.255.017-.255.196v1.799c0 .1789.131.1955.255.1955h.048v.1036c-.165 0-.371-.0136-.542-.0136-.169 0-.371.0136-.505.0136z"/><path d="m145.643 16.0741c-.166 0-.371-.014-.543-.014-.167 0-.37.014-.504.014h-.015v-.0145-.1036-.0147h.015.048c.124-.0019.238-.0126.238-.1807v-1.7991c0-.1676-.114-.1791-.238-.1814h-.063v-.0145-.1179h.015c.134 0 .34.0131.507.0131.171 0 .377-.0131.54-.0131h.015v.0147.1177h-.015-.048c-.126.0023-.238.0138-.24.1814v1.7991c.002.1681.114.1788.24.1807h.063v.0147.1181zm-.015-.03v-.0726h-.033c-.123 0-.269-.0217-.269-.2109v-1.7991c0-.1898.146-.2112.269-.2112h.033v-.0729c-.159.001-.357.0134-.525.0134-.162 0-.359-.0124-.492-.0134v.0729h.033c.122 0 .268.0214.269.2112v1.7991c-.001.1892-.147.2109-.269.2109h-.033v.0726c.132-.0014.326-.0131.489-.0131.167 0 .366.0124.528.0131z"/><path d="m147.012 13.6108c.732 0 1.315.4538 1.315 1.185 0 .7901-.566 1.315-1.297 1.315-.729 0-1.284-.4945-1.284-1.2328 0-.7141.552-1.2672 1.266-1.2672zm.052 2.3488c.666 0 .782-.5876.782-1.0883 0-.5019-.27-1.1095-.84-1.1095-.601 0-.78.5357-.78.9955 0 .6147.282 1.2023.838 1.2023z"/><path d="m145.73 14.8781c.002-.7224.561-1.2812 1.282-1.2822v.015.0145c-.706 0-1.252.546-1.253 1.2527.002.73.55 1.2171 1.271 1.2173.724-.0002 1.282-.5178 1.283-1.3002 0-.7219-.575-1.1688-1.301-1.1698v-.0145-.015c.738.0005 1.329.4589 1.33 1.1993 0 .7983-.574 1.3288-1.312 1.3302-.734-.0014-1.298-.5009-1.3-1.2473zm.481-.1207c.001-.4619.182-1.011.795-1.011.582.0015.855.6205.856 1.125-.001.5007-.119 1.1027-.798 1.1027v-.0143-.0148c.653-.0009.766-.5729.768-1.0736 0-.4978-.268-1.0938-.826-1.0945-.589.0007-.764.5231-.765.9805.001.6116.279 1.1862.823 1.1876v.0148.0143c-.57-.0008-.852-.5984-.853-1.2167z"/><path d="m150.641 15.3826.007-.0067v-1.2876c0-.2819-.196-.3228-.299-.3228h-.074v-.1031c.161 0 .318.0135.479.0135.142 0 .282-.0135.423-.0135v.1031h-.052c-.144 0-.305.0273-.305.4359v1.5629c0 .12.003.24.021.3464h-.131l-1.768-1.9712v1.415c0 .2989.058.4015.322.4015h.059v.1035c-.148 0-.295-.0135-.443-.0135-.155 0-.313.0135-.467.0135v-.1035h.048c.237 0 .309-.161.309-.4355v-1.4464c0-.1922-.158-.3086-.313-.3086h-.044v-.1031c.13 0 .264.0135.394.0135.104 0 .203-.0135.306-.0135z"/><path d="m150.841 16.1255-.142-.005-1.742-1.9421v1.3762c.003.2986.049.3831.307.3862h.074v.0155.1178h-.015c-.149 0-.296-.0138-.443-.0138-.154 0-.312.0138-.468.0138h-.014v-.0147-.1186h.014.049c.226-.0007.291-.1464.294-.4202v-1.4465c0-.1828-.15-.2938-.298-.294h-.059v-.0145-.1179h.014c.132 0 .266.0131.395.0131.102 0 .201-.0131.318-.0081l1.508 1.6988v-1.2628c-.001-.2733-.184-.3062-.284-.3086h-.09v-.0145-.1178h.015c.162 0 .32.013.48.013.141 0 .281-.013.423-.013h.015v.0147.1176h-.015-.052c-.141.0041-.287.0169-.29.4214v1.5627c0 .12.003.2397.019.3447l.003.0167h-.016zm-.131-.03h.113c-.015-.1031-.018-.2173-.018-.3314v-1.5626c0-.4129.173-.4502.32-.4514h.037v-.0727c-.135.001-.271.0134-.408.0134-.156 0-.31-.0124-.465-.0134v.0727h.06c.106.0012.313.0481.313.3385l-.003 1.2977-.007.0071-.011.0109-1.528-1.7268c-.101 0-.201.0133-.305.0133-.127 0-.256-.0124-.381-.0133v.0726h.03c.162.0012.328.1228.328.324v1.4465c0 .2745-.077.4502-.324.4512l-.034-.0003v.0726c.149-.0007.302-.0131.453-.0131.143 0 .285.0124.428.0131v-.0723h-.044c-.27-.0003-.337-.1186-.337-.4172v-1.4536zm-.069-.7131.011-.0097zm-.008-.0064v-.0012l-.003-.0026z"/><path d="m151.729 15.5683c-.034.1164-.075.2064-.075.2676 0 .1034.144.12.257.12h.038v.1036c-.137-.0074-.278-.0136-.416-.0136-.124 0-.247.0062-.37.0136v-.1036h.02c.134 0 .248-.0788.299-.2233l.55-1.5757c.044-.1272.106-.2988.126-.4262.11-.0374.247-.106.313-.1474.01-.0035.017-.0071.027-.0071.011 0 .017 0 .024.0107.011.0271.021.0583.031.0857l.632 1.7962c.041.12.082.2469.127.3502.041.0962.114.1369.227.1369h.021v.1036c-.155-.0074-.31-.0135-.475-.0135-.167 0-.339.0061-.515.0135v-.1036h.039c.078 0 .213-.0133.213-.0993 0-.0445-.032-.1371-.07-.2473l-.133-.3984h-.78zm.502-1.5214h-.007l-.32.9719h.643z"/><path d="m153.558 16.0741c-.154-.0062-.309-.0138-.473-.0138-.167 0-.339.0076-.514.0138l-.015.001v-.0157-.1181h.014.038c.08 0 .198-.0186.198-.0846.001-.039-.03-.1326-.068-.2426l-.131-.3883h-.758l-.106.3469c-.034.1176-.075.2078-.074.2633 0 .0843.128.1053.242.1053h.052v.0147.1191l-.015-.001c-.137-.0062-.278-.0138-.415-.0138-.123 0-.246.0076-.37.0138l-.015.001v-.0157-.1181h.015.02c.128-.0005.235-.0741.285-.2134l.55-1.5759c.043-.1274.105-.2986.136-.435.108-.0374.245-.106.312-.1479.009-.0031.018-.0071.032-.0071.01-.001.027.0011.038.02.01.0269.02.058.032.0859l.631 1.796c.041.1205.082.2474.127.3495.04.091.103.1269.212.1279h.036v.0147.1191zm-.973-.0302c.17-.0065.337-.0131.5-.0131.16 0 .31.0066.459.0126v-.0717h-.006c-.116.0003-.197-.0455-.24-.1467-.045-.1042-.086-.2316-.127-.3514l-.632-1.7962c-.01-.0274-.021-.0585-.029-.0819-.003-.0043-.002-.0043-.005-.0043h-.007c-.007 0-.011.0024-.019.0048-.067.0421-.204.1107-.306.1371-.021.13-.084.3012-.128.4286l-.55 1.5762c-.052.1491-.172.2341-.312.2338h-.005v.0717c.118-.006.236-.0126.355-.0126.134 0 .269.0066.401.0126v-.0717h-.023c-.112-.0014-.269-.0136-.273-.1357.001-.0681.044-.1555.077-.2719l.014.0045-.014-.005.113-.3671h.801l.137.408c.038.1105.069.2017.069.2522-.005.1055-.149.1128-.227.115h-.023zm-.701-1.0105.329-1.0014h.01.008v.015l-.004.0007.004-.0007v-.015h.011l.324 1.0014zm.041-.0295h.6l-.298-.9198zm.292-.9526.006-.0027z"/><path d="m154.425 15.7228c0 .1374.095.1784.205.1924.141.0105.295.0105.454-.0069.144-.0174.268-.0997.329-.1855.055-.0757.086-.1719.106-.2474h.1c-.038.1958-.086.3886-.127.5841-.302 0-.604-.0136-.906-.0136-.303 0-.604.0136-.907.0136v-.1036h.048c.124 0 .258-.0166.258-.2297v-1.7648c0-.1791-.134-.196-.258-.196h-.048v-.103c.182 0 .361.0135.542.0135.176 0 .347-.0135.523-.0135v.103h-.087c-.13 0-.232.0039-.232.1853z"/><path d="m155.492 16.0741c-.303 0-.605-.0138-.906-.0138-.303 0-.605.0138-.907.0138h-.015v-.0148-.118h.015.048c.124-.0029.242-.0115.243-.215v-1.7655c-.001-.1669-.118-.1783-.243-.1807h-.063v-.0145-.1179h.015c.182 0 .361.0131.543.0131.174 0 .345-.0131.522-.0131h.014v.0148.1176h-.014-.087c-.133.0038-.215-.0024-.218.1707v1.7721c.001.1279.085.1624.192.1774.061.0043.124.0069.19.0069.084 0 .172-.004.26-.0135.14-.0164.261-.0972.32-.1791.053-.0733.083-.1676.104-.2426l.003-.0114h.011.118l-.003.0181c-.039.1964-.086.3883-.128.5838l-.003.0117h-.011zm-.013-.03c.04-.1862.085-.3683.122-.5541h-.07c-.022.0748-.052.1669-.106.2419-.064.0891-.192.1729-.34.1912-.09.0093-.179.0141-.264.0141-.066 0-.131-.0031-.193-.0074-.111-.0124-.22-.06-.219-.2069v-1.7721c0-.1908.12-.2005.248-.2005h.071v-.0729c-.169.001-.336.0136-.507.0136-.177 0-.351-.0126-.527-.0136v.0729h.033c.122 0 .272.0214.272.2105v1.7654c0 .2222-.149.2453-.272.2453h-.033v.0726c.297-.0003.593-.0131.892-.0131.298 0 .596.0128.893.0131z"/><path d="m155.577 13.5647c.207 0 .362.159.362.3629 0 .2028-.155.3604-.362.3604s-.361-.1576-.361-.3604c0-.2038.154-.3629.361-.3629zm0 .6559c.162 0 .286-.138.286-.293 0-.156-.122-.2953-.286-.2953-.162 0-.287.1393-.287.2953 0 .155.125.293.287.293zm-.18-.1026v-.0178c.045-.0062.053-.0048.053-.0324v-.2676c0-.0376-.004-.0505-.051-.0486v-.0183h.185c.064 0 .122.0302.122.0959 0 .0538-.036.0936-.085.1091l.059.0828c.028.0376.059.0729.08.0852v.0117h-.071c-.034 0-.063-.0712-.13-.1667h-.04v.1203c0 .0238.008.0224.053.0285v.0179zm.122-.1904h.043c.046 0 .068-.0355.068-.0924 0-.0576-.034-.0779-.071-.0779h-.04z"/></g><path d="m118.503 18c3.279.0157 6.273-2.6748 6.273-5.9479 0-3.57924-2.994-6.05329-6.273-6.0521h-2.823c-3.319-.00119-6.051 2.4736-6.051 6.0521 0 3.2738 2.732 5.9636 6.051 5.9479z" fill="#0079be"/><path d="m115.693 6.49585c-3.032.00095-5.49 2.45929-5.491 5.49335.001 3.0336 2.459 5.4917 5.491 5.4926 3.034-.0009 5.492-2.459 5.493-5.4926-.001-3.03406-2.459-5.4924-5.493-5.49335zm-3.48 5.49335c.003-1.4826.929-2.7469 2.234-3.2493v6.4979c-1.305-.5022-2.231-1.7658-2.234-3.2486zm4.726 3.25v-6.49952c1.306.50119 2.234 1.76622 2.236 3.24952-.002 1.4838-.93 2.7478-2.236 3.25z" fill="#fff"/><path d="m126.699 8.58158c0-.56764-.296-.53026-.579-.53643v-.16405c.246.01215.498.01215.744.01215.265 0 .625-.01215 1.092-.01215 1.634 0 2.524 1.09143 2.524 2.209 0 .625-.366 2.1962-2.6 2.1962-.322 0-.618-.0124-.915-.0124-.284 0-.562.0062-.845.0124v-.1638c.378-.0381.561-.0507.579-.48zm.619 2.96022c0 .4859.347.5426.656.5426 1.364 0 1.811-1.0288 1.811-1.9693 0-1.17973-.757-2.03164-1.975-2.03164-.259 0-.378.01857-.492.02526z" fill="#211e1f"/><path d="m130.701 12.1227h.12c.176 0 .302 0 .302-.2088v-1.71c0-.27733-.094-.31592-.328-.4414v-.10119c.297-.08905.651-.2081.675-.22714.045-.02524.083-.03191.114-.03191s.044.0381.044.08881v2.42283c0 .2088.139.2088.316.2088h.107v.1641c-.215 0-.436-.0126-.662-.0126-.227 0-.455.0062-.688.0126zm.675-3.69213c-.164 0-.309-.1514-.309-.31548 0-.15809.151-.30357.309-.30357.164 0 .309.13312.309.30357 0 .17048-.139.31548-.309.31548z" fill="#211e1f"/><path d="m132.651 10.2414c0-.2333-.07-.29621-.366-.41621v-.11973c.271-.08834.529-.17048.832-.30334.019 0 .038.01286.038.0631v.41045c.36-.25855.669-.47357 1.093-.47357.535 0 .725.3914.725.8835v1.6282c0 .2088.138.2088.315.2088h.114v.164c-.221 0-.442-.0126-.669-.0126s-.455.0062-.682.0126v-.164h.114c.177 0 .302 0 .302-.2088v-1.6341c0-.36024-.219-.53667-.58-.53667-.201 0-.523.16407-.732.30307v1.8676c0 .2089.139.2089.316.2089h.114v.164c-.221 0-.442-.0126-.669-.0126s-.455.0062-.682.0126v-.164h.114c.177 0 .303 0 .303-.2089z" fill="#211e1f"/><path d="m135.882 10.5447c-.013.0569-.013.1514 0 .3662.037.5993.423 1.0915.927 1.0915.347 0 .619-.1893.852-.4227l.088.0886c-.29.3848-.65.7128-1.167.7128-1.003 0-1.205-.9721-1.205-1.3756 0-1.23721.833-1.6034 1.274-1.6034.511 0 1.061.32169 1.067.9907 0 .0383 0 .0757-.006.1141l-.057.0378zm1.117-.2021c.157 0 .176-.0821.176-.1576 0-.32195-.196-.58076-.549-.58076-.385 0-.65.28357-.725.73836z" fill="#211e1f"/><path d="m137.863 12.1226h.17c.177 0 .303 0 .303-.2088v-1.7731c0-.19551-.233-.2336-.328-.28408v-.09428c.46-.19595.713-.36024.77-.36024.038 0 .056.01905.056.08238v.56782h.014c.157-.24591.423-.6502.807-.6502.158 0 .36.10714.36.33452 0 .17048-.12.32238-.297.32238-.196 0-.196-.1519-.416-.1519-.108 0-.461.1452-.461.524v1.4827c0 .2088.126.2088.303.2088h.353v.164c-.347-.0064-.611-.0126-.883-.0126-.259 0-.524.0062-.751.0126z" fill="#211e1f"/><path d="m140.292 11.409c.083.4166.335.7702.796.7702.371 0 .51-.2271.51-.4481 0-.7447-1.375-.505-1.375-1.5209 0-.35358.284-.8081.978-.8081.202 0 .473.05714.719.18357l.045.64313h-.146c-.063-.39718-.283-.62453-.688-.62453-.252 0-.492.14526-.492.41643 0 .739 1.464.5112 1.464 1.5019 0 .4164-.334.8586-1.085.8586-.253 0-.549-.0884-.77-.2143l-.069-.7259z" fill="#211e1f"/><path d="m147.801 9.02351h-.157c-.12-.73809-.644-1.035-1.351-1.035-.726 0-1.78.48569-1.78 2.00024 0 1.27575.91 2.19045 1.881 2.19045.625 0 1.143-.429 1.269-1.0919l.144.0376-.144.9214c-.265.1646-.978.3348-1.395.3348-1.476 0-2.41-.953-2.41-2.3731 0-1.29377 1.154-2.22187 2.391-2.22187.511 0 1.003.16476 1.489.33524z" fill="#211e1f"/><path d="m148.029 12.1227h.119c.177 0 .304 0 .304-.2088v-3.51475c0-.41048-.095-.42312-.335-.49241v-.10095c.252-.08188.517-.19571.65-.27164.069-.03762.12-.06955.138-.06955.039 0 .052.03812.052.08881v4.36049c0 .2088.138.2088.315.2088h.106v.1641c-.213 0-.434-.0127-.661-.0127s-.455.0063-.688.0127z" fill="#211e1f"/><path d="m152.08 11.939c0 .1141.069.1203.176.1203.076 0 .171-.0062.253-.0062v.1329c-.272.025-.789.1576-.909.1952l-.032-.0191v-.5107c-.378.3091-.668.5298-1.117.5298-.34 0-.694-.2207-.694-.7505v-1.6162c0-.16405-.025-.32193-.378-.35333v-.12c.228-.0062.732-.04408.814-.04408.07 0 .07.04408.07.18288v1.62783c0 .1898 0 .7324.548.7324.215 0 .499-.1641.764-.3843v-1.69857c0-.12571-.303-.195-.53-.25836v-.11357c.567-.03809.921-.08833.984-.08833.051 0 .051.04405.051.11381z" fill="#211e1f"/><path d="m153.336 9.85677c.252-.21455.593-.45453.94-.45453.732 0 1.173.63806 1.173 1.32546 0 .8267-.605 1.6536-1.508 1.6536-.467 0-.713-.1517-.877-.2208l-.189.1448-.132-.069c.056-.3724.088-.7386.088-1.1234v-2.71378c0-.41045-.095-.42309-.335-.49238v-.10095c.253-.08188.518-.19571.65-.27167.07-.03762.12-.06952.14-.06952.037 0 .05.03812.05.08881v2.30333zm0 1.71643c0 .24.227.6443.65.6443.675 0 .959-.6631.959-1.225 0-.6814-.517-1.24928-1.01-1.24928-.234 0-.429.15167-.599.29708z" fill="#211e1f"/><path d="m126.112 15.9559h.049c.123 0 .254-.0166.254-.1955v-1.799c0-.1791-.131-.196-.254-.196h-.049v-.103c.134 0 .34.0135.509.0135.172 0 .377-.0135.539-.0135v.103h-.049c-.123 0-.253.017-.253.196v1.799c0 .1789.13.1955.253.1955h.049v.1036c-.165 0-.371-.0136-.543-.0136-.168 0-.371.0136-.505.0136z" fill="#211e1f"/><path d="m127.16 16.0741c-.166 0-.372-.0138-.543-.0138-.168 0-.369.0138-.504.0138h-.015v-.0147-.1031-.015h.015.048c.124-.0029.238-.0129.239-.1807v-1.7991c-.001-.1679-.115-.1791-.239-.1814h-.063v-.0145-.1184h.015c.135 0 .34.0136.508.0136.171 0 .377-.0136.539-.0136h.015v.0157.1172h-.015-.048c-.125.0024-.239.0135-.239.1814v1.7991c0 .1678.114.1778.239.1807h.063v.015.1178zm-.015-.0293v-.0733h-.033c-.123 0-.269-.0212-.269-.2109v-1.7991c0-.1898.146-.2112.269-.2112h.033v-.0728c-.158 0-.357.0133-.524.0133-.163 0-.36-.0124-.493-.0133v.0728h.033c.122 0 .268.0214.268.2112v1.7991c0 .1897-.146.2109-.268.2109h-.033v.0733c.133-.0014.327-.0138.489-.0138.167 0 .366.0129.528.0138z" fill="#211e1f"/><path d="m129.519 15.3826.007-.0067v-1.2876c0-.2819-.196-.3228-.299-.3228h-.076v-.1031c.162 0 .32.0135.481.0135.14 0 .282-.0135.422-.0135v.1031h-.051c-.145 0-.306.0273-.306.4359v1.5629c0 .12.004.24.02.3464h-.13l-1.768-1.9712v1.415c0 .2989.058.4015.323.4015h.058v.1035c-.148 0-.295-.0135-.443-.0135-.154 0-.312.0135-.467.0135v-.1035h.048c.237 0 .309-.161.309-.4355v-1.4464c0-.1922-.158-.3086-.312-.3086h-.045v-.1031c.131 0 .264.0135.395.0135.103 0 .203-.0135.305-.0135z" fill="#211e1f"/><path d="m129.717 16.1258-.141-.0053-1.743-1.9421v1.3762c.004.2986.05.3834.308.3867h.074v.0147.1181h-.015c-.149 0-.297-.0138-.443-.0138-.154 0-.312.0138-.467.0138h-.015v-.0147-.1181h.015.048c.227-.0012.292-.1469.294-.4207v-1.4462c0-.1829-.15-.2938-.297-.2943h-.06v-.0153-.1171h.015c.131 0 .265.0131.394.0131.102 0 .202-.0131.318-.0081l1.509 1.6988v-1.2628c-.002-.2734-.184-.3062-.284-.3086h-.091v-.0153-.1171h.015c.162 0 .32.0131.481.0131.139 0 .28-.0131.422-.0131h.015v.0148.1176h-.015-.051c-.142.004-.287.0164-.291.4214v1.5626c0 .12.003.24.02.3441l.003.0176zm-.13-.0303h.114c-.016-.1031-.019-.2173-.019-.3314v-1.5626c0-.4122.173-.4512.321-.4512h.036v-.0729c-.135.001-.271.0134-.407.0134-.157 0-.31-.0124-.466-.0134v.0729h.061c.105 0 .314.0471.314.3384l-.005 1.2976-.007.0071-.012.0107-1.527-1.7267c-.102 0-.201.0134-.306.0134-.126 0-.254-.0124-.379-.0134l-.001.0729h.031c.161 0 .326.1231.326.324v1.4462c0 .2745-.076.4503-.323.4512l-.033-.0009v.074c.149-.0014.302-.0138.452-.0138.143 0 .286.0124.428.0138v-.0731h-.044c-.27-.0009-.337-.1185-.337-.4171v-1.4536zm-.068-.7131.011-.01zm-.008-.0066v-.0012l-.003-.0024z" fill="#211e1f"/><path d="m130.568 13.8337c-.257 0-.267.062-.319.3124h-.103c.014-.0959.031-.1919.041-.2919.014-.0962.021-.1919.021-.2914h.083c.027.1031.113.0995.206.0995h1.771c.093 0 .179-.0033.186-.1066l.082.0138c-.014.0928-.027.1854-.038.2783-.006.0926-.006.1855-.006.2778l-.103.0384c-.008-.1269-.025-.3303-.254-.3303h-.564v1.8272c0 .2647.121.295.285.295h.065v.1036c-.133 0-.374-.0136-.559-.0136-.206 0-.447.0136-.581.0136v-.1036h.066c.189 0 .285-.0169.285-.2879v-1.8343z" fill="#211e1f"/><path d="m131.922 16.0741c-.135 0-.375-.0138-.56-.0138-.206 0-.446.0138-.581.0138h-.014v-.0145-.1184h.014.066c.189-.0045.265-.0069.27-.2731v-1.8192h-.549v-.0151-.0152h.578v1.8495c0 .2755-.111.3033-.299.3036h-.051v.0724c.136-.0007.367-.0131.566-.0131.179 0 .409.0124.544.0131v-.0724h-.05c-.166-.0003-.299-.041-.299-.3107v-1.8424h.578c.23.0009.26.1969.268.3243l.074-.0274c0-.0895 0-.1793.006-.2698.01-.0883.023-.1759.036-.2635l-.052-.0088c-.016.1-.113.105-.199.104h-1.771-.018c-.081 0-.169-.0038-.2-.0997h-.056c-.001.095-.007.1871-.021.2785-.01.0943-.025.185-.038.2757h.073c.046-.2393.075-.3169.331-.3133v.0153.015c-.253.0045-.248.0473-.304.3011l-.003.0117h-.012-.12l.002-.0178c.014-.0962.031-.192.041-.292.015-.0952.021-.1905.021-.289v-.015h.015.094l.003.0107c.023.0867.087.0871.174.0886h.018 1.771c.095-.0015.165-.0029.171-.0927l.001-.0162.016.0034.097.0152-.002.015c-.014.0919-.028.1848-.038.2769-.007.0915-.007.1843-.007.2769v.0107l-.009.0039-.122.0442-.001-.02c-.009-.129-.022-.3157-.239-.3157h-.548v1.8121c.003.2591.105.277.269.2803h.08v.0147.1181z" fill="#211e1f"/><path d="m132.646 15.9559h.048c.123 0 .254-.0166.254-.1955v-1.799c0-.1791-.131-.196-.254-.196h-.048v-.103c.209 0 .566.0135.854.0135.289 0 .646-.0135.879-.0135-.006.1473-.003.3745.007.5252l-.103.0276c-.016-.2231-.058-.4014-.418-.4014h-.477v.8993h.408c.206 0 .251-.1164.271-.3024h.103c-.007.1345-.01.2684-.01.4022 0 .1307.003.2609.01.3914l-.103.0205c-.02-.206-.031-.3398-.268-.3398h-.411v.7998c0 .2235.198.2235.418.2235.412 0 .594-.0278.697-.4188l.096.0236c-.045.1824-.086.364-.116.5464-.22 0-.615-.0136-.924-.0136s-.718.0136-.913.0136z" fill="#211e1f"/><path d="m134.482 16.0741c-.22 0-.615-.014-.923-.014-.309 0-.718.014-.914.014h-.014v-.0145-.1036-.0147h.014.049c.124-.0019.237-.0129.239-.1807v-1.7991c-.002-.1676-.115-.1788-.239-.1814h-.063v-.0145-.1179h.014c.21 0 .567.0131.855.0131.289 0 .645-.0131.879-.0131h.015v.0152c-.003.0517-.004.1126-.004.1774 0 .1188.004.2486.01.3465l.001.0123-.011.0034-.121.0314-.001-.0176c-.02-.2229-.05-.3845-.403-.3879h-.463l-.001.8693h.395c.197-.0019.233-.1031.256-.2881l.001-.0135h.014.118v.0154c-.007.1338-.011.2676-.011.4014 0 .13.004.2603.011.391v.0122l-.012.0028-.12.0238-.001-.0162c-.023-.2095-.025-.3243-.253-.3269l-.397-.0002v.7854c0 .2086.18.2074.404.2086.413-.0024.579-.0223.683-.4081l.003-.0138.014.0026.111.0283-.004.0144c-.044.1819-.085.3633-.116.5452l-.003.0121zm-.012-.03c.03-.1731.069-.3469.111-.5198l-.068-.0171c-.103.3843-.302.4186-.707.416-.216 0-.433 0-.434-.2384v-.8147h.427c.24-.0027.264.1421.281.3376l.074-.0155c-.006-.1264-.009-.2533-.009-.3793 0-.1293.003-.2578.009-.3871h-.074c-.019.1788-.075.3045-.284.3021h-.424v-.9295h.493c.357-.0024.416.1819.431.3979l.074-.02c-.006-.097-.01-.2212-.01-.336 0-.0588.002-.1143.004-.1629-.234.001-.581.0134-.864.0134-.282 0-.629-.0124-.84-.0134v.0729h.034c.122 0 .268.0214.269.2112v1.7991c-.001.1892-.147.2102-.269.2112h-.034v.0723c.201-.0002.597-.0131.899-.0131.303 0 .689.0129.911.0131z" fill="#211e1f"/><path d="m135.063 14.0262c0-.2505-.138-.2608-.245-.2608h-.061v-.1033c.11 0 .322.0138.532.0138.206 0 .371-.0138.553-.0138.432 0 .817.1169.817.605 0 .3083-.206.4974-.477.6043l.587.8786c.096.1452.164.1859.333.2059v.1036c-.114 0-.224-.0136-.337-.0136-.106 0-.216.0136-.322.0136-.265-.3469-.492-.7179-.715-1.1131h-.226v.7352c0 .2648.123.2743.281.2743h.062v.1036c-.196 0-.394-.0136-.59-.0136-.165 0-.327.0136-.498.0136v-.1036h.061c.128 0 .245-.0576.245-.185zm.439.7966h.168c.343 0 .528-.1304.528-.5357 0-.3052-.195-.5012-.501-.5012-.103 0-.147.0107-.195.0138z" fill="#211e1f"/><path d="m137.102 16.0741c-.115 0-.224-.0138-.337-.0138-.105 0-.215.0138-.334.0081-.264-.3455-.489-.7143-.711-1.1067h-.203v.7195c.003.2584.107.2562.266.26h.077v.0148.1181h-.015c-.197 0-.396-.0138-.591-.0138-.164 0-.325.0138-.497.0138h-.015v-.0148-.1181h.015.061c.124-.0007.229-.0545.229-.1702v-1.7447c-.003-.2438-.122-.2424-.229-.246h-.076v-.0147-.1184h.015c.111 0 .323.0136.532.0136.205 0 .37-.0136.553-.0136.432.001.831.1205.832.6191 0 .3102-.205.5037-.47.6119l.577.8638c.096.1423.156.1778.323.1992l.013.0019v.0129.1181zm-1.6-1.1424h.235l.004.0076c.223.3945.449.765.702 1.1055.105 0 .215-.0141.322-.0141.109 0 .215.0119.322.0136v-.0752c-.161-.02-.237-.0681-.33-.2108l-.598-.894.017-.0069c.269-.1057.467-.2893.468-.5912-.001-.4765-.371-.5869-.802-.5888-.181 0-.346.0136-.553.0136-.202 0-.405-.0127-.518-.0136v.0728h.047c.107.0003.259.0179.259.276v1.7448c0 .1378-.129.2007-.259.2009h-.047v.0724c.166-.0005.322-.0136.483-.0136.192 0 .386.0131.576.0136v-.0724h-.047c-.157-.0003-.296-.0198-.296-.2907v-.7495zm0-.0943h-.015v-1.0514l.013-.0012c.047-.0036.093-.0134.197-.0134.313 0 .516.2034.517.5164-.001.41-.198.5493-.544.5496zm.168-.0295c.34-.0029.511-.121.514-.52-.001-.3-.188-.4862-.487-.4874-.093 0-.136.0085-.18.0124v.995z" fill="#211e1f"/><path d="m139.433 15.3826.006-.0067v-1.2876c0-.2819-.195-.3228-.298-.3228h-.075v-.1031c.161 0 .318.0135.48.0135.141 0 .281-.0135.423-.0135v.1031h-.052c-.144 0-.305.0273-.305.4359v1.5629c0 .12.003.24.02.3464h-.13l-1.768-1.9712v1.415c0 .2989.058.4015.322.4015h.058v.1035c-.147 0-.295-.0135-.442-.0135-.155 0-.313.0135-.467.0135v-.1035h.047c.237 0 .31-.161.31-.4355v-1.4464c0-.1922-.158-.3086-.313-.3086h-.044v-.1031c.13 0 .264.0135.394.0135.103 0 .203-.0135.306-.0135z" fill="#211e1f"/><path d="m139.632 16.1255-.141-.0047-1.743-1.9424v1.376c.004.2988.049.3835.308.3869h.073v.0147.1181h-.015c-.149 0-.296-.0141-.443-.0141-.153 0-.312.0141-.466.0141h-.016v-.0145-.1183h.016.047c.227-.001.292-.1469.294-.4217v-1.4455c0-.1829-.15-.2938-.297-.294h-.06v-.0145-.1184h.016c.131 0 .265.0136.394.0136.101 0 .201-.0136.316-.0088l1.509 1.6995v-1.2634c-.001-.2728-.183-.3066-.283-.308h-.091v-.0145-.1184h.015c.162 0 .321.0136.481.0136.14 0 .281-.0136.422-.0136h.015v.0155.1174h-.015-.051c-.141.0038-.287.0164-.291.4214v1.5626c0 .12.003.239.02.3448l.002.0166zm-.131-.03h.113c-.015-.1031-.018-.2174-.018-.3314v-1.5626c0-.4122.174-.4503.321-.4514h.036v-.0727c-.135.001-.271.0134-.407.0134-.158 0-.311-.0124-.466-.0134v.0727h.061c.105.0011.314.0473.314.338l-.005 1.2981-.007.0072-.01.0109-1.528-1.7268c-.102 0-.202.0133-.306.0133-.127 0-.255-.0124-.38-.0133v.0726h.03c.162.0012.327.1228.327.324v1.4455c0 .2757-.078.4512-.324.4521l-.033-.0002v.0726c.148-.0007.301-.0131.452-.0131.144 0 .287.0124.429.0131v-.0724h-.044c-.27-.0002-.338-.1185-.338-.4174v-1.4528zm-.068-.7131.01-.0097zm-.009-.0064v-.0012l-.002-.0026z" fill="#211e1f"/><path d="m140.521 15.5683c-.035.1164-.076.2064-.076.2676 0 .1034.144.12.257.12h.039v.1036c-.138-.0074-.278-.0136-.417-.0136-.123 0-.246.0062-.37.0136v-.1036h.021c.134 0 .247-.0788.298-.2233l.55-1.5757c.044-.1272.107-.2988.127-.4262.11-.0374.247-.106.312-.1474.011-.0035.017-.0071.028-.0071.01 0 .017 0 .024.0107.01.0271.02.0583.031.0857l.632 1.7962c.041.12.082.2469.126.3502.042.0962.114.1369.228.1369h.02v.1036c-.155-.0074-.309-.0135-.474-.0135-.168 0-.34.0061-.515.0135v-.1036h.038c.079 0 .213-.0133.213-.0993 0-.0445-.031-.1371-.069-.2473l-.134-.3984h-.779zm.501-1.5214h-.007l-.319.9719h.642z" fill="#211e1f"/><path d="m142.35 16.0741c-.155-.0069-.309-.014-.473-.014-.168 0-.339.0071-.515.014l-.015.001v-.0155-.1188h.015.038c.079 0 .197-.0181.197-.084.001-.0391-.03-.1334-.068-.2426l-.13-.3884h-.758l-.106.3469c-.035.1171-.076.2079-.076.2638.001.0838.129.1043.243.1043h.053v.0155.1188l-.015-.001c-.138-.0069-.278-.014-.415-.014-.123 0-.247.0071-.37.014l-.016.001v-.0155-.1188h.015.021c.128-.0005.234-.0731.284-.2128l.549-1.576c.046-.1274.107-.2986.137-.4355.108-.0364.246-.1054.312-.1473.009-.0031.019-.0079.033-.0079.008-.0002.027.0019.038.02.01.0283.02.0588.031.0867l.632 1.796c.041.1204.082.2473.126.3487.04.0917.103.1277.214.1281h.035v.0155.1188zm-.973-.0307c.17-.0059.336-.0126.5-.0126.16 0 .309.0067.458.0126v-.0717h-.004c-.118.0007-.199-.0454-.241-.1466-.045-.1043-.087-.2317-.127-.3519l-.632-1.7957c-.011-.0274-.021-.0586-.03-.0829-.003-.0033-.002-.0033-.005-.0033h-.006c-.007 0-.011.0021-.02.0045-.066.0431-.204.1105-.306.1374-.021.13-.083.3014-.127.4285l-.55 1.5762c-.052.1491-.173.2341-.312.2338h-.006v.0717c.118-.0059.237-.0126.356-.0126.133 0 .268.0067.399.0126v-.0717h-.022c-.111-.0014-.268-.014-.272-.1352 0-.0686.043-.1564.076-.2724l.015.0045-.015-.005.113-.3671h.801l.137.4081c.039.1102.07.2017.07.2521-.005.1055-.15.1129-.227.115h-.023zm-.702-1.0098.329-1.0016h.011.007v.015l-.004.0007.004-.0007v-.015h.011l.325 1.0016zm.041-.0297h.601l-.299-.9203zm.291-.9526.008-.0026z" fill="#211e1f"/><path d="m142.502 13.8337c-.258 0-.268.062-.32.3124h-.103c.014-.0959.031-.1919.042-.2919.014-.0962.02-.1919.02-.2914h.083c.027.1031.113.0995.205.0995h1.773c.092 0 .177-.0033.185-.1066l.082.0138c-.013.0928-.027.1854-.037.2783-.008.0926-.008.1855-.008.2778l-.103.0384c-.006-.1269-.023-.3303-.253-.3303h-.564v1.8272c0 .2647.121.295.285.295h.065v.1036c-.133 0-.373-.0136-.559-.0136-.206 0-.447.0136-.58.0136v-.1036h.065c.189 0 .285-.0169.285-.2879v-1.8343z" fill="#211e1f"/><path d="m143.854 16.0741c-.134 0-.375-.0138-.559-.0138-.205 0-.446.0138-.58.0138h-.016v-.0146-.1183h.016.065c.189-.0045.265-.0069.27-.2731l-.001-1.8193h-.547v-.015-.0152h.577v1.8495c0 .2755-.111.3026-.299.3033h-.051v.0734c.136-.0015.367-.0139.566-.0139.179 0 .409.0125.544.0139v-.0734h-.05c-.165-.0007-.299-.0405-.3-.3105v-1.8423h.578c.231.0009.261.1969.268.3243l.075-.0274c0-.0896 0-.1793.007-.2693.009-.0883.022-.1764.035-.2641l-.052-.0088c-.016.1-.113.1055-.198.1041h-1.773-.017c-.081.0009-.169-.0039-.2-.1003h-.056c-.001.0953-.007.1877-.021.2791-.009.0945-.026.1855-.039.2757h.074c.045-.2393.075-.3169.332-.3133v.0152.015c-.255.0043-.249.0474-.305.3012l-.003.0117h-.012-.12l.002-.0172c.014-.0969.031-.1926.041-.2919.014-.096.021-.1912.021-.2898v-.015h.015.094l.002.0107c.024.0867.087.0872.175.0886l.017.0005h1.773c.094-.0019.164-.0033.169-.0928l.001-.0165.017.0034.097.0152-.003.015c-.014.0919-.027.1848-.037.2769-.007.0915-.007.1846-.007.2769v.0107l-.01.0039-.122.0442v-.02c-.009-.129-.023-.3157-.24-.3157h-.548v1.8121c.004.2591.106.277.27.2803h.08v.0147.1181z" fill="#211e1f"/><path d="m144.596 15.9559h.048c.124 0 .253-.0166.253-.1955v-1.799c0-.1791-.129-.196-.253-.196h-.048v-.103c.134 0 .339.0135.507.0135.173 0 .378-.0135.54-.0135v.103h-.048c-.124 0-.255.017-.255.196v1.799c0 .1789.131.1955.255.1955h.048v.1036c-.165 0-.371-.0136-.542-.0136-.169 0-.371.0136-.505.0136z" fill="#211e1f"/><path d="m145.643 16.0741c-.166 0-.371-.014-.543-.014-.167 0-.37.014-.504.014h-.015v-.0145-.1036-.0147h.015.048c.124-.0019.238-.0126.238-.1807v-1.7991c0-.1676-.114-.1791-.238-.1814h-.063v-.0145-.1179h.015c.134 0 .34.0131.507.0131.171 0 .377-.0131.54-.0131h.015v.0147.1177h-.015-.048c-.126.0023-.238.0138-.24.1814v1.7991c.002.1681.114.1788.24.1807h.063v.0147.1181zm-.015-.03v-.0726h-.033c-.123 0-.269-.0217-.269-.2109v-1.7991c0-.1898.146-.2112.269-.2112h.033v-.0729c-.159.001-.357.0134-.525.0134-.162 0-.359-.0124-.492-.0134v.0729h.033c.122 0 .268.0214.269.2112v1.7991c-.001.1892-.147.2109-.269.2109h-.033v.0726c.132-.0014.326-.0131.489-.0131.167 0 .366.0124.528.0131z" fill="#211e1f"/><path d="m147.012 13.6108c.732 0 1.315.4538 1.315 1.185 0 .7901-.566 1.315-1.297 1.315-.729 0-1.284-.4945-1.284-1.2328 0-.7141.552-1.2672 1.266-1.2672zm.052 2.3488c.666 0 .782-.5876.782-1.0883 0-.5019-.27-1.1095-.84-1.1095-.601 0-.78.5357-.78.9955 0 .6147.282 1.2023.838 1.2023z" fill="#211e1f"/><path d="m145.73 14.8781c.002-.7224.561-1.2812 1.282-1.2822v.015.0145c-.706 0-1.252.546-1.253 1.2527.002.73.55 1.2171 1.271 1.2173.724-.0002 1.282-.5178 1.283-1.3002 0-.7219-.575-1.1688-1.301-1.1698v-.0145-.015c.738.0005 1.329.4589 1.33 1.1993 0 .7983-.574 1.3288-1.312 1.3302-.734-.0014-1.298-.5009-1.3-1.2473zm.481-.1207c.001-.4619.182-1.011.795-1.011.582.0015.855.6205.856 1.125-.001.5007-.119 1.1027-.798 1.1027v-.0143-.0148c.653-.0009.766-.5729.768-1.0736 0-.4978-.268-1.0938-.826-1.0945-.589.0007-.764.5231-.765.9805.001.6116.279 1.1862.823 1.1876v.0148.0143c-.57-.0008-.852-.5984-.853-1.2167z" fill="#211e1f"/><path d="m150.641 15.3826.007-.0067v-1.2876c0-.2819-.196-.3228-.299-.3228h-.074v-.1031c.161 0 .318.0135.479.0135.142 0 .282-.0135.423-.0135v.1031h-.052c-.144 0-.305.0273-.305.4359v1.5629c0 .12.003.24.021.3464h-.131l-1.768-1.9712v1.415c0 .2989.058.4015.322.4015h.059v.1035c-.148 0-.295-.0135-.443-.0135-.155 0-.313.0135-.467.0135v-.1035h.048c.237 0 .309-.161.309-.4355v-1.4464c0-.1922-.158-.3086-.313-.3086h-.044v-.1031c.13 0 .264.0135.394.0135.104 0 .203-.0135.306-.0135z" fill="#211e1f"/><path d="m150.841 16.1255-.142-.005-1.742-1.9421v1.3762c.003.2986.049.3831.307.3862h.074v.0155.1178h-.015c-.149 0-.296-.0138-.443-.0138-.154 0-.312.0138-.468.0138h-.014v-.0147-.1186h.014.049c.226-.0007.291-.1464.294-.4202v-1.4465c0-.1828-.15-.2938-.298-.294h-.059v-.0145-.1179h.014c.132 0 .266.0131.395.0131.102 0 .201-.0131.318-.0081l1.508 1.6988v-1.2628c-.001-.2733-.184-.3062-.284-.3086h-.09v-.0145-.1178h.015c.162 0 .32.013.48.013.141 0 .281-.013.423-.013h.015v.0147.1176h-.015-.052c-.141.0041-.287.0169-.29.4214v1.5627c0 .12.003.2397.019.3447l.003.0167h-.016zm-.131-.03h.113c-.015-.1031-.018-.2173-.018-.3314v-1.5626c0-.4129.173-.4502.32-.4514h.037v-.0727c-.135.001-.271.0134-.408.0134-.156 0-.31-.0124-.465-.0134v.0727h.06c.106.0012.313.0481.313.3385l-.003 1.2977-.007.0071-.011.0109-1.528-1.7268c-.101 0-.201.0133-.305.0133-.127 0-.256-.0124-.381-.0133v.0726h.03c.162.0012.328.1228.328.324v1.4465c0 .2745-.077.4502-.324.4512l-.034-.0003v.0726c.149-.0007.302-.0131.453-.0131.143 0 .285.0124.428.0131v-.0723h-.044c-.27-.0003-.337-.1186-.337-.4172v-1.4536zm-.069-.7131.011-.0097zm-.008-.0064v-.0012l-.003-.0026z" fill="#211e1f"/><path d="m151.729 15.5683c-.034.1164-.075.2064-.075.2676 0 .1034.144.12.257.12h.038v.1036c-.137-.0074-.278-.0136-.416-.0136-.124 0-.247.0062-.37.0136v-.1036h.02c.134 0 .248-.0788.299-.2233l.55-1.5757c.044-.1272.106-.2988.126-.4262.11-.0374.247-.106.313-.1474.01-.0035.017-.0071.027-.0071.011 0 .017 0 .024.0107.011.0271.021.0583.031.0857l.632 1.7962c.041.12.082.2469.127.3502.041.0962.114.1369.227.1369h.021v.1036c-.155-.0074-.31-.0135-.475-.0135-.167 0-.339.0061-.515.0135v-.1036h.039c.078 0 .213-.0133.213-.0993 0-.0445-.032-.1371-.07-.2473l-.133-.3984h-.78zm.502-1.5214h-.007l-.32.9719h.643z" fill="#211e1f"/><path d="m153.558 16.0741c-.154-.0062-.309-.0138-.473-.0138-.167 0-.339.0076-.514.0138l-.015.001v-.0157-.1181h.014.038c.08 0 .198-.0186.198-.0846.001-.039-.03-.1326-.068-.2426l-.131-.3883h-.758l-.106.3469c-.034.1176-.075.2078-.074.2633 0 .0843.128.1053.242.1053h.052v.0147.1191l-.015-.001c-.137-.0062-.278-.0138-.415-.0138-.123 0-.246.0076-.37.0138l-.015.001v-.0157-.1181h.015.02c.128-.0005.235-.0741.285-.2134l.55-1.5759c.043-.1274.105-.2986.136-.435.108-.0374.245-.106.312-.1479.009-.0031.018-.0071.032-.0071.01-.001.027.0011.038.02.01.0269.02.058.032.0859l.631 1.796c.041.1205.082.2474.127.3495.04.091.103.1269.212.1279h.036v.0147.1191zm-.973-.0302c.17-.0065.337-.0131.5-.0131.16 0 .31.0066.459.0126v-.0717h-.006c-.116.0003-.197-.0455-.24-.1467-.045-.1042-.086-.2316-.127-.3514l-.632-1.7962c-.01-.0274-.021-.0585-.029-.0819-.003-.0043-.002-.0043-.005-.0043h-.007c-.007 0-.011.0024-.019.0048-.067.0421-.204.1107-.306.1371-.021.13-.084.3012-.128.4286l-.55 1.5762c-.052.1491-.172.2341-.312.2338h-.005v.0717c.118-.006.236-.0126.355-.0126.134 0 .269.0066.401.0126v-.0717h-.023c-.112-.0014-.269-.0136-.273-.1357.001-.0681.044-.1555.077-.2719l.014.0045-.014-.005.113-.3671h.801l.137.408c.038.1105.069.2017.069.2522-.005.1055-.149.1128-.227.115h-.023zm-.701-1.0105.329-1.0014h.01.008v.015l-.004.0007.004-.0007v-.015h.011l.324 1.0014zm.041-.0295h.6l-.298-.9198zm.292-.9526.006-.0027z" fill="#211e1f"/><path d="m154.425 15.7228c0 .1374.095.1784.205.1924.141.0105.295.0105.454-.0069.144-.0174.268-.0997.329-.1855.055-.0757.086-.1719.106-.2474h.1c-.038.1958-.086.3886-.127.5841-.302 0-.604-.0136-.906-.0136-.303 0-.604.0136-.907.0136v-.1036h.048c.124 0 .258-.0166.258-.2297v-1.7648c0-.1791-.134-.196-.258-.196h-.048v-.103c.182 0 .361.0135.542.0135.176 0 .347-.0135.523-.0135v.103h-.087c-.13 0-.232.0039-.232.1853z" fill="#211e1f"/><path d="m155.492 16.0741c-.303 0-.605-.0138-.906-.0138-.303 0-.605.0138-.907.0138h-.015v-.0148-.118h.015.048c.124-.0029.242-.0115.243-.215v-1.7655c-.001-.1669-.118-.1783-.243-.1807h-.063v-.0145-.1179h.015c.182 0 .361.0131.543.0131.174 0 .345-.0131.522-.0131h.014v.0148.1176h-.014-.087c-.133.0038-.215-.0024-.218.1707v1.7721c.001.1279.085.1624.192.1774.061.0043.124.0069.19.0069.084 0 .172-.004.26-.0135.14-.0164.261-.0972.32-.1791.053-.0733.083-.1676.104-.2426l.003-.0114h.011.118l-.003.0181c-.039.1964-.086.3883-.128.5838l-.003.0117h-.011zm-.013-.03c.04-.1862.085-.3683.122-.5541h-.07c-.022.0748-.052.1669-.106.2419-.064.0891-.192.1729-.34.1912-.09.0093-.179.0141-.264.0141-.066 0-.131-.0031-.193-.0074-.111-.0124-.22-.06-.219-.2069v-1.7721c0-.1908.12-.2005.248-.2005h.071v-.0729c-.169.001-.336.0136-.507.0136-.177 0-.351-.0126-.527-.0136v.0729h.033c.122 0 .272.0214.272.2105v1.7654c0 .2222-.149.2453-.272.2453h-.033v.0726c.297-.0003.593-.0131.892-.0131.298 0 .596.0128.893.0131z" fill="#211e1f"/><path d="m155.577 13.5647c.207 0 .362.159.362.3629 0 .2028-.155.3604-.362.3604s-.361-.1576-.361-.3604c0-.2038.154-.3629.361-.3629zm0 .6559c.162 0 .286-.138.286-.293 0-.156-.122-.2953-.286-.2953-.162 0-.287.1393-.287.2953 0 .155.125.293.287.293zm-.18-.1026v-.0178c.045-.0062.053-.0048.053-.0324v-.2676c0-.0376-.004-.0505-.051-.0486v-.0183h.185c.064 0 .122.0302.122.0959 0 .0538-.036.0936-.085.1091l.059.0828c.028.0376.059.0729.08.0852v.0117h-.071c-.034 0-.063-.0712-.13-.1667h-.04v.1203c0 .0238.008.0224.053.0285v.0179zm.122-.1904h.043c.046 0 .068-.0355.068-.0924 0-.0576-.034-.0779-.071-.0779h-.04z" fill="#211e1f"/></g><path d="m164.115 21.864h1.072l4.784-15.568h-1.056z" fill="#000" fill-opacity=".5"/><g clip-path="url(#j)"><path d="m185.081 6.80495c-.394.47288-1.024.84586-1.654.79258-.078-.63939.23-1.31875.591-1.73835.394-.4862 1.083-.83254 1.641-.85918.065.66603-.191 1.31874-.578 1.80495zm.571.91912c-.912-.05328-1.693.52617-2.126.52617-.44 0-1.103-.49953-1.825-.48621-.938.01332-1.811.55281-2.29 1.41199-.984 1.71838-.256 4.26258.696 5.66128.466.6927 1.023 1.4519 1.758 1.4253.696-.0266.972-.4596 1.812-.4596.846 0 1.089.4596 1.824.4463.761-.0133 1.24-.6927 1.706-1.3854.532-.7859.749-1.5518.762-1.5918-.013-.0133-1.47-.5794-1.484-2.2845-.013-1.42528 1.149-2.10463 1.201-2.14459-.656-.98573-1.68-1.0923-2.034-1.11894zm5.27-1.93149v10.38342h1.588v-3.5499h2.198c2.008 0 3.419-1.3987 3.419-3.42344 0-2.02473-1.384-3.41008-3.366-3.41008zm1.588 1.3587h1.831c1.378 0 2.165.74596 2.165 2.05804s-.787 2.06468-2.172 2.06468h-1.824zm8.518 9.10462c.997 0 1.923-.5128 2.343-1.3254h.033v1.2455h1.47v-5.1684c0-1.49856-1.182-2.46431-2.999-2.46431-1.687 0-2.934.97907-2.98 2.32441h1.431c.118-.6393.702-1.05895 1.503-1.05895.971 0 1.516.45955 1.516 1.30545v.5728l-1.982.1199c-1.844.1132-2.842.8791-2.842 2.2112 0 1.3454 1.03 2.2378 2.507 2.2378zm.427-1.2321c-.847 0-1.385-.413-1.385-1.0457 0-.6527.518-1.0323 1.509-1.0923l1.766-.1132v.5861c0 .9724-.814 1.6651-1.89 1.6651zm5.381 3.9762c1.549 0 2.277-.5994 2.914-2.4177l2.789-7.9391h-1.615l-1.87 6.1342h-.033l-1.87-6.1342h-1.661l2.691 7.5595-.144.4595c-.243.7793-.637 1.079-1.339 1.079-.125 0-.368-.0133-.466-.0266v1.2454c.092.0267.486.04.604.04z" fill="#000"/></g><g fill="#5f6368"><path d="m236.815 11.8251v4.0936h-1.291v-10.12402h3.356c.818 0 1.592.30812 2.195.88035.602.52821.903 1.32053.903 2.15686 0 .83634-.301 1.58461-.903 2.15691-.603.5722-1.334.8803-2.195.8803zm0-4.79793v3.52143h2.151c.474 0 .947-.1761 1.248-.5282.689-.66029.689-1.76074.043-2.421l-.043-.04402c-.344-.35214-.774-.57223-1.248-.52821z"/><path d="m244.948 8.78784c.946 0 1.678.26411 2.237.79232.56.52824.818 1.23254.818 2.11284v4.2257h-1.205v-.9684h-.043c-.517.7923-1.248 1.1885-2.109 1.1885-.731 0-1.377-.2201-1.893-.6603-.473-.4402-.775-1.0564-.775-1.7167 0-.7042.259-1.2765.775-1.7167.516-.4401 1.248-.6162 2.109-.6162.774 0 1.376.1321 1.85.4402v-.3081c0-.4402-.172-.8804-.517-1.1445-.344-.3081-.774-.4842-1.247-.4842-.732 0-1.291.3081-1.679.9244l-1.118-.7043c.688-.92438 1.592-1.36456 2.797-1.36456zm-1.636 5.01806c0 .3521.173.6602.431.8363.301.2201.645.3521.989.3521.517 0 1.033-.2201 1.42-.6162.431-.3962.646-.8804.646-1.4086-.387-.3081-.947-.4842-1.678-.4842-.517 0-.947.1321-1.291.3962-.344.2201-.517.5282-.517.9244z"/><path d="m254.973 9.00806-4.26 9.99204h-1.29l1.592-3.4774-2.797-6.47063h1.377l2.022 4.97403h.043l1.98-4.97403h1.333z"/></g><path d="m231.694 10.9448c0-.3961-.043-.7923-.086-1.18845h-5.379v2.24485h3.056c-.13.7043-.517 1.3646-1.119 1.7608v1.4525h1.85c1.076-1.0124 1.678-2.509 1.678-4.2697z" fill="#4285f4"/><path d="m226.229 16.623c1.55 0 2.84-.5282 3.787-1.4086l-1.85-1.4526c-.517.3522-1.162.5723-1.937.5723-1.463 0-2.753-1.0125-3.184-2.421h-1.893v1.4966c.99 1.9808 2.926 3.2133 5.077 3.2133z" fill="#34a853"/><path d="m223.045 11.9131c-.258-.7043-.258-1.4966 0-2.24487v-1.4966h-1.893c-.818 1.62865-.818 3.56547 0 5.23807z" fill="#fbbc04"/><path d="m226.229 7.29128c.818 0 1.592.30813 2.195.88036l1.635-1.67267c-1.033-.96839-2.41-1.54062-3.787-1.4966-2.151 0-4.131 1.23249-5.077 3.21328l1.893 1.4966c.387-1.40856 1.678-2.42097 3.141-2.42097z" fill="#ea4335"/></svg>