<svg fill="none" height="48" viewBox="0 0 48 48" width="48" xmlns="http://www.w3.org/2000/svg" xmlns:xlink="http://www.w3.org/1999/xlink"><clipPath id="a"><path d="m8 8h32v32h-32z"/></clipPath><rect fill="#f0f0ee" height="48" rx="24" width="48"/><g clip-path="url(#a)"><path d="m10.6667 36.666v-24h13v5.5h13.6667v18.5zm2-2h3.5v-3.5h-3.5zm0-5.5h3.5v-3.5h-3.5zm0-5.5h3.5v-3.5h-3.5zm0-5.5h3.5v-3.5h-3.5zm5.5 16.5h3.5v-3.5h-3.5zm0-5.5h3.5v-3.5h-3.5zm0-5.5h3.5v-3.5h-3.5zm0-5.5h3.5v-3.5h-3.5zm5.5 16.5h11.6667v-14.5h-11.6667v3.5h2.6667v2h-2.6667v3.5h2.6667v2h-2.6667zm6.1667-9v-2h2v2zm0 5.5v-2h2v2z" fill="#000" fill-opacity=".5"/></g></svg>