<svg fill="none" height="48" viewBox="0 0 48 48" width="48" xmlns="http://www.w3.org/2000/svg" xmlns:xlink="http://www.w3.org/1999/xlink"><clipPath id="a"><rect height="32" rx="16" width="32" x="8" y="8"/></clipPath><rect fill="#f0f0ee" height="48" rx="24" width="48"/><g clip-path="url(#a)"><path d="m24.0002 23.2998c-1.4667 0-2.6667-.4667-3.6-1.4-.9334-.9333-1.4-2.1333-1.4-3.6s.4666-2.6667 1.4-3.6c.9333-.9333 2.1333-1.4 3.6-1.4 1.4666 0 2.6666.4667 3.6 1.4.9333.9333 1.4 2.1333 1.4 3.6s-.4667 2.6667-1.4 3.6c-.9334.9333-2.1334 1.4-3.6 1.4zm-10.6667 10.7v-3.1333c0-.8445.2111-1.5667.6333-2.1667.4223-.6.9667-1.0556 1.6334-1.3667 1.4889-.6666 2.9166-1.1666 4.2833-1.5 1.3667-.3333 2.7389-.5 4.1167-.5 1.3777 0 2.7444.1723 4.1.5167 1.3555.3445 2.7777.8389 4.2666 1.4833.6889.3111 1.2445.7667 1.6667 1.3667s.6333 1.3222.6333 2.1667v3.1333z" fill="#000" fill-opacity=".5"/></g></svg>