<svg fill="none" height="36" viewBox="0 0 197 36" width="197" xmlns="http://www.w3.org/2000/svg" xmlns:xlink="http://www.w3.org/1999/xlink"><clipPath id="a"><path d="m.5.5h85v35h-85z"/></clipPath><g clip-path="url(#a)"><path d="m16.0391 5.01237c-.9961 1.18221-2.5899 2.11465-4.1836 1.98145-.1992-1.59848.5811-3.29686 1.4941-4.34587.9961-1.2155 2.7393-2.081347 4.1504-2.14795.166 1.66508-.4814 3.29686-1.4609 4.51237zm1.4443 2.29781c-2.3076-.13321-4.2832 1.31541-5.3789 1.31541-1.1123 0-2.78904-1.24881-4.61521-1.2155-2.37403.0333-4.58204 1.38201-5.79395 3.53001-2.490234 4.2959-.64746 10.6565 1.75977 14.1531 1.17871 1.7317 2.58984 3.6299 4.44921 3.5633 1.75977-.0666 2.45708-1.1489 4.58208-1.1489 2.1416 0 2.7558 1.1489 4.6152 1.1156 1.9258-.0333 3.1377-1.7317 4.3164-3.4634 1.3447-1.9647 1.8926-3.8796 1.9258-3.9795-.0332-.0333-3.7188-1.4486-3.752-5.7112-.0332-3.5633 2.9053-5.2617 3.0381-5.3616-1.6601-2.4643-4.25-2.73072-5.1465-2.79732zm13.3311-4.82873v25.95865h4.0176v-8.8749h5.5615c5.0801 0 8.6494-3.4967 8.6494-8.5585 0-5.06189-3.5029-8.52525-8.5166-8.52525zm4.0176 3.39676h4.6318c3.4863 0 5.4785 1.86489 5.4785 5.14509s-1.9922 5.1618-5.4951 5.1618h-4.6152zm21.5488 22.76169c2.5234 0 4.8642-1.2821 5.9267-3.3135h.0831v3.1137h3.7187v-12.9211c0-3.7464-2.9883-6.16077-7.5869-6.16077-4.2666 0-7.4209 2.44767-7.5371 5.81117h3.6191c.2988-1.5985 1.7764-2.6475 3.8018-2.6475 2.457 0 3.8349 1.1489 3.8349 3.2635v1.432l-5.0136.2997c-4.6651.2831-7.1885 2.1979-7.1885 5.5281 0 3.3635 2.6064 5.5947 6.3418 5.5947zm1.0791-3.0804c-2.1416 0-3.5029-1.0324-3.5029-2.6142 0-1.6318 1.3115-2.5809 3.8183-2.7307l4.4658-.2831v1.4653c0 2.431-2.0586 4.1627-4.7812 4.1627zm13.6133 9.9405c3.9179 0 5.7607-1.4986 7.3711-6.0442l7.0556-19.84781h-4.084l-4.7314 15.33541h-.083l-4.7315-15.33541h-4.2001l6.8066 18.89871-.3652 1.1489c-.6143 1.9481-1.6104 2.6974-3.3868 2.6974-.3154 0-.9297-.0333-1.1787-.0666v3.1137c.2324.0666 1.2285.0999 1.5274.0999z" fill="#000"/></g><g fill="#5f6368"><path d="m150.622 17.5626v10.2341h-3.261v-25.31013h8.48c2.065 0 4.022.77031 5.544 2.20088 1.522 1.32053 2.283 3.30132 2.283 5.39215 0 2.0908-.761 3.9616-2.283 5.3922-1.522 1.4305-3.37 2.2009-5.544 2.2009zm0-11.99479v8.80349h5.436c1.196 0 2.392-.4401 3.153-1.3205 1.739-1.6507 1.739-4.40176.109-6.05242l-.109-.11005c-.87-.88035-1.957-1.43057-3.153-1.32052z"/><path d="m171.169 9.96973c2.392 0 4.24.66027 5.654 1.98077 1.413 1.3205 2.065 3.0813 2.065 5.2821v10.5643h-3.044v-2.421h-.109c-1.304 1.9808-3.152 2.9712-5.327 2.9712-1.848 0-3.479-.5502-4.783-1.6507-1.196-1.1004-1.957-2.641-1.957-4.2917 0-1.7607.652-3.1913 1.957-4.2917 1.304-1.1005 3.153-1.5406 5.327-1.5406 1.957 0 3.479.3301 4.675 1.1004v-.7703c0-1.1004-.435-2.2009-1.305-2.8611-.87-.7704-1.957-1.2105-3.153-1.2105-1.848 0-3.261.7703-4.24 2.3109l-2.826-1.7607c1.739-2.3109 4.022-3.41137 7.066-3.41137zm-4.131 12.54507c0 .8803.435 1.6506 1.087 2.0908.761.5502 1.631.8803 2.501.8803 1.304 0 2.609-.5502 3.587-1.5406 1.088-.9904 1.631-2.2009 1.631-3.5214-.978-.7703-2.392-1.2105-4.24-1.2105-1.304 0-2.392.3302-3.261.9904-.87.5502-1.305 1.3206-1.305 2.311z"/><path d="m196.5 10.52-10.763 24.98h-3.261l4.022-8.6935-7.066-16.1764h3.479l5.109 12.4349h.109l5.001-12.4349h3.37z"/></g><path d="m137.685 15.3619c0-.9904-.109-1.9808-.218-2.9712h-13.589v5.6123h7.719c-.326 1.7607-1.305 3.4114-2.827 4.4018v3.6314h4.675c2.718-2.531 4.24-6.2725 4.24-10.6743z" fill="#4285f4"/><path d="m123.878 29.5574c3.914 0 7.175-1.3205 9.567-3.5214l-4.675-3.6314c-1.305.8803-2.935 1.4305-4.892 1.4305-3.697 0-6.958-2.531-8.045-6.0524h-4.784v3.7415c2.501 4.952 7.393 8.0332 12.829 8.0332z" fill="#34a853"/><path d="m115.833 17.7829c-.653-1.7607-.653-3.7415 0-5.6122v-3.7415h-4.784c-2.065 4.0716-2.065 8.9136 0 13.0952z" fill="#fbbc04"/><path d="m123.878 6.22821c2.065 0 4.022.77031 5.544 2.20088l4.131-4.18167c-2.609-2.42097-6.088-3.851544-9.567-3.741499-5.436 0-10.437 3.081229-12.828 8.033219l4.783 3.74146c.979-3.52138 4.24-6.05239 7.937-6.05239z" fill="#ea4335"/></svg>