<svg fill="none" height="26" viewBox="0 0 120 26" width="120" xmlns="http://www.w3.org/2000/svg"><g fill="#8d8d8d"><path d="m39.2937 7.40341c-.5056-.21665-1.2279-.36093-2.0706-.36093-3.5151 0-6.2358 2.67261-6.2358 6.23582 0 3.0819 2.0465 5.0321 4.9597 5.0321.8992.0051 1.788-.1924 2.6004-.5778.7463-.289 1.3-.7466 1.3-1.5171-.024-.674-.5537-1.011-1.0834-1.011-.2889 0-.6018.1445-1.0352.337-.4178.1459-.8576.2192-1.3001.2167-1.6132.0001-2.6244-.8907-2.6244-2.624 0-2.1908 1.6613-3.5633 3.491-3.5633.4354-.00884.8684.0647 1.2765.21673.337.12052.6019.24087.939.24087.65 0 1.1074-.50566 1.1074-1.22805-.0003-.6744-.5299-1.10777-1.3245-1.39704z"/><path d="m47.3351 7.04248c-3.4911 0-6.1154 2.69665-6.1154 6.30802 0 2.9857 2.0705 4.9599 5.1042 4.9599 3.5152 0 6.1395-2.7208 6.1395-6.3322 0-2.98531-2.0705-4.93572-5.1283-4.93572zm-.915 8.88452c-1.4204 0-2.4316-.9872-2.4316-2.6968 0-2.2632 1.565-3.80411 3.2747-3.80411 1.4206 0 2.4318.98721 2.4318 2.69671-.0004 2.2391-1.5654 3.8042-3.2749 3.8042z"/><path d="m115.749 10.2324c.069-.41614.336-.61368.719-.61368h2.28c.77 0 1.252-.50565 1.252-1.17961 0-.67397-.482-1.17962-1.252-1.17962h-1.94c-.385 0-.614-.11488-.55-.61964l.034-.24693c.096-.67432-.241-.96323-.65-.96323-.337 0-.554.16858-.891.43337l-2.841 2.21521c-.337.2648-.554.50547-.554.86666.002.09539.023.1895.061.27672.039.08722.095.16576.164.23092.07.06517.152.11563.242.14836.089.03274.185.04708.28.04217h.419c.389 0 .62.11603.549.6358l-.631 4.3961c-.024.289-.048.578-.048.8187 0 1.6854 1.131 2.7688 3.346 2.7688.871.0081 1.734-.1725 2.528-.5296.554-.2168.891-.6502.891-1.2765 0-.6262-.505-.9871-1.011-.9871-.265 0-.53.0969-.819.1926-.313.0924-.637.141-.963.1444-.794 0-1.204-.3851-1.204-1.1074 0-.1445.024-.3371.049-.6019z"/><path d="m75.795 7.18689c-.2164.00548-.4289.05914-.6219.15709-.1931.09795-.3619.23771-.4942.40912l-.0036-.00132c-.2219.22633-.4326.25837-.7445.02641-.5546-.41374-1.3242-.7362-2.349-.7362-3.154 0-5.6098 3.10591-5.6098 6.35631 0 2.6965 1.6853 4.9116 4.1652 4.9116.8073-.0041 1.596-.2423 2.2706-.6857v.0036c.4434-.2266.6303.132.5797.5138l-.0814.5535c-.2889 2.0946-1.589 2.8409-3.0095 2.8409-.963 0-1.6854-.2888-2.2151-.5055-.2888-.1205-.5537-.2408-.8666-.2408-.6743 0-1.228.4815-1.228 1.2519 0 .6501.4334 1.0836 1.0112 1.3484.7464.3853 1.9503.7463 3.3707.7463 2.7202 0 5.1524-1.5167 5.6821-5.2487l1.4446-10.25648c.1197-.79412-.4822-1.44423-1.3005-1.44423zm-4.906 8.73991c-1.3218 0-2.2624-.9871-2.2624-2.6967 0-2.2633 1.4562-3.80415 3.0468-3.80415 1.3218 0 2.2629.98715 2.2629 2.69675-.0007 2.239-1.457 3.8041-3.0476 3.8041z"/><path d="m96.26 7.09077c-.1947-.00754-.3884.03169-.5649.1144-.1764.0827-.3305.20648-.4493.36097v-.0008c-.2787.39438-.5128.41234-.7754.24446-.5565-.4339-1.3339-.76683-2.3753-.76683-3.1779 0-5.6097 3.10593-5.6097 6.35633 0 2.6965 1.6613 4.9116 4.1652 4.9116.883-.0054 1.7413-.2926 2.4497-.8197v.0025c.4007-.305.6259-.2826.7827.0446h.0005c.1126.2112.2822.3866.4895.5061.2074.1196.4441.1785.6833.1702.7946 0 1.252-.5537 1.3483-1.3002l1.0593-7.48782c.0482-.33698.0963-.67405.1205-1.03524.0021-.17341-.0309-.34546-.097-.50579-.0661-.16032-.1639-.30562-.2876-.42713-.1238-.12151-.2708-.21672-.4323-.27991-.1615-.06318-.3341-.09303-.5075-.08774zm-4.741 8.83613c-1.3381 0-2.2901-.9871-2.2901-2.6967 0-2.2633 1.4738-3.80415 3.0836-3.80415 1.3381 0 2.2901.98715 2.2901 2.69675 0 2.239-1.4738 3.8041-3.0836 3.8041z"/><path d="m61.0831 7.04248c-1.0369 0-1.9593.37131-2.7684 1.00223l-.0004-.00106c-.312.23153-.5944.33223-.7327-.04401h-.0004c-.0783-.26685-.2423-.50048-.4667-.66476s-.4967-.25006-.7747-.24407c-.7946 0-1.276.5538-1.3724 1.32425l-1.059 7.48774c-.0586.334-.0909.6721-.0969 1.0111 0 .6984.5057 1.3002 1.3002 1.3002.7946 0 1.276-.5537 1.3723-1.3002l.5385-3.8998c.3892-2.9537 1.9655-3.58775 2.9767-3.58775s1.565.57795 1.565 1.49285c-.0095.2181-.0336.4353-.0723.6501l-.6009 4.3819c-.0723.4335-.1205.6983-.1205.963 0 .6985.5057 1.3003 1.3243 1.3003.7945 0 1.2519-.5538 1.3483-1.3003l.8426-5.8985c.0241-.289.0481-.5298.0481-.7705-.0008-1.99881-1.4445-3.20272-3.2507-3.20272z"/><path d="m85.354 7.1148c-.8099 0-1.5705.35987-2.2465 1.05796l-.0008-.00168c-.3118.23161-.6027.32915-.7409-.04745h-.0007c-.0557-.29487-.2142-.56045-.4472-.74957-.233-.18913-.5254-.28956-.8255-.28347-.7944 0-1.2764.55381-1.3723 1.32425l-1.0594 7.48796c-.0583.3341-.0905.6721-.0962 1.0111 0 .6985.5055 1.3003 1.3001 1.3003.7945 0 1.276-.5538 1.3723-1.3003l.5096-3.6524c.3272-2.1582 1.4934-3.42725 3.5594-3.54636.7211-.04164 1.3241-.5538 1.3241-1.32424 0-.79439-.5537-1.2761-1.276-1.2761z"/><path d="m106.397 7.04248c-1.037 0-1.959.37131-2.768 1.00223l-.001-.00106c-.311.23153-.594.33223-.732-.04401h-.001c-.078-.26682-.242-.50043-.466-.66471-.225-.16427-.497-.25007-.775-.24412-.795 0-1.276.5538-1.372 1.32425l-1.0597 7.48774c-.0583.334-.0905.6721-.0963 1.0111 0 .6984.5055 1.3002 1.3 1.3002.795 0 1.277-.5537 1.372-1.3002l.539-3.8998c.389-2.9537 1.965-3.58775 2.977-3.58775 1.011 0 1.565.57795 1.565 1.49285-.01.2181-.034.4352-.073.6501l-.602 4.3818c-.072.4335-.12.6983-.12.9631 0 .6984.506 1.3002 1.324 1.3002.795 0 1.252-.5537 1.349-1.3002l.842-5.8986c.024-.2889.048-.5298.048-.7705.001-1.99871-1.444-3.20262-3.25-3.20262z"/><path d="m19.7189 4.5776c0-2.8757-3.3452-4.5776-7.0425-4.5776-7.61754 0-12.6764 5.05895-12.6764 12.6764 0 7.6175 5.05886 12.6765 12.6764 12.6765 3.6973 0 7.0425-1.7019 7.0425-4.5776 0-2.4222-3.1691-3.4641-3.1691-8.0989 0-4.6347 3.1691-5.67664 3.1691-8.0988zm-14.26099 9.8594c-.34822 0-.68862-.1032-.97815-.2967-.28953-.1934-.51519-.4684-.64845-.7901s-.16812-.6757-.10019-1.0173c.06793-.3415.23562-.6552.48184-.9014.24623-.2462.55994-.4139.90147-.4819.34152-.0679.69552-.033 1.01723.1002.32172.1333.59669.359.79014.6485.19346.2895.29672.6299.29672.9781-.00277.4661-.18915.9123-.51873 1.2419s-.77579.516-1.24188.5187zm6.68149 1.7607c-1.2236 0-2.1039-1.4592-2.1039-3.5213 0-2.1175.8796-3.5212 2.1039-3.5212 1.2289 0 2.1216 1.3985 2.1216 3.5212s-.893 3.5213-2.1216 3.5213z"/><path d="m22.5219 18.3104c-1.938 0-3.1547-2.3346-3.1547-5.634 0-3.3879 1.2167-5.63392 3.1547-5.63392 1.9454 0 3.5356 2.23765 3.5356 5.63392 0 3.3964-1.59 5.634-3.5356 5.634z"/></g></svg>