<svg fill="none" height="25" viewBox="0 0 113 25" width="113" xmlns="http://www.w3.org/2000/svg"><g fill="#6bc634"><path d="m10.7715 3.47152c-.6404-.27717-1.55543-.46175-2.62276-.46175-4.45254 0-7.89874 3.41921-7.89874 7.97783 0 3.9428 2.59229 6.4378 6.28235 6.4378 1.13896.0066 2.26475-.2461 3.29377-.7392.94538-.3698 1.64668-.9552 1.64668-1.9409-.0304-.8623-.7013-1.2934-1.3723-1.2934-.36593 0-.76233.1848-1.31127.4311-.52926.1867-1.08624.2804-1.64683.2773-2.04335.0001-3.32421-1.1395-3.32421-3.3571 0-2.8028 2.10434-4.5587 4.42198-4.5587.55143-.0113 1.1.08278 1.61684.27728.42699.15418.76249.30813 1.18939.30813.8234 0 1.4028-.6469 1.4028-1.57108-.0005-.8628-.6713-1.41724-1.6777-1.78731z"/><path d="m20.9581 3.00977c-4.4221 0-7.7462 3.44996-7.7462 8.07013 0 3.8197 2.6226 6.3455 6.4653 6.3455 4.4526 0 7.7767-3.4808 7.7767-8.10113 0-3.81924-2.6226-6.3145-6.4958-6.3145zm-1.159 11.36643c-1.7992 0-3.0801-1.263-3.0801-3.4501 0-2.89552 1.9823-4.86686 4.148-4.86686 1.7994 0 3.0802 1.26295 3.0802 3.45007-.0004 2.86459-1.9827 4.86689-4.1481 4.86689z"/><path d="m107.616 7.0916c.087-.53236.426-.78509.91-.78509h2.888c.976 0 1.586-.6469 1.586-1.50914 0-.86223-.61-1.50914-1.586-1.50914h-2.456c-.488 0-.778-.14697-.698-.79275l.044-.3159c.122-.86269-.305-1.232314-.824-1.232314-.427 0-.701.215674-1.128.554434l-3.599 2.83403c-.427.33877-.701.64668-.701 1.10877.002.12203.028.24243.077.35402.049.11158.119.21206.208.29543.088.08337.192.14793.305.18981.114.04188.235.06023.355.05395h.531c.493 0 .786.14843.695.81336l-.799 5.62423c-.03.3698-.061.7394-.061 1.0474 0 2.1562 1.433 3.5422 4.239 3.5422 1.104.0105 2.196-.2206 3.202-.6775.702-.2773 1.129-.8319 1.129-1.6331s-.641-1.2629-1.281-1.2629c-.336 0-.671.1239-1.037.2463-.396.1182-.807.1804-1.22.1848-1.006 0-1.525-.4926-1.525-1.4168 0-.1848.031-.4312.061-.77z"/><path d="m57.0065 3.19514c-.2742.00701-.5433.07567-.7879.20098-.2445.12531-.4584.30412-.6259.52341l-.0046-.00169c-.2811.28955-.5479.33066-.943.03379-.7024-.52933-1.6773-.94186-2.9754-.94186-3.9951 0-7.1058 3.97354-7.1058 8.13203 0 3.4497 2.1348 6.2836 5.276 6.2836 1.0225-.0052 2.0216-.31 2.8761-.8773v.0046c.5616-.2899.7984.1689.7342.6574l-.103.708c-.366 2.6798-2.0128 3.6346-3.812 3.6346-1.2199 0-2.1349-.3694-2.8059-.6467-.3658-.1542-.7013-.3081-1.0977-.3081-.8541 0-1.5554.616-1.5554 1.6017 0 .8317.5489 1.3863 1.2808 1.725.9455.493 2.4703.9548 4.2696.9548 3.4462 0 6.5263-1.9404 7.1972-6.7149l1.83-13.12168c.1516-1.01596-.6109-1.84768-1.6473-1.84768zm-6.2143 11.18146c-1.6743 0-2.8657-1.2629-2.8657-3.45 0-2.89557 1.8445-4.86691 3.8593-4.86691 1.6743 0 2.8663 1.26295 2.8663 3.45007-.0009 2.86454-1.8456 4.86684-3.8604 4.86684z"/><path d="m82.9296 3.07287c-.2467-.00965-.492.04053-.7155.14634s-.4186.26418-.5691.46182l-.0005-.00101c-.3531.50455-.6496.52752-.9822.31275-.7049-.55511-1.6896-.98105-3.0087-.98105-4.0254 0-7.1057 3.97354-7.1057 8.13198 0 3.4498 2.1043 6.2837 5.276 6.2837 1.1185-.0069 2.2056-.3744 3.1029-1.0488v.0033c.5075-.3902.7929-.3615.9914.0571h.0006c.1427.2702.3575.4945.6201.6474.2627.153.5625.2284.8655.2178 1.0064 0 1.5858-.7084 1.7078-1.6635l1.3419-9.57951c.061-.43112.122-.86235.1525-1.32444.0027-.2218-.039-.44187-.1227-.64696s-.2076-.39095-.3643-.54639c-.1567-.15545-.3429-.27727-.5474-.35814-.2045-.08086-.4231-.11909-.6426-.11239zm-6.0054 11.30463c-1.6949 0-2.9006-1.263-2.9006-3.4501 0-2.89554 1.8667-4.86688 3.9058-4.86688 1.6949 0 2.9007 1.26294 2.9007 3.45007 0 2.86451-1.8668 4.86691-3.9059 4.86691z"/><path d="m38.3718 3.00977c-1.3133 0-2.4817.47504-3.5066 1.2822l-.0005-.00135c-.3952.2962-.7529.42504-.9281-.05631h-.0006c-.0991-.3414-.3069-.64029-.5911-.85046-.2843-.21017-.6291-.31991-.9813-.31226-1.0064 0-1.6163.70851-1.7384 1.69418l-1.3414 9.57943c-.0741.4273-.1151.8598-.1227 1.2936 0 .8935.6405 1.6634 1.647 1.6634 1.0064 0 1.6162-.7084 1.7382-1.6634l.6821-4.9892c.493-3.77892 2.4896-4.59002 3.7705-4.59002 1.2808 0 1.9823.73936 1.9823 1.90985-.012.279-.0426.55687-.0915.83171l-.7613 5.60596c-.0915.5546-.1525.8934-.1525 1.2321 0 .8936.6405 1.6635 1.6774 1.6635 1.0064 0 1.5858-.7084 1.7078-1.6635l1.0673-7.54634c.0306-.36962.061-.67776.061-.98567-.0011-2.5572-1.8298-4.09742-4.1176-4.09742z"/><path d="m69.1138 3.10357c-1.0259 0-1.9893.4604-2.8456 1.3535l-.0009-.00214c-.3951.29631-.7635.42109-.9386-.06071h-.0009c-.0706-.37724-.2712-.71701-.5664-.95897-.2951-.24196-.6656-.37045-1.0456-.36265-1.0064 0-1.6169.70851-1.7383 1.69418l-1.342 9.57972c-.0738.4274-.1145.8599-.1218 1.2936 0 .8936.6403 1.6635 1.6468 1.6635s1.6163-.7084 1.7383-1.6635l.6455-4.6727c.4144-2.76114 1.8916-4.3847 4.5085-4.53708.9134-.05327 1.6773-.70851 1.6773-1.69418 0-1.0163-.7014-1.63257-1.6163-1.63257z"/><path d="m95.7689 3.00977c-1.3134 0-2.4818.47504-3.5066 1.2822l-.0005-.00135c-.3951.2962-.753.42504-.9281-.05631h-.0007c-.0991-.34136-.3068-.64023-.591-.85039-.2842-.21017-.629-.31993-.9812-.31233-1.0064 0-1.6168.70851-1.7384 1.69418l-1.3418 9.57943c-.0739.4273-.1146.8598-.122 1.2936 0 .8935.6404 1.6634 1.6468 1.6634 1.0065 0 1.6168-.7084 1.7383-1.6634l.6822-4.9892c.4929-3.77892 2.4894-4.59002 3.7704-4.59002s1.9823.73936 1.9823 1.90985c-.012.27899-.0426.55685-.0915.83171l-.7624 5.60586c-.0915.5546-.1525.8934-.1525 1.2321 0 .8936.6404 1.6635 1.6773 1.6635 1.0065 0 1.5858-.7084 1.7078-1.6635l1.0675-7.54635c.0305-.36963.061-.67776.061-.98567.0002-2.55709-1.8296-4.09731-4.1169-4.09731z"/></g></svg>