<svg fill="none" height="35" viewBox="0 0 154 35" width="154" xmlns="http://www.w3.org/2000/svg"><g fill="#8d8d8d"><path d="m50.4265 10.909c-.6488-.278-1.5758-.4632-2.6572-.4632-4.5112 0-8.0027 3.4299-8.0027 8.0027 0 3.955 2.6264 6.4579 6.365 6.4579 1.154.0065 2.2946-.247 3.3371-.7416.9578-.3709 1.6684-.9581 1.6684-1.9469-.0308-.865-.7106-1.2975-1.3903-1.2975-.3708 0-.7724.1854-1.3286.4325-.5362.1872-1.1005.2813-1.6685.2781-2.0702.0001-3.368-1.143-3.368-3.3675 0-2.8115 2.1321-4.5729 4.4802-4.5729.5587-.0113 1.1145.083 1.6381.2782.4326.1546.7725.309 1.2051.309.8342 0 1.4212-.6489 1.4212-1.5759-.0004-.8655-.6801-1.4217-1.6998-1.7929z"/><path d="m60.7468 10.4458c-4.4803 0-7.8481 3.4607-7.8481 8.0953 0 3.8316 2.6571 6.3653 6.5504 6.3653 4.5111 0 7.879-3.4917 7.879-8.1264 0-3.8312-2.6572-6.3342-6.5813-6.3342zm-1.1742 11.4018c-1.823 0-3.1207-1.2669-3.1207-3.4608 0-2.9045 2.0084-4.882 4.2026-4.882 1.8231 0 3.1208 1.2669 3.1208 3.4608-.0005 2.8735-2.0089 4.882-4.2027 4.882z"/><path d="m148.545 14.5399c.088-.534.432-.7875.923-.7875h2.926c.988 0 1.606-.6489 1.606-1.5138 0-.865-.618-1.5139-1.606-1.5139h-2.49c-.494 0-.788-.1474-.706-.79519l.044-.31689c.123-.86538-.309-1.23616-.834-1.23616-.433 0-.711.21635-1.144.55617l-3.646 2.84287c-.432.3398-.71.6487-.71 1.1122.002.1224.028.2432.078.3551.049.112.121.2128.21.2964.09.0836.195.1484.31.1904s.237.0604.36.0541h.537c.5 0 .796.1489.705.8159l-.81 5.6417c-.031.3709-.062.7417-.062 1.0507 0 2.1629 1.453 3.5532 4.295 3.5532 1.118.0105 2.225-.2213 3.245-.6796.71-.2782 1.143-.8344 1.143-1.6381s-.649-1.2668-1.298-1.2668c-.34 0-.68.1243-1.051.2471-.401.1186-.817.1809-1.236.1854-1.019 0-1.544-.4943-1.544-1.4212 0-.1854.03-.4326.061-.7724z"/><path d="m97.2699 10.6318c-.2778.007-.5504.0759-.7982.2016s-.4645.305-.6342.525l-.0046-.0017c-.2848.2905-.5552.3316-.9554.0339-.7118-.531-1.6995-.9448-3.0146-.9448-4.0477 0-7.1993 3.9859-7.1993 8.1573 0 3.4605 2.1628 6.3033 5.3454 6.3033 1.036-.0053 2.0482-.311 2.9139-.8801v.0046c.5691-.2908.8089.1695.744.6594l-.1044.7103c-.3708 2.6881-2.0393 3.6459-3.8622 3.6459-1.236 0-2.163-.3706-2.8428-.6487-.3706-.1547-.7106-.3091-1.1122-.3091-.8653 0-1.5759.618-1.5759 1.6067 0 .8343.5562 1.3906 1.2978 1.7304.9579.4945 2.5028.9578 4.3257.9578 3.4909 0 6.6122-1.9465 7.292-6.7359l1.854-13.1625c.1536-1.0191-.6189-1.8534-1.669-1.8534zm-6.2961 11.2163c-1.6963 0-2.9034-1.2669-2.9034-3.4609 0-2.9045 1.8688-4.882 3.9101-4.882 1.6963 0 2.904 1.2669 2.904 3.4608-.0009 2.8735-1.8698 4.8821-3.9111 4.8821z"/><path d="m123.534 10.5081c-.25-.0097-.499.0407-.725.1468-.227.1062-.424.265-.577.4633v-.001c-.357.5061-.658.5291-.995.3137-.714-.5569-1.712-.9841-3.048-.9841-4.078 0-7.199 3.9859-7.199 8.1573 0 3.4605 2.132 6.3032 5.345 6.3032 1.133-.0069 2.235-.3755 3.144-1.052v.0033c.514-.3915.803-.3626 1.004.0573h.001c.144.271.362.496.628.6494.266.1535.57.2291.877.2184 1.02 0 1.607-.7106 1.73-1.6686l1.36-9.6094c.062-.4324.123-.865.154-1.3285.003-.2226-.039-.4433-.124-.6491s-.21-.3922-.369-.5482c-.159-.1559-.348-.2781-.555-.3592s-.429-.1194-.651-.1126zm-6.085 11.3398c-1.717 0-2.938-1.2669-2.938-3.4608 0-2.9045 1.891-4.882 3.957-4.882 1.717 0 2.939 1.2669 2.939 3.4608 0 2.8735-1.892 4.882-3.958 4.882z"/><path d="m78.3901 10.4458c-1.3307 0-2.5144.4765-3.5527 1.2862l-.0006-.0014c-.4004.2972-.7628.4264-.9403-.0564h-.0005c-.1005-.3425-.311-.6423-.599-.8532-.288-.2108-.6374-.3209-.9942-.3132-1.0197 0-1.6375.7107-1.7612 1.6995l-1.3591 9.6092c-.0751.4287-.1166.8625-.1243 1.2976 0 .8964.6489 1.6687 1.6686 1.6687s1.6376-.7106 1.7612-1.6687l.691-5.0047c.4995-3.7907 2.5224-4.6043 3.8201-4.6043s2.0084.7417 2.0084 1.9158c-.0121.2799-.0431.5586-.0927.8343l-.7713 5.6235c-.0927.5563-.1545.8961-.1545 1.2359 0 .8963.6489 1.6686 1.6994 1.6686 1.0197 0 1.6067-.7106 1.7303-1.6686l1.0814-7.5699c.031-.3708.0618-.6798.0618-.9887-.0011-2.5652-1.8539-4.1102-4.1718-4.1102z"/><path d="m109.537 10.5387c-1.04 0-2.016.4619-2.883 1.3577l-.001-.0021c-.401.2972-.774.4224-.951-.0609h-.001c-.072-.3784-.275-.7192-.574-.962-.299-.2427-.674-.3716-1.059-.3637-1.02 0-1.638.7107-1.762 1.6994l-1.359 9.6096c-.075.4287-.116.8625-.124 1.2976 0 .8964.649 1.6686 1.669 1.6686s1.637-.7106 1.761-1.6686l.654-4.6872c.42-2.7698 1.916-4.3984 4.568-4.5513.925-.0534 1.699-.7107 1.699-1.6994 0-1.0195-.71-1.6377-1.637-1.6377z"/><path d="m136.543 10.4458c-1.331 0-2.515.4765-3.553 1.2862l-.001-.0014c-.4.2972-.763.4264-.94-.0564h-.001c-.1-.3425-.311-.6423-.599-.8531-.287-.2108-.637-.3209-.994-.3133-1.019 0-1.638.7107-1.761 1.6995l-1.359 9.6092c-.075.4287-.116.8626-.124 1.2976 0 .8964.649 1.6687 1.669 1.6687 1.019 0 1.638-.7106 1.761-1.6687l.691-5.0047c.499-3.7907 2.522-4.6043 3.82-4.6043s2.008.7417 2.008 1.9158c-.012.2799-.043.5586-.092.8343l-.773 5.6234c-.093.5562-.154.8961-.154 1.2359 0 .8963.648 1.6686 1.699 1.6686 1.02 0 1.607-.7106 1.73-1.6686l1.082-7.5699c.031-.3708.062-.6799.062-.9887 0-2.5651-1.854-4.1101-4.171-4.1101z"/><path d="m25.306 7.2828c0-3.69049-4.293-5.8746-9.0379-5.8746-9.77588 0-16.2681 6.49234-16.2681 16.2681 0 9.7758 6.49222 16.2681 16.2681 16.2681 4.7449 0 9.0379-2.1841 9.0379-5.8746 0-3.1084-4.0671-4.4456-4.0671-10.3935s4.0671-7.285 4.0671-10.3935zm-18.30167 12.653c-.44688 0-.88372-.1325-1.25529-.3808s-.66117-.6012-.83218-1.014c-.17101-.4129-.21576-.8672-.12858-1.3055s.30238-.8409.61837-1.1569c.31599-.3159.71859-.5311 1.15688-.6183s.89259-.0425 1.30546.1286c.41286.171.76574.4606 1.01401.8321.24827.3716.38079.8084.38079 1.2553-.00356.5982-.24275 1.1708-.66571 1.5938-.42296.4229-.9956.6621-1.59375.6657zm8.57467 2.2594c-1.5703 0-2.7001-1.8725-2.7001-4.5189 0-2.7174 1.1289-4.5189 2.7001-4.5189 1.5771 0 2.7226 1.7948 2.7226 4.5189s-1.146 4.5189-2.7226 4.5189z"/><path d="m28.9025 24.9068c-2.4871 0-4.0485-2.996-4.0485-7.2302 0-4.3479 1.5614-7.2303 4.0485-7.2303 2.4967 0 4.5375 2.8717 4.5375 7.2303s-2.0406 7.2302-4.5375 7.2302z"/></g></svg>