<svg fill="none" height="36" viewBox="0 0 86 36" width="86" xmlns="http://www.w3.org/2000/svg" xmlns:xlink="http://www.w3.org/1999/xlink"><clipPath id="a"><path d="m.5.5h85v35h-85z"/></clipPath><g clip-path="url(#a)"><path d="m16.0391 5.01237c-.9961 1.18221-2.5899 2.11465-4.1836 1.98145-.1992-1.59848.5811-3.29686 1.4941-4.34587.9961-1.2155 2.7393-2.081347 4.1504-2.14795.166 1.66508-.4814 3.29686-1.4609 4.51237zm1.4443 2.29781c-2.3076-.13321-4.2832 1.31542-5.3789 1.31542-1.1123 0-2.78904-1.24882-4.61521-1.21551-2.37403.0333-4.58204 1.38201-5.79395 3.53001-2.490234 4.2959-.64746 10.6565 1.75977 14.1531 1.17871 1.7317 2.58984 3.6299 4.44921 3.5633 1.75977-.0666 2.45708-1.1489 4.58208-1.1489 2.1416 0 2.7558 1.1489 4.6152 1.1156 1.9258-.0333 3.1377-1.7317 4.3164-3.4634 1.3447-1.9647 1.8926-3.8796 1.9258-3.9795-.0332-.0333-3.7188-1.4486-3.752-5.7112-.0332-3.5633 2.9053-5.2617 3.0381-5.3616-1.6601-2.4643-4.25-2.73072-5.1465-2.79732zm13.3311-4.82873v25.95865h4.0176v-8.8749h5.5615c5.0801 0 8.6494-3.4967 8.6494-8.5585 0-5.06189-3.5029-8.52525-8.5166-8.52525zm4.0176 3.39676h4.6318c3.4863 0 5.4785 1.86489 5.4785 5.14509s-1.9922 5.1618-5.4951 5.1618h-4.6152zm21.5488 22.76169c2.5234 0 4.8642-1.2821 5.9267-3.3135h.0831v3.1137h3.7187v-12.9211c0-3.7464-2.9883-6.16077-7.5869-6.16077-4.2666 0-7.4209 2.44767-7.5371 5.81117h3.6191c.2988-1.5985 1.7764-2.6475 3.8018-2.6475 2.457 0 3.8349 1.1489 3.8349 3.2635v1.432l-5.0136.2997c-4.6651.2831-7.1885 2.1979-7.1885 5.5281 0 3.3635 2.6064 5.5947 6.3418 5.5947zm1.0791-3.0804c-2.1416 0-3.5029-1.0324-3.5029-2.6142 0-1.6318 1.3115-2.5809 3.8183-2.7307l4.4658-.2831v1.4653c0 2.431-2.0586 4.1627-4.7812 4.1627zm13.6133 9.9405c3.9179 0 5.7607-1.4986 7.3711-6.0442l7.0556-19.84781h-4.084l-4.7314 15.33541h-.083l-4.7315-15.33541h-4.2001l6.8066 18.89871-.3652 1.1489c-.6143 1.9481-1.6104 2.6974-3.3868 2.6974-.3154 0-.9296-.0333-1.1787-.0666v3.1137c.2325.0666 1.2285.0999 1.5274.0999z" fill="#000"/></g></svg>