<svg fill="none" height="36" viewBox="0 0 88 36" width="88" xmlns="http://www.w3.org/2000/svg"><g fill="#5f6368"><path d="m41.6223 17.5626v10.2341h-3.2615v-25.31013h8.4799c2.0656 0 4.0225.77031 5.5445 2.20088 1.5221 1.32053 2.2831 3.30132 2.2831 5.39215 0 2.0908-.761 3.9616-2.2831 5.3922-1.522 1.4305-3.3702 2.2009-5.5445 2.2009zm0-11.99479v8.80349h5.4358c1.1959 0 2.3918-.4401 3.1528-1.3205 1.7395-1.6507 1.7395-4.40176.1087-6.05242l-.1087-.11005c-.8697-.88035-1.9569-1.43057-3.1528-1.32052z"/><path d="m62.1694 9.96973c2.3917 0 4.2399.66027 5.6532 1.98077s2.0656 3.0813 2.0656 5.2821v10.5643h-3.044v-2.421h-.1087c-1.3046 1.9808-3.1528 2.9712-5.3271 2.9712-1.8482 0-3.4789-.5502-4.7835-1.6507-1.1959-1.1004-1.9569-2.641-1.9569-4.2917 0-1.7607.6523-3.1913 1.9569-4.2917 1.3046-1.1005 3.1527-1.5406 5.3271-1.5406 1.9568 0 3.4789.3301 4.6747 1.1004v-.7703c0-1.1004-.4348-2.2009-1.3045-2.8611-.8698-.7704-1.9569-1.2105-3.1528-1.2105-1.8482 0-3.2615.7703-4.2399 2.3109l-2.8267-1.7607c1.7395-2.3109 4.0225-3.41137 7.0666-3.41137zm-4.1312 12.54507c0 .8803.4348 1.6506 1.0871 2.0908.761.5502 1.6308.8803 2.5005.8803 1.3046 0 2.6092-.5502 3.5876-1.5406 1.0872-.9904 1.6308-2.2009 1.6308-3.5214-.9785-.7703-2.3918-1.2105-4.24-1.2105-1.3045 0-2.3917.3302-3.2614.9904-.8698.5502-1.3046 1.3206-1.3046 2.311z"/><path d="m87.5001 10.52-10.7629 24.98h-3.2615l4.0225-8.6935-7.0666-16.1764h3.479l5.1096 12.4349h.1087l5.001-12.4349h3.3702z"/></g><path d="m28.6849 15.3619c0-.9904-.1087-1.9808-.2175-2.9712h-13.5895v5.6123h7.7189c-.3262 1.7607-1.3046 3.4114-2.8266 4.4018v3.6314h4.6748c2.7179-2.531 4.2399-6.2725 4.2399-10.6743z" fill="#4285f4"/><path d="m14.8778 29.5574c3.9138 0 7.1753-1.3205 9.567-3.5214l-4.6748-3.6314c-1.3045.8803-2.9353 1.4305-4.8922 1.4305-3.6963 0-6.95781-2.531-8.04497-6.0524h-4.78351v3.7415c2.50047 4.952 7.39269 8.0332 12.82848 8.0332z" fill="#34a853"/><path d="m6.83272 17.7829c-.6523-1.7607-.6523-3.7415 0-5.6122v-3.7415h-4.78351c-2.0656118 4.0716-2.0656118 8.9136 0 13.0952z" fill="#fbbc04"/><path d="m14.8775 6.22821c2.0656 0 4.0225.77031 5.5445 2.20088l4.1312-4.18167c-2.6091-2.42097-6.0881-3.851544-9.567-3.741499-5.43579 0-10.43673 3.081229-12.82849 8.033219l4.78352 3.74146c.97844-3.52138 4.23997-6.05239 7.93627-6.05239z" fill="#ea4335"/></svg>