<svg fill="none" height="20" viewBox="0 0 20 20" width="20" xmlns="http://www.w3.org/2000/svg"><path d="m17.8931 5.95059c.0121.175.0121.35.0121.52662 0 5.38149-4.0967 11.58789-11.58787 11.58789v-.0032c-2.21291.0032-4.37984-.6307-6.242745-1.8258.321774.0387.645161.058.969355.0588 1.83387.0017 3.61532-.6137 5.05806-1.7467-1.74274-.0331-3.27096-1.1694-3.80483-2.8283.61048.1178 1.23951.0936 1.83871-.0701-1.9-.3839-3.26694-2.05324-3.26694-3.99195 0-.01774 0-.03468 0-.05161.56613.31532 1.2.49032 1.84839.50968-1.789519-1.19597-2.341132-3.57662-1.26049-5.43791 2.06774 2.54436 5.11855 4.09113 8.39355 4.25484-.32822-1.41452.12016-2.89677 1.17821-3.89113 1.6403-1.54193 4.2202-1.4629 5.7621.17661.9121-.17983 1.7863-.51451 2.5863-.9887-.304.94274-.9403 1.74354-1.7903 2.25241.8072-.09516 1.5959-.31129 2.3387-.64112-.5468.81935-1.2355 1.53306-2.0323 2.10967z" fill="#1d9bf0"/></svg>