<svg fill="none" height="20" viewBox="0 0 20 20" width="20" xmlns="http://www.w3.org/2000/svg" xmlns:xlink="http://www.w3.org/1999/xlink"><clipPath id="a"><path d="m.000793 0h20v20h-20z"/></clipPath><g clip-path="url(#a)" fill="#aaa"><path d="m10.0008 1.80167c2.6703 0 2.9863.01032 4.041.05835.9749.04446 1.5044.20721 1.8569.34416.4668.18141.7999.39814 1.15.74786.3501.35011.5668.68315.7478 1.14996.137.3525.2997.88203.3442 1.85694.048 1.05431.0583 1.37068.0583 4.04097s-.0103 2.98629-.0583 4.04099c-.0445.9749-.2072 1.5044-.3442 1.8569-.1814.4668-.3981.7999-.7478 1.15-.3501.3501-.6832.5668-1.15.7478-.3525.137-.882.2997-1.8569.3442-1.0543.048-1.3707.0583-4.041.0583s-2.98667-.0103-4.04097-.0583c-.97491-.0445-1.50445-.2072-1.85694-.3442-.46682-.1814-.79986-.3981-1.14997-.7478-.35011-.3501-.56685-.6832-.74786-1.15-.13694-.3525-.29969-.882-.34415-1.8569-.04803-1.0543-.05835-1.3707-.05835-4.04099s.01032-2.98627.05835-4.04097c.04446-.97491.20721-1.50444.34415-1.85694.18141-.46681.39815-.79985.74786-1.14996.34972-.35011.68315-.56685 1.14997-.74786.35249-.13695.88203-.2997 1.85694-.34416 1.0543-.04803 1.37067-.05835 4.04097-.05835zm0-1.80176133c-2.71595 0-3.05653.01151163-4.12314.06033663-1.06423.0484277-1.79144.2175297-2.42736.4648297-.65775.255637-1.21546.597415-1.7712 1.153545-.55613.55613-.8979 1.11345-1.153537 1.77119-.246904.63592-.416005 1.36274-.4644329 2.42696-.0488251 1.06661-.06033664 1.4072-.06033664 4.12314 0 2.71599.01151154 3.05649.06033664 4.12309.0484279 1.0643.2175289 1.7915.4648299 2.4274.255637.6578.59741 1.2155 1.15354 1.7712.55613.5561 1.11345.8979 1.7712 1.1535.63591.2473 1.36313.4164 2.42736.4649 1.0666.0488 1.40719.0603 4.12314.0603 2.7159 0 3.0565-.0115 4.1231-.0603 1.0642-.0485 1.7915-.2176 2.4274-.4649.6577-.2556 1.2154-.5974 1.7712-1.1535.5561-.5561.8979-1.1134 1.1535-1.7712.2473-.6359.4164-1.3631.4648-2.4274.0489-1.0666.0604-1.4071.0604-4.12309 0-2.71594-.0115-3.05653-.0604-4.12314-.0484-1.06422-.2175-1.79144-.4648-2.42735-.2556-.65775-.5974-1.21547-1.1535-1.7712-.5561-.55613-1.1135-.897905-1.7712-1.153542-.6359-.2473-1.3632-.416402-2.4274-.4648297-1.0666-.048825-1.4072-.06033658-4.1231-.06033658z"/><path d="m10.0008 4.86523c-2.83621 0-5.13496 2.29915-5.13496 5.13497 0 2.8358 2.29915 5.135 5.13496 5.135 2.8358 0 5.135-2.2992 5.135-5.135 0-2.83582-2.2992-5.13497-5.135-5.13497zm0 8.46857c-1.84105 0-3.33319-1.4925-3.33319-3.3332 0-1.84067 1.49253-3.33321 3.33319-3.33321 1.8407 0 3.3332 1.49254 3.3332 3.33321 0 1.8407-1.4925 3.3332-3.3332 3.3332z"/><path d="m15.339 5.86188c.6628 0 1.2-.53725 1.2-1.19998s-.5372-1.19999-1.2-1.19999c-.6627 0-1.2.53726-1.2 1.19999s.5373 1.19998 1.2 1.19998z"/></g></svg>