<svg fill="none" height="20" viewBox="0 0 20 20" width="20" xmlns="http://www.w3.org/2000/svg"><path d="m17.9532 6.04588c.0122.17632.0122.35264.0122.53059 0 5.42213-4.1277 11.67543-11.67548 11.67543v-.0032c-2.22963.0032-4.41294-.6354-6.28992-1.8396.324206.039.650037.0585.97668.0593 1.84773.0016 3.64264-.6183 5.09629-1.76-1.75591-.0333-3.29569-1.1782-3.83359-2.8496.61509.1187 1.24888.0943 1.8526-.0707-1.91436-.3867-3.291622-2.0687-3.291622-4.02206v-.05201c.570402.31771 1.209072.49403 1.862352.51353-1.803037-1.205-2.358818-3.60364-1.27001-5.47899 2.08337 2.56358 5.15723 4.12204 8.45698 4.28699-.33071-1.42521.12107-2.91867 1.18712-3.92053 1.6527-1.55359 4.2521-1.47396 5.8056.17794.919-.18119 1.7998-.5184 2.6059-.99618-.3063.94987-.9474 1.75673-1.8039 2.26944.8134-.09588 1.6081-.31364 2.3564-.64597-.5509.82392-1.244 1.54302-2.0468 2.12399z" fill="#a5a5a5"/></svg>